<svg width="24" height="24" viewBox="0 0 24 24" fill="none" xmlns="http://www.w3.org/2000/svg">
<g clip-path="url(#clip0_529_201)">
<g filter="url(#filter0_d_529_201)">
<mask id="mask0_529_201" style="mask-type:luminance" maskUnits="userSpaceOnUse" x="-40" y="-100" width="202" height="124">
<path d="M-40 -100H161.649V24H-40V-100Z" fill="white"/>
</mask>
<g mask="url(#mask0_529_201)">
<mask id="mask1_529_201" style="mask-type:luminance" maskUnits="userSpaceOnUse" x="0" y="0" width="24" height="24">
<path d="M0 0H24V24H0V0Z" fill="white"/>
</mask>
<g mask="url(#mask1_529_201)">
<path d="M17.5 1H6.5C5.04131 1 3.64236 1.57946 2.61091 2.61091C1.57946 3.64236 1 5.04131 1 6.5V17.5C1 18.9587 1.57946 20.3576 2.61091 21.3891C3.64236 22.4205 5.04131 23 6.5 23H17.5C18.9587 23 20.3576 22.4205 21.3891 21.3891C22.4205 20.3576 23 18.9587 23 17.5V6.5C23 5.04131 22.4205 3.64236 21.3891 2.61091C20.3576 1.57946 18.9587 1 17.5 1Z" stroke="white" stroke-width="2" stroke-linecap="round" stroke-linejoin="round"/>
<path d="M17.5003 6H17.5103M16.0003 11.413C16.0774 11.9326 16.0514 12.4624 15.9237 12.972C15.7961 13.4815 15.5693 13.961 15.2564 14.3829C14.9434 14.8049 14.5505 15.1611 14.0999 15.4312C13.6493 15.7012 13.1499 15.8799 12.6303 15.957C12.1106 16.0341 11.5809 16.0081 11.0713 15.8804C10.5617 15.7528 10.0823 15.526 9.66034 15.2131C8.80817 14.5811 8.24197 13.6365 8.08629 12.587C7.93061 11.5375 8.1982 10.4692 8.83019 9.61705C9.46219 8.76488 10.4068 8.19868 11.4563 8.043C12.5057 7.88732 13.5741 8.15491 14.4262 8.78691C15.2784 9.4189 15.8446 10.3635 16.0003 11.413Z" stroke="white" stroke-width="2" stroke-linecap="round" stroke-linejoin="round"/>
</g>
</g>
</g>
</g>
<defs>
<filter id="filter0_d_529_201" x="-16" y="-20" width="56" height="56" filterUnits="userSpaceOnUse" color-interpolation-filters="sRGB">
<feFlood flood-opacity="0" result="BackgroundImageFix"/>
<feColorMatrix in="SourceAlpha" type="matrix" values="0 0 0 0 0 0 0 0 0 0 0 0 0 0 0 0 0 0 127 0" result="hardAlpha"/>
<feOffset dy="-4"/>
<feGaussianBlur stdDeviation="8"/>
<feComposite in2="hardAlpha" operator="out"/>
<feColorMatrix type="matrix" values="0 0 0 0 0 0 0 0 0 0 0 0 0 0 0 0 0 0 0.08 0"/>
<feBlend mode="normal" in2="BackgroundImageFix" result="effect1_dropShadow_529_201"/>
<feBlend mode="normal" in="SourceGraphic" in2="effect1_dropShadow_529_201" result="shape"/>
</filter>
<clipPath id="clip0_529_201">
<rect width="24" height="24" fill="white"/>
</clipPath>
</defs>
</svg>
