<svg width="112" height="173" fill="none" xmlns="http://www.w3.org/2000/svg"><path d="M10.01 132.957c17.332-3.425 35.185-16.946 82.49-55.73 50.352-41.27 83.861-13.454 87.522-10.153l.123.071.199.226c.009.032-14.046 58.937-71.449 80.236 0 0 58.554-12.731 76.719-75.07 4.647-16.84 12.097-37.11-3.855-71.701-.001-.002 6.28 3.906 13.075 16.389 33.117 60.844-12.855 134.714-75.752 151.567-40.237 10.781-81.083-.135-109.574-25.536a118.224 118.224 0 0 1-8.948-8.532c.065-.018.171-.011.268-.037-.249-.282-.489-.531-.738-.812l9.92-.918Z" fill="url(#a)"/><defs><linearGradient id="a" x1="102.307" y1="167.849" x2="106.619" y2="-56.569" gradientUnits="userSpaceOnUse"><stop stop-color="#2A6B71"/><stop offset=".076" stop-color="#387566"/><stop offset=".381" stop-color="#6A993F"/><stop offset=".648" stop-color="#8FB323"/><stop offset=".863" stop-color="#A6C311"/><stop offset="1" stop-color="#AEC90B"/></linearGradient></defs></svg>