<svg width="391" height="204" fill="none" xmlns="http://www.w3.org/2000/svg"><path d="M51.242 53.148c-4.637 13.825 9.783 21.81 23.54 28.312-14.337 9.578 17.93 16.21 17.93 16.21 4.813 29.328 51.321 20.323 51.321 20.323 1.446 16.26 40.388 11.396 40.388 11.396 25.427 11.682 36.11-2.468 36.11-2.468.693 1.093 1.653 2.288 2.935 3.603 0 0-9.515 3.77-5.809 9.208-9.827 1.673-22.042 6.155-.589 17.759 0 0-24.31.484-10.285 14.843 0 0-15.895 6.286 1.402 14.353 17.298 8.067 38.673-1.607 43.651 8.228 4.961 9.842 34.881 11.778 46.102 2.098 2.926-2.534 2.761-4.703 1.082-6.579 5.186.609 10.354 1.009 14.943 1.183 17.15.645 16.449-6.298 20.232-10.732 3.117-.592 5.307-1.596 6.034-3.203 1.489-.269 3.29-.382 5.498-.305 20.336.765-17.177 19.074 18.934 22.139 36.11 3.06 14.726-7.421 36.578-11.532.485-.096.987-.18 1.471-.263V1.229L3.035 0S-3.912 16.656 7.48 26.42c5.652 4.843 1.75 10.588 8.448 14.747 3.674 2.28 19.521 4.112 23.118 6.451 3.597 2.34 12.195 5.53 12.195 5.53Zm315.445 91.167c-2.364-.149-4.736-.311-7.099-.46-1.264-1.536-3.94-2.778-9.515-3.681.251-.382.519-.747.814-1.099 3.116-.592 5.315-1.596 6.043-3.203 1.489-.269 3.29-.383 5.497-.305 9.177.347 6.571 4.267 4.268 8.748h-.008Z" fill="url(#a)"/><defs><linearGradient id="a" x1="121.438" y1="242.348" x2="259.101" y2="-91.433" gradientUnits="userSpaceOnUse"><stop stop-color="#6B9E34"/><stop offset=".14" stop-color="#61933C"/><stop offset="1" stop-color="#1F4A6E"/></linearGradient></defs></svg>