<svg width="100" height="100" fill="none" xmlns="http://www.w3.org/2000/svg"><path fill="#fff" d="M0 0h100v100H0z"/><path d="M30.384 43.687c-.033-.035-.069-.07-.104-.108h-.004c2.82 3.2 2.93 7.631.583 11.035l1.208-.19c1.634-3.547 1.142-7.696-1.683-10.737Z" fill="url(#a)"/><path d="M30.784 55.186c-1.712.11-3.727-.685-9.14-3.064-5.762-2.531-8.207.821-8.467 1.212l-.01.009-.013.025c0 .004 2.8 5.028 8.72 5.567 0 0-5.813.27-9.084-4.967a9.266 9.266 0 0 1-1.351-4.815c0-5.32 4.528-9.642 10.169-9.776v-.003c-.052-.003-.105-.003-.157-.003C15.127 39.374 10 44.24 10 50.244s5.127 10.87 11.451 10.87c4.046 0 7.604-1.992 9.639-5.002.228-.324.436-.657.625-.996-.007 0-.017.003-.026.003l.049-.092-.954.159Z" fill="url(#b)"/><path d="M21.702 51.553c5.413 2.38 7.428 3.175 9.14 3.064l.417-.076c-.01-.146-.075-.349-.153-.542.049.105.104.225.173.368l.01.019-.18-.387c-.127-.314-.283-.61-.293-.631-1.442-3.093-5.56-11.952-5.56-11.952l-3.616 6.67-3.014-4.605-4.72 8.532c1.09-.986 3.535-2.33 7.796-.46Z" fill="#153537"/><path d="m21.643 48.06-1.364 2.557-1.677-7.162 3.04 4.605ZM30.84 54.62l.507-.091-6.09-13.113 1.855 12.409c1.706.63 2.764.856 3.727.796Z" fill="#2A6B71"/><path d="M31.291 54.409c0 .003.003.006.003.006s0-.003-.003-.006ZM31.295 54.415c.003.006.003.006 0 0Z" fill="#153537"/><path d="M22.392 39.373 19.95 38l.967 1.373-.967 1.374 2.442-1.374Z" fill="#AEC90B"/><path d="M46.991 52.05v3.974c0 2.385-1.585 3.267-3.987 3.267h-.182c-2.403 0-3.988-.86-3.988-3.267v-9.275c0-2.296 1.585-3.267 3.987-3.267h.183c2.402 0 3.987.971 3.987 3.267v1.326c0 .574-.316.882-.905.882h-.817c-.589 0-.905-.308-.905-.882v-.926c0-1.104-.589-1.415-1.451-1.415-.863 0-1.452.308-1.452 1.415v8.478c0 1.104.589 1.415 1.452 1.415.862 0 1.451-.308 1.451-1.415v-2.296h-.634c-.59 0-.905-.31-.905-.882v-.396c0-.574.316-.882.905-.882h2.356c.59-.006.905.304.905.879Z" fill="url(#c)"/><path d="M56.281 59.117h-.84c-.543 0-.882-.266-.973-.818l-.43-2.626h-2.9l-.43 2.626c-.09.552-.43.818-.973.818h-.703c-.612 0-.927-.33-.817-.948l2.607-13.712c.092-.53.453-.796.997-.796h1.63c.544 0 .905.266.996.796l2.653 13.712c.114.615-.205.948-.817.948ZM53.7 53.551l-1.11-6.867-1.11 6.867h2.22Z" fill="url(#d)"/><path d="M60.406 59.117h-.817c-.59 0-.905-.307-.905-.881V44.543c0-.574.315-.882.905-.882h.817c.589 0 .904.308.904.882v13.69c.004.573-.315.884-.904.884Z" fill="url(#e)"/><path d="M70.969 59.117h-.84c-.544 0-.882-.266-.973-.818l-.43-2.626h-2.9l-.43 2.626c-.091.552-.43.818-.973.818h-.703c-.612 0-.928-.33-.817-.948l2.607-13.712c.091-.53.453-.796.996-.796h1.63c.544 0 .906.266.997.796l2.653 13.712c.11.615-.205.948-.817.948Zm-2.585-5.566-1.11-6.867-1.11 6.867h2.22Z" fill="url(#f)"/><path d="M81.075 53.705v2.319c0 2.385-1.585 3.267-3.987 3.267h-.046c-2.402 0-3.987-.86-3.987-3.267v-9.275c0-2.296 1.585-3.267 3.987-3.267h.046c2.402 0 3.987.971 3.987 3.267v1.945c0 .574-.316.881-.905.881h-.817c-.589 0-.905-.307-.905-.881v-1.545c0-1.081-.543-1.415-1.383-1.415s-1.383.33-1.383 1.415v8.478c0 1.082.543 1.415 1.383 1.415s1.383-.33 1.383-1.415v-1.922c0-.574.316-.881.905-.881h.817c.586 0 .905.307.905.881Z" fill="url(#g)"/><path d="M90 44.543v.485c0 .574-.315.882-.905.882h-1.744v12.322c0 .574-.316.882-.905.882h-.817c-.59 0-.905-.308-.905-.882V45.91h-1.745c-.589 0-.905-.308-.905-.882v-.485c0-.574.316-.882.905-.882h6.12c.586-.003.901.308.901.882Z" fill="url(#h)"/><path d="M57.254 40.509c0-.885.736-1.602 1.644-1.602.908 0 1.643.717 1.643 1.602 0 .885-.735 1.602-1.643 1.602s-1.644-.717-1.644-1.602Z" fill="url(#i)"/><path d="M59.458 40.509c0-.885.736-1.602 1.644-1.602.908 0 1.644.717 1.644 1.602 0 .885-.736 1.602-1.644 1.602-.908 0-1.644-.717-1.644-1.602Z" fill="url(#j)"/><defs><linearGradient id="a" x1="27.042" y1="58.669" x2="30.025" y2="51.319" gradientUnits="userSpaceOnUse"><stop stop-color="#2A6B71"/><stop offset="1" stop-color="#AEC90B"/></linearGradient><linearGradient id="b" x1="23.001" y1="60.618" x2="17.273" y2="40.186" gradientUnits="userSpaceOnUse"><stop stop-color="#2A6B71"/><stop offset=".076" stop-color="#387566"/><stop offset=".381" stop-color="#6A993F"/><stop offset=".648" stop-color="#8FB323"/><stop offset=".863" stop-color="#A6C311"/><stop offset="1" stop-color="#AEC90B"/></linearGradient><linearGradient id="c" x1="39.658" y1="51.214" x2="65.958" y2="52.688" gradientUnits="userSpaceOnUse"><stop stop-color="#2A6B71"/><stop offset=".215" stop-color="#2D6D6F"/><stop offset=".386" stop-color="#377467"/><stop offset=".542" stop-color="#48805A"/><stop offset=".69" stop-color="#609148"/><stop offset=".831" stop-color="#7EA730"/><stop offset=".966" stop-color="#A3C113"/><stop offset="1" stop-color="#AEC90B"/></linearGradient><linearGradient id="d" x1="39.686" y1="50.773" x2="65.986" y2="52.247" gradientUnits="userSpaceOnUse"><stop stop-color="#2A6B71"/><stop offset=".215" stop-color="#2D6D6F"/><stop offset=".386" stop-color="#377467"/><stop offset=".542" stop-color="#48805A"/><stop offset=".69" stop-color="#609148"/><stop offset=".831" stop-color="#7EA730"/><stop offset=".966" stop-color="#A3C113"/><stop offset="1" stop-color="#AEC90B"/></linearGradient><linearGradient id="e" x1="39.709" y1="50.307" x2="66.009" y2="51.782" gradientUnits="userSpaceOnUse"><stop stop-color="#2A6B71"/><stop offset=".215" stop-color="#2D6D6F"/><stop offset=".386" stop-color="#377467"/><stop offset=".542" stop-color="#48805A"/><stop offset=".69" stop-color="#609148"/><stop offset=".831" stop-color="#7EA730"/><stop offset=".966" stop-color="#A3C113"/><stop offset="1" stop-color="#AEC90B"/></linearGradient><linearGradient id="f" x1="39.727" y1="49.993" x2="66.027" y2="51.467" gradientUnits="userSpaceOnUse"><stop stop-color="#2A6B71"/><stop offset=".215" stop-color="#2D6D6F"/><stop offset=".386" stop-color="#377467"/><stop offset=".542" stop-color="#48805A"/><stop offset=".69" stop-color="#609148"/><stop offset=".831" stop-color="#7EA730"/><stop offset=".966" stop-color="#A3C113"/><stop offset="1" stop-color="#AEC90B"/></linearGradient><linearGradient id="g" x1="39.76" y1="49.402" x2="66.059" y2="50.876" gradientUnits="userSpaceOnUse"><stop stop-color="#2A6B71"/><stop offset=".215" stop-color="#2D6D6F"/><stop offset=".386" stop-color="#377467"/><stop offset=".542" stop-color="#48805A"/><stop offset=".69" stop-color="#609148"/><stop offset=".831" stop-color="#7EA730"/><stop offset=".966" stop-color="#A3C113"/><stop offset="1" stop-color="#AEC90B"/></linearGradient><linearGradient id="h" x1="39.79" y1="48.855" x2="66.09" y2="50.33" gradientUnits="userSpaceOnUse"><stop stop-color="#2A6B71"/><stop offset=".215" stop-color="#2D6D6F"/><stop offset=".386" stop-color="#377467"/><stop offset=".542" stop-color="#48805A"/><stop offset=".69" stop-color="#609148"/><stop offset=".831" stop-color="#7EA730"/><stop offset=".966" stop-color="#A3C113"/><stop offset="1" stop-color="#AEC90B"/></linearGradient><linearGradient id="i" x1="57.254" y1="40.508" x2="60.543" y2="40.508" gradientUnits="userSpaceOnUse"><stop stop-color="#2A6B71"/><stop offset="1" stop-color="#437B60"/></linearGradient><linearGradient id="j" x1="59.459" y1="40.508" x2="62.747" y2="40.508" gradientUnits="userSpaceOnUse"><stop stop-color="#749F3D"/><stop offset="1" stop-color="#ADC826"/></linearGradient></defs></svg>