<svg width="510" height="518" fill="none" xmlns="http://www.w3.org/2000/svg"><g clip-path="url(#a)"><path d="m36.026 317.857-1.198 4.041 12.903 3.853 1.198-4.041-12.903-3.853Z" fill="#926041"/><path d="M14.84 313.693s21.72 22.79 26.156 7.818c4.37-14.737-26.156-7.818-26.156-7.818Z" fill="#1A854D"/><path d="m14.84 313.693 26.156 7.818c4.37-14.737-26.156-7.818-26.156-7.818Z" fill="#115936"/><path d="m52.508 357.422.89 4.121 13.156-2.86-.889-4.12-13.157 2.859Z" fill="#926041"/><path d="M31.944 364.024s29.967 9.477 26.677-5.795c-3.239-15.025-26.677 5.795-26.677 5.795Z" fill="#1A854D"/><path d="m31.944 364.024 26.677-5.795c-3.239-15.025-26.677 5.795-26.677 5.795Z" fill="#115936"/><path d="m64.234 374.811.738 3.419 10.92-2.373-.739-3.419-10.92 2.373Z" fill="#926041"/><path d="M47.175 380.288s24.868 7.858 22.137-4.817c-2.692-12.465-22.137 4.817-22.137 4.817Z" fill="#1A854D"/><path d="m47.175 380.288 22.137-4.817c-2.692-12.465-22.137 4.817-22.137 4.817Z" fill="#115936"/><path d="M108.215 437.046s-5.632-45.477 12.733-76.1c18.365-30.622 33.167-52.617 33.167-52.617s4.448-8.328 19.249 0c14.815 8.328 17.481 7.14 20.148 3.564 2.666-3.564.598-7.427-5.034-19.019-5.632-11.591-35.833-70.147-35.833-70.147l-98.33-8.028s-6.815.888-7.4 6.24c-.586 5.351 12.434 13.379 12.434 13.379s9.183 6.239.598 19.319c-8.584 13.079-18.066 36.561-18.365 58.556l66.646 124.84-.013.013Z" fill="#7FC23B"/><path d="M124.213 367.486s-39.982 86.803 42.349 118.901h69.611s18.366 3.276 18.366-13.08v-87.991s3.251-15.455-18.066-14.867l-112.26-2.976v.013Z" fill="#39B0BD"/><path d="M166.562 486.385h69.611s18.366 3.277 18.366-13.079V447.5c-128.232-6.644-130.326-80.016-130.326-80.016s-39.982 86.804 42.349 118.901Z" fill="#39B0BD" style="mix-blend-mode:multiply" opacity=".2"/><path d="M222.243 429.367h-70.378a2.437 2.437 0 0 0-2.432 2.441v.261a2.437 2.437 0 0 0 2.432 2.441h70.378a2.437 2.437 0 0 0 2.433-2.441v-.261a2.437 2.437 0 0 0-2.433-2.441ZM232.154 431.939a2.564 2.564 0 0 1-2.562 2.571 2.564 2.564 0 0 1-2.563-2.571 2.564 2.564 0 0 1 2.563-2.572 2.564 2.564 0 0 1 2.562 2.572ZM239.906 431.939a2.564 2.564 0 0 1-2.562 2.571 2.564 2.564 0 0 1-2.563-2.571 2.564 2.564 0 0 1 2.563-2.572 2.564 2.564 0 0 1 2.562 2.572Z" fill="#A7DBE1"/><path d="m165.716 399.516-1.079 6.174h2.51l-1.431-6.174Z" fill="#8E2514"/><path d="M190.651 401.645h-24.414v8.602h24.414v-8.602Z" fill="#D99352"/><path d="m165.717 399.516 1.131 6.174h25.714l-1.612-6.174h-25.233Z" fill="#DE4B2B"/><path d="M141.446 408.262c-.897 0-1.573.809-1.404 1.697 1.027 5.573 5.527 23.038 21.643 23.038h30.513a1.43 1.43 0 0 0 1.431-1.435v-21.864a1.43 1.43 0 0 0-1.431-1.436h-50.752Z" fill="#F7F0F6"/><path d="M146.142 424.906a23.354 23.354 0 0 0 2.484 2.859h45.003v-2.859h-47.487Z" fill="#09413B"/><path d="M156.859 419.603a2.906 2.906 0 0 0 2.901-2.911 2.906 2.906 0 0 0-2.901-2.911 2.906 2.906 0 0 0-2.9 2.911 2.906 2.906 0 0 0 2.9 2.911Z" fill="#D99352"/><path d="M158.629 416.693c0 .979-.794 1.775-1.769 1.775a1.773 1.773 0 0 1-1.769-1.775c0-.979.793-1.775 1.769-1.775.975 0 1.769.796 1.769 1.775Z" fill="#09413B"/><path d="M168.006 419.603c1.602 0 2.9-1.303 2.9-2.911a2.905 2.905 0 0 0-2.9-2.911 2.906 2.906 0 0 0-2.901 2.911 2.906 2.906 0 0 0 2.901 2.911Z" fill="#D99352"/><path d="M169.761 416.693c0 .979-.793 1.775-1.768 1.775a1.773 1.773 0 0 1-1.769-1.775c0-.979.793-1.775 1.769-1.775.975 0 1.768.796 1.768 1.775Z" fill="#09413B"/><path d="M179.14 419.603c1.602 0 2.9-1.303 2.9-2.911a2.905 2.905 0 0 0-2.9-2.911 2.906 2.906 0 0 0-2.901 2.911 2.906 2.906 0 0 0 2.901 2.911Z" fill="#D99352"/><path d="M180.909 416.693c0 .979-.794 1.775-1.769 1.775a1.773 1.773 0 0 1-1.769-1.775c0-.979.793-1.775 1.769-1.775.975 0 1.769.796 1.769 1.775Z" fill="#09413B"/><path d="M140.041 409.96c1.028 5.574 5.528 23.039 21.643 23.039h30.514c.533 0 .988-.301 1.235-.731-3.499-.47-7.622-.744-12.525-.731-25.064.104-26.95-18.157-26.976-23.287h-12.473c-.897 0-1.574.809-1.405 1.697l-.013.013Z" fill="#F7F0F6" style="mix-blend-mode:multiply"/><path d="M159.005 444.901a.241.241 0 0 1-.221-.13c-5.554-9.477-4.045-29.931-3.538-35.257-2.159 4.164-9.091 19.175-5.059 33.978.039.143-.039.287-.182.313-.143.039-.286-.039-.312-.183-4.761-17.53 5.632-35.322 5.736-35.504a.278.278 0 0 1 .299-.118.256.256 0 0 1 .169.274c-.026.248-2.953 25.48 3.329 36.223.079.117.026.287-.091.352a.25.25 0 0 1-.13.039v.013Z" fill="#21797F"/><path d="M170.893 444.405a.234.234 0 0 1-.195-.091c-14.983-17.961-13.618-35.883-13.605-36.066 0-.13.104-.222.234-.235a.258.258 0 0 1 .274.183c.065.248 7.348 25.467 23.437 35.152a.273.273 0 0 1 .091.353.27.27 0 0 1-.351.091c-13.969-8.406-21.357-28.325-23.203-33.951.039 4.699 1.235 19.397 13.526 34.134a.265.265 0 0 1-.026.365.274.274 0 0 1-.169.065h-.013Z" fill="#21797F"/><path d="M157.704 442.162h-.039c-.078 0-.143-.052-.182-.118-2.471-4.072-8.181-1.945-8.246-1.918a.263.263 0 0 1-.338-.144.265.265 0 0 1 .143-.339c.065-.026 5.931-2.232 8.714 1.879 1.067-.848 5.632-4.007 10.692-.783.481-.548 2.003-2.141 3.993-2.376 1.157-.143 2.276.209 3.316 1.032.117.091.13.248.039.365-.091.118-.247.131-.364.039-.923-.731-1.912-1.044-2.926-.913-2.146.261-3.785 2.336-3.798 2.362a.259.259 0 0 1-.351.052c-5.489-3.668-10.432.757-10.484.797a.274.274 0 0 1-.169.065ZM155.61 433.494a.25.25 0 0 1-.195-.092c-2.315-2.61-6.568-.496-6.607-.469a.26.26 0 0 1-.351-.118.262.262 0 0 1 .117-.352c.182-.092 4.474-2.232 7.075.417.898-.6 4.722-2.937 7.544-.705.65-.652 2.992-2.715 5.203-1.279a.27.27 0 0 1 .078.366.254.254 0 0 1-.351.078c-2.225-1.436-4.683 1.331-4.709 1.371a.264.264 0 0 1-.364.026c-2.887-2.533-7.232.678-7.271.705a.25.25 0 0 1-.156.052h-.013ZM155.09 426.718c-.065 0-.143-.026-.182-.078-1.977-2.102-5.319-.835-5.359-.822a.259.259 0 0 1-.338-.144.265.265 0 0 1 .143-.339c.143-.066 3.538-1.358 5.762.796.703-.444 3.291-1.814 5.359-.144.416-.43 1.509-1.449 2.692-1.54a2.077 2.077 0 0 1 1.535.509.266.266 0 0 1 .026.366.264.264 0 0 1-.364.026 1.519 1.519 0 0 0-1.158-.392c-1.261.092-2.497 1.527-2.51 1.54-.052.053-.117.092-.182.092a.35.35 0 0 1-.195-.065c-2.12-1.958-5.06.117-5.086.143a.319.319 0 0 1-.156.052h.013ZM154.934 419.851a.251.251 0 0 1-.195-.091c-1.47-1.645-3.512-.574-3.538-.561-.13.065-.286.026-.351-.105-.065-.13-.026-.287.104-.352.026 0 2.289-1.201 4.019.509.534-.3 2.081-1.031 3.512-.104.468-.262 1.912-.966 3.005-.51.13.053.195.209.143.34a.264.264 0 0 1-.339.143c-1.053-.443-2.666.549-2.679.549a.281.281 0 0 1-.286 0c-1.457-1.071-3.226.117-3.239.13a.262.262 0 0 1-.143.039l-.013.013ZM157.458 413.313s-.078 0-.117-.026c-1.158-.574-1.951-.039-1.977-.026a.264.264 0 0 1-.352-.052c-.572-.731-1.417-.431-1.417-.431a.26.26 0 0 1-.338-.157.252.252 0 0 1 .156-.326c.377-.144 1.222-.209 1.86.431.351-.17 1.144-.418 2.159.026.26-.183.884-.509 1.521-.235.13.052.195.209.143.339a.263.263 0 0 1-.338.144c-.559-.235-1.131.248-1.131.248a.274.274 0 0 1-.169.065Z" fill="#21797F"/><path d="M208.443 457.824c.26-.209.52-.43.78-.639.235-.183.469-.405.521-.692.065-.339-.182-.692-.495-.849-.312-.156-.663-.182-1.014-.195a24.556 24.556 0 0 0-5.177.391c-1.105.196-3.199.431-4.344 1.123-10.535 1.175-17.559 8.758-17.559 8.758 20.082 5.47 40.581 0 40.581 0-4.631-4.216-9.118-6.644-13.306-7.884l.013-.013Z" fill="#383838"/><path d="M181.168 465.708c20.082 5.469 40.58 0 40.58 0a40.55 40.55 0 0 0-5.879-4.478c-3.342.588-6.62 1.489-9.95 2.141-5.97 1.175-12.2 1.475-18.131.092a28.542 28.542 0 0 1-2.952-.875c-2.341 1.71-3.668 3.133-3.668 3.133v-.013Z" fill="#2D2D2D"/><path d="M186.462 461.807c-.429-.287-1.106-.144-1.418.261-.169.235-.221.561-.104.822.195.47 1.054.261 1.379.092.156-.079.312-.196.39-.366.13-.274 0-.639-.26-.809h.013ZM187.034 461.727s-.013.092 0 .131c.026.104.143.156.247.182.208.053.442.04.638-.052a.624.624 0 0 0 .364-.509c0-.065 0-.143-.039-.196-.065-.091-.195-.117-.299-.13-.378-.039-.82.183-.911.574ZM186.54 461.389s-.013.117.026.157c.026.026.078.039.117.026.13 0 .247-.066.351-.131a.413.413 0 0 0 .156-.143c.04-.066.04-.144 0-.196a.261.261 0 0 0-.104-.052.944.944 0 0 0-.182-.027c-.169.027-.312.209-.351.353l-.013.013ZM185.448 464.052c0 .079.026.17.078.235.065.066.156.079.247.092.312.026.637-.013.858-.235a.615.615 0 0 0 .117-.157.43.43 0 0 0-.143-.483c-.416-.339-1.17.039-1.17.562l.013-.014Z" fill="#5F6060"/><path d="M179.725 465.5s-.469 3.877 20.108 3.524M179.725 468.137s3.433 2.571 14.762 2.467M222.685 465.199s2.393 2.271-11.069 3.459M223.791 466.934s-1.561 2.427-9.248 2.95" stroke="#A7DBE1" stroke-width=".33" stroke-linecap="round" stroke-linejoin="round"/><path d="M40.307 311.043c-3.993-12.61 3.577-26.694 12.279-36.64 3.33-3.812 8.011-7.349 12.98-6.449 4.721.849 7.882 5.352 12.24 7.375 8.063 3.733 17.662-1.814 26.311.222 5.866 1.384 10.679 6.527 11.667 12.505 1.041 6.266-1.808 12.44-4.565 18.157-2.562 5.286-5.125 10.573-7.674 15.846-2.874 5.927-5.749 11.866-7.973 18.053-6.646 18.496-7.258 39.133-1.704 57.995.469 1.579.976 3.276.495 4.856-.482 1.579-2.472 2.78-3.824 1.84 0 0-43.976-74.037-50.219-93.747l-.013-.013Z" fill="#A5DB75"/><path d="M81.486 362.291c.832-18.653 8.181-36.47 17.52-52.617 2.042-3.537 4.266-7.532 3.212-11.474-.663-2.454-2.536-4.425-4.72-5.717a14.29 14.29 0 0 0-8.416-1.919c-2.914.248-5.671 1.397-8.532 2.01-2.862.614-6.1.627-8.429-1.135-3.94-2.976-3.472-9.268-6.724-12.988-2.16-2.467-5.723-3.368-8.975-2.976-2.289.274-4.448 1.109-6.503 2.18-7.466 9.62-13.162 22.086-9.586 33.376 4.852 15.364 32.62 63.687 44.652 84.298-2.146-10.952-3.967-21.93-3.486-33.038h-.013Z" fill="#92C462"/><path d="m39.13 283.332-3.171 5.352 17.07 10.188 3.172-5.352-17.07-10.188Z" fill="#926041"/><path d="M10.315 269.664s22.878 40.478 34.623 20.663c11.563-19.501-34.623-20.663-34.623-20.663Z" fill="#1A854D"/><path d="m10.315 269.664 34.623 20.663c11.563-19.501-34.623-20.663-34.623-20.663Z" fill="#115936"/><path d="m64.457 280.879-3.17 5.351 17.07 10.189 3.17-5.352-17.07-10.188Z" fill="#926041"/><path d="M35.651 267.195s22.879 40.478 34.624 20.663c11.563-19.501-34.624-20.663-34.624-20.663Z" fill="#1A854D"/><path d="m35.651 267.195 34.624 20.663c11.563-19.501-34.624-20.663-34.624-20.663Z" fill="#115936"/><path d="m52.337 309.547-2.859 4.824 15.383 9.181 2.859-4.824-15.383-9.181Z" fill="#926041"/><path d="M26.364 297.234s20.616 36.471 31.203 18.614c10.418-17.582-31.203-18.614-31.203-18.614Z" fill="#1A854D"/><path d="m26.364 297.234 31.203 18.614c10.418-17.582-31.203-18.614-31.203-18.614Z" fill="#115936"/><path d="m62.187 338.235-3.704 6.249 19.933 11.897 3.703-6.249-19.932-11.897Z" fill="#926041"/><path d="M28.55 322.281s26.715 47.253 40.424 24.122c13.488-22.777-40.424-24.122-40.424-24.122Z" fill="#1A854D"/><path d="m28.55 322.281 40.424 24.122c13.488-22.764-40.424-24.122-40.424-24.122ZM116.084 302.336c-3.265-.3-5.333-3.824-5.762-7.088-.534-4.033.702-8.393 3.707-11.134 3.004-2.741 7.817-3.485 11.237-1.292.234-2.545.664-5.169 2.081-7.297 1.405-2.127 4.006-3.655 6.491-3.08-.352-4.934 4.188-9.647 9.117-9.451l-26.195 39.473-.676-.131ZM108.24 345.398a3.236 3.236 0 0 1 .143-3.185 3.2 3.2 0 0 1 2.849-1.423c-1.067-1.462-.026-3.472 1.014-4.947-1.717-.875-3.356-2.102-4.162-3.851-1.223-2.676-.234-5.861 1.249-8.393.936-1.592 2.107-3.106 3.681-4.085 1.573-.979 3.589-1.358 5.293-.627-.624-1.253-.442-2.872.442-3.955.885-1.084 2.42-1.593 3.772-1.24-.078-1.501.664-3.028 1.899-3.89 1.236-.861 2.914-1.044 4.292-.457l-19.678 37.358-.807-1.292.013-.013Z" fill="#115936"/><path d="M62.249 326.55a3.234 3.234 0 0 1 .143-3.185c.598-.927 1.743-1.501 2.848-1.423-1.066-1.461-.026-3.472 1.015-4.947-1.717-.874-3.356-2.101-4.162-3.85-1.223-2.676-.234-5.861 1.248-8.393.937-1.593 2.107-3.107 3.681-4.086 1.574-.979 3.59-1.358 5.294-.627-.624-1.253-.442-2.871.442-3.955.885-1.083 2.42-1.592 3.772-1.24-.078-1.501.663-3.028 1.9-3.89 1.235-.861 2.912-1.044 4.291-.456l-19.679 37.358-.806-1.293.013-.013Z" fill="#1A854D"/><path d="m62.495 363.563.89 4.121 13.157-2.86-.89-4.121-13.157 2.86Z" fill="#926041"/><path d="M41.934 370.149s29.967 9.477 26.676-5.795c-3.239-15.025-26.676 5.795-26.676 5.795Z" fill="#1A854D"/><path d="m41.934 370.149 26.676-5.795c-3.239-15.025-26.676 5.795-26.676 5.795Z" fill="#115936"/><path d="M236.875 349.785h-47.799a.768.768 0 0 0-.767.77v28.012c0 .426.343.77.767.77h47.799a.768.768 0 0 0 .767-.77v-28.012a.768.768 0 0 0-.767-.77Z" fill="#DDD"/><path d="M190.506 352.484h38.37c.286 0 .507.235.507.509v.536a.509.509 0 0 1-.507.509h-38.37a.509.509 0 0 1-.507-.509v-.536c0-.287.234-.509.507-.509ZM231.503 353.256a.784.784 0 0 1-.78.783.784.784 0 0 1-.781-.783c0-.431.352-.783.781-.783.429 0 .78.352.78.783ZM233.858 353.256a.784.784 0 0 1-.781.783.784.784 0 0 1 0-1.566c.429 0 .781.352.781.783Z" fill="#ACADAD"/><path d="M227.667 357.512h-29.382a.768.768 0 0 0-.767.77v7.949c0 .426.343.77.767.77h29.382a.768.768 0 0 0 .767-.77v-7.949a.768.768 0 0 0-.767-.77Z" fill="#474747"/><path d="M227.082 364.102h-28.211a3.166 3.166 0 0 0-3.161 3.171v11.239a3.166 3.166 0 0 0 3.161 3.172h28.211c1.745 0 3.16-1.42 3.16-3.172v-11.239a3.166 3.166 0 0 0-3.16-3.171Z" fill="#39B0BD"/><path d="M193.421 381.556c-.157-1.514.689-3.171 2.133-3.668 1.443-.496 3.277.483 3.446 1.998.794-.653 2.081-.627 2.836.078.468-.809 1.652-1.083 2.419-.561.273-1.71 1.886-3.107 3.616-3.133 1.73-.026 3.382 1.305 3.72 3.015.832-.861 2.523-.535 2.952.588.976-.549 2.328-.209 2.953.717.715-.9 2.237-.992 3.043-.182.494-.601 1.431-.783 2.12-.418.716-1.24 1.938-2.284 3.369-2.376 1.431-.091 2.926 1.058 2.887 2.494 1.132-1.332 3.746-.536 3.954 1.2 1.145-1.357 3.785-.626 4.084 1.136h-43.558v-.862l.026-.026Z" fill="#6EE0E5"/><path d="M197.154 366.989c-.065.431.156 1.045.585.953.221-.052.351-.274.468-.47.195-.326.417-.678.716-.926.104-.079.221-.157.351-.144.052 0 .091.026.13.065a.22.22 0 0 1 .013.157c-.039.196-.156.379-.143.587 0 .026 0 .053.065.105.156.052.325 0 .481-.065.143-.066.26-.17.39-.222.104-.053.247-.066.351-.105.339-.117.677-.222 1.028-.339.169-.052.39-.092.494.052.091.131.013.313.065.457.078.196.364.235.56.143.195-.091.338-.261.52-.365.351-.209.793-.157 1.196-.118 1.587.17 3.213.131 4.787-.117.494-.078 1.001-.17 1.496-.078.286.052.559.169.858.235.78.156 1.561-.144 2.341-.209.82-.079 1.652.091 2.445-.092.456-.104.885-.313 1.34-.443.689-.196 1.431-.17 2.146-.144 2.497.078 5.008.157 7.427.744.507.118 1.236.144 1.34-.365.065-.327-.221-.64-.534-.718-.312-.079-.65 0-.975.052a8.173 8.173 0 0 1-2.458.052c-.586-.078-1.171-.209-1.756-.313-1.574-.248-3.187-.17-4.774-.079-4.812.262-9.625.51-14.437.771-.169 0-.377-.013-.429-.17-.013-.065 0-.131 0-.196.013-.378-.429-.639-.807-.587a1.25 1.25 0 0 0-.377.104c-.429.17-.793.47-1.235.64-.143.052-.313.091-.443 0-.182-.118-.234-.353-.182-.562.039-.13.078-.287-.026-.391a.248.248 0 0 0-.13-.065.439.439 0 0 0-.325.117c-.091.078-.156.17-.221.274a2.77 2.77 0 0 1-.26.3.22.22 0 0 1-.169.092c-.078 0-.117-.092-.104-.17 0-.078.052-.143.104-.196.104-.13.195-.261.299-.391.026-.039.065-.079.078-.131.039-.13-.078-.274-.208-.3a.517.517 0 0 0-.39.065 1.867 1.867 0 0 0-.677.548c-.143.196-.312.392-.442.588-.273.405-.507.887-.572 1.383v-.013Z" fill="#51C8CE"/><path d="M229.175 330.531h-32.413a.77.77 0 0 0-.767.77v13.68c0 .425.344.77.767.77h32.413a.768.768 0 0 0 .767-.77v-13.68a.768.768 0 0 0-.767-.77Z" fill="#FBB040"/><path d="m213.671 331.406-5.294 7.062h4.63l-2.315 6.409 6.881-8.654-4.605-.078.703-4.739Z" fill="#fff"/><path d="M199.338 345.164v5.77M226.612 345.164v5.77" stroke="#231F20" stroke-width=".33" stroke-linecap="round" stroke-linejoin="round"/><path d="M146.051 480.066c-3.265-.666-6.816-.77-9.729.835-.989.549-1.938 1.371-2.172 2.481-.351 1.631 1.001 3.224 2.588 3.759 1.574.522 3.291.261 4.93 0 3.03-.483 6.1-.888 9.182-.888 1.509 0 3.031.092 4.526.327.703.117 3.59 1.253 4.072.966 1.716-1.032-4.111-4.034-4.956-4.478a31.87 31.87 0 0 0-8.428-2.989l-.013-.013ZM132.615 470.212c-.481-.549-.936-1.123-1.535-1.541-.598-.417-1.378-.639-2.055-.391-.65.235-1.092.874-1.313 1.54-.521 1.619.13 3.459 1.3 4.686 1.171 1.227 2.797 1.945 4.435 2.402 1.951.548 3.993.796 6.01.731 1.092-.039 4.344-.157 2.393-1.632-1.327-1.005-3.59-1.331-5.086-2.271a19.524 19.524 0 0 1-4.149-3.524Z" fill="#39B0BD"/><path d="M271.993 120.155s-56.942-76.674-124.329-19.358l-33.206 61.389s-11.628 14.633 2.692 22.438c14.32 7.793 77.051 41.966 77.051 41.966s11.979 10.247 21.63-8.85l56.149-97.598.013.013Z" fill="#256B3B"/><path d="M169.254 109.256c-12.707 0-21.461-7.414-21.604-7.531a.572.572 0 0 1-.052-.823.577.577 0 0 1 .819-.065c.248.209 24.414 20.624 50.739-8.106a.58.58 0 0 1 .507-.183.588.588 0 0 1 .443.314c.039.078 3.745 7.296 13.123 10.272 9.443 3.003 21.123.823 34.702-6.487a.573.573 0 0 1 .702.118c.741.77 18.209 18.744 36.015 3.093a.589.589 0 0 1 .82.052.594.594 0 0 1-.052.823c-17.325 15.233-34.754-.379-37.303-2.846-13.722 7.297-25.584 9.438-35.261 6.357-8.168-2.611-12.161-8.145-13.371-10.142-10.938 11.669-21.5 15.154-30.214 15.154h-.013Z" fill="#11351B"/><path d="M199.585 147.973a.584.584 0 0 1-.585-.587V93.111a.585.585 0 1 1 1.171 0v54.275a.584.584 0 0 1-.586.587ZM248.217 129.411a.584.584 0 0 1-.585-.588V97.169a.584.584 0 1 1 1.17 0v31.654c0 .327-.26.588-.585.588Z" fill="#11351B"/><path d="M169.163 109.28a.483.483 0 0 1-.26-.065.592.592 0 0 1-.273-.783c1.274-2.637 4.656-3.955 7.375-2.872.598.235 1.131.561 1.651.875.365.222.729.443 1.106.626.585.287 1.457.588 2.367.457.78-.117 1.47-.587 1.756-1.201.247-.522.234-1.175.234-1.853 0-.901 0-1.919.624-2.755.872-1.148 2.485-1.279 3.707-1.031.469.105.937.248 1.392.392.624.209 1.223.391 1.834.457.325.026.78.013 1.053-.209.404-.327.404-.979.365-1.932-.052-1.044-.104-2.22.858-2.924.767-.548 1.652-.392 2.419-.248.286.052.573.104.859.118.637.026 1.3-.288 1.769-.836.481-.548.689-1.253.585-1.88a.59.59 0 0 1 .468-.678.58.58 0 0 1 .676.47c.17.979-.143 2.023-.858 2.845-.715.823-1.704 1.292-2.692 1.24-.338 0-.677-.078-1.015-.13-.624-.118-1.17-.21-1.535.052-.416.3-.429.927-.377 1.919.052 1.018.104 2.18-.806 2.911-.468.378-1.093.535-1.886.456-.742-.065-1.418-.287-2.081-.509-.416-.13-.846-.274-1.275-.365-.871-.183-2.003-.131-2.536.587-.39.522-.39 1.266-.39 2.05 0 .783 0 1.592-.351 2.349-.456.979-1.47 1.697-2.641 1.867-.949.143-2.003-.052-3.043-.562-.417-.195-.807-.443-1.21-.678-.494-.301-.962-.588-1.47-.797-2.133-.848-4.89.222-5.892 2.298a.584.584 0 0 1-.52.326l.013.013ZM248.385 125.273a.6.6 0 0 1-.585-.522c-.052-.496-.221-.992-.403-1.527-.286-.862-.585-1.749-.429-2.715.065-.405.208-.757.338-1.11.065-.183.143-.352.195-.535a3.772 3.772 0 0 0-.26-2.859 8.656 8.656 0 0 0-.611-.966c-.573-.835-1.223-1.801-1.054-2.95.208-1.357 1.444-2.14 2.445-2.78 1.106-.705 1.639-1.384 1.587-2.023-.052-.679-.806-1.214-1.522-1.436-.403-.131-.806-.196-1.209-.274-.534-.091-1.093-.196-1.639-.405-.898-.339-1.392-1.018-1.288-1.723.078-.496.403-.822.729-1.07a9.856 9.856 0 0 1 3.251-1.762c.312-.092.638.065.729.378a.566.566 0 0 1-.378.731 8.952 8.952 0 0 0-2.874 1.567c-.195.156-.299.274-.299.339-.013.104.221.326.546.457.442.17.924.248 1.431.339.455.079.923.17 1.366.3 1.053.327 2.224 1.149 2.328 2.454.091 1.123-.599 2.141-2.12 3.107-.846.535-1.795 1.136-1.925 1.971-.104.692.364 1.384.858 2.115.247.352.481.718.676 1.083a5 5 0 0 1 .339 3.746 8.083 8.083 0 0 1-.222.614c-.117.3-.234.587-.273.874-.117.679.13 1.397.378 2.154.195.561.39 1.149.455 1.762a.587.587 0 0 1-.521.653h-.065l.026.013ZM222.633 107.232c-.729 0-1.418-.523-1.886-1.11a8.432 8.432 0 0 1-1.08-1.762c-.104-.248-.182-.405-.273-.483-.143-.144-.468-.144-.741 0-.351.183-.625.548-.898.888a.579.579 0 0 1-.819.104.584.584 0 0 1-.104-.822c.312-.405.702-.901 1.262-1.214.715-.379 1.586-.314 2.094.182.247.235.377.536.494.771.273.613.585 1.122.962 1.592.338.418.833.783 1.132.64.195-.092.338-.418.481-.744l.117-.261c.546-1.188 1.639-2.102 3.018-2.507 1.378-.391 2.796-.222 3.889.496.156.105.312.209.455.327.325.235.624.47.936.535.664.17 1.353-.34 1.795-.849.26-.313.482-.652.716-.992.273-.417.546-.835.897-1.227.65-.718 1.418-1.03 2.12-.874.377.091.663.3.924.483.078.052.156.117.234.169.442.288 1.04.353 1.626.183.585-.169 1.053-.535 1.274-1.018a.588.588 0 0 1 .781-.274.592.592 0 0 1 .273.783c-.377.783-1.106 1.371-2.003 1.632-.898.261-1.834.143-2.563-.327a4.145 4.145 0 0 1-.299-.208c-.182-.131-.351-.261-.507-.288-.312-.078-.715.222-.988.523a8.375 8.375 0 0 0-.781 1.083c-.247.379-.507.77-.806 1.123-.859 1.005-1.964 1.461-2.953 1.227-.546-.131-.975-.457-1.365-.744a4.678 4.678 0 0 0-.404-.288c-.806-.535-1.873-.652-2.926-.352-1.054.3-1.873.979-2.276 1.867l-.104.234c-.195.47-.456 1.058-1.041 1.345a1.536 1.536 0 0 1-.65.157h-.013ZM154.154 114.649s5.358-5.509 1.847-8.563c-4.462 1.318-1.847 8.563-1.847 8.563Z" fill="#11351B"/><path d="m154.154 114.649 1.847-8.563c-4.462 1.318-1.847 8.563-1.847 8.563Z" fill="#184222"/><path d="M212.93 113.028s5.359-5.509 1.847-8.563c-4.461 1.318-1.847 8.563-1.847 8.563Z" fill="#11351B"/><path d="m212.93 113.028 1.847-8.563c-4.461 1.318-1.847 8.563-1.847 8.563Z" fill="#184222"/><path d="M275.908 113.305s5.359-5.508 1.834-8.563c-4.461 1.319-1.834 8.563-1.834 8.563Z" fill="#11351B"/><path d="m275.908 113.305 1.834-8.563c-4.461 1.319-1.834 8.563-1.834 8.563Z" fill="#184222"/><path d="M169.605 117.27s5.359-5.509 1.834-8.563c-4.461 1.318-1.834 8.563-1.834 8.563Z" fill="#11351B"/><path d="m169.605 117.27 1.834-8.563c-4.461 1.318-1.834 8.563-1.834 8.563Z" fill="#184222"/><path d="M189.245 112.219s2.094-7.414-2.459-8.407c-3.29 3.303 2.459 8.407 2.459 8.407Z" fill="#11351B"/><path d="m189.245 112.219-2.459-8.407c-3.29 3.303 2.459 8.407 2.459 8.407Z" fill="#184222"/><path d="M283.633 111.734s2.094-7.414-2.458-8.406c-3.291 3.303 2.458 8.406 2.458 8.406Z" fill="#11351B"/><path d="m283.633 111.734-2.458-8.406c-3.291 3.303 2.458 8.406 2.458 8.406Z" fill="#184222"/><path d="M182.547 116.723s3.473-6.866-.793-8.719c-3.863 2.597.793 8.719.793 8.719Z" fill="#11351B"/><path d="m182.547 116.723-.793-8.719c-3.863 2.597.793 8.719.793 8.719Z" fill="#184222"/><path d="M258.18 112.376s3.472-6.866-.794-8.72c-3.863 2.598.794 8.72.794 8.72Z" fill="#11351B"/><path d="m258.18 112.376-.794-8.72c-3.863 2.598.794 8.72.794 8.72Z" fill="#184222"/><path d="M233.09 113.106s3.473-6.866-.793-8.719c-3.863 2.597.793 8.719.793 8.719Z" fill="#11351B"/><path d="m233.09 113.106-.793-8.719c-3.863 2.597.793 8.719.793 8.719Z" fill="#184222"/><path d="M207.493 125.339s-4.877-5.952-8.285-2.754c.832 4.594 8.285 2.754 8.285 2.754Z" fill="#11351B"/><path d="m207.493 125.34-8.285-2.754c.832 4.595 8.285 2.754 8.285 2.754Z" fill="#184222"/><path d="M208.131 107.507s-4.878-5.952-8.285-2.754c.832 4.594 8.285 2.754 8.285 2.754Z" fill="#11351B"/><path d="m208.131 107.508-8.285-2.754c.832 4.595 8.285 2.754 8.285 2.754Z" fill="#184222"/><path d="M191.3 110.69s4.877-5.952 8.285-2.754c-.832 4.595-8.285 2.754-8.285 2.754Z" fill="#11351B"/><path d="m191.3 110.692 8.285-2.754c-.832 4.594-8.285 2.754-8.285 2.754Z" fill="#184222"/><path d="M193.043 144.394s1.756-7.505 6.217-6.148c1.288 4.491-6.217 6.148-6.217 6.148Z" fill="#11351B"/><path d="m193.043 144.394 6.217-6.148c1.288 4.49-6.217 6.148-6.217 6.148Z" fill="#184222"/><path d="M242.233 130.453s1.756-7.506 6.218-6.148c1.287 4.49-6.218 6.148-6.218 6.148Z" fill="#11351B"/><path d="m242.233 130.453 6.218-6.148c1.287 4.49-6.218 6.148-6.218 6.148Z" fill="#184222"/><path d="M158.198 99.164s5.931 4.895 2.758 8.315c-4.579-.836-2.758-8.315-2.758-8.315Z" fill="#11351B"/><path d="m158.198 99.164 2.758 8.315c-4.579-.836-2.758-8.315-2.758-8.315Z" fill="#184222"/><path d="M223.843 94.43s5.931 4.895 2.757 8.315c-4.578-.836-2.757-8.315-2.757-8.315Z" fill="#11351B"/><path d="m223.843 94.43 2.757 8.315c-4.578-.836-2.757-8.315-2.757-8.315Z" fill="#184222"/><path d="M174.222 97.3s3.642 6.788-.585 8.746c-3.928-2.506.585-8.745.585-8.745Z" fill="#11351B"/><path d="m174.222 97.3-.585 8.746c-3.928-2.506.585-8.745.585-8.745Z" fill="#184222"/><path d="M237.538 91.7s3.642 6.787-.585 8.745c-3.928-2.506.585-8.746.585-8.746Z" fill="#11351B"/><path d="m237.538 91.7-.585 8.745c-3.928-2.506.585-8.746.585-8.746Z" fill="#184222"/><path d="M184.914 92.547s5.84 5 2.615 8.354c-4.566-.901-2.615-8.354-2.615-8.354Z" fill="#11351B"/><path d="m184.914 92.547 2.615 8.354c-4.566-.901-2.615-8.354-2.615-8.354Z" fill="#184222"/><path d="M266.088 98.293s5.84 4.999 2.614 8.354c-4.565-.901-2.614-8.354-2.614-8.354Z" fill="#11351B"/><path d="m266.088 98.293 2.614 8.354c-4.565-.901-2.614-8.354-2.614-8.354Z" fill="#184222"/><path d="M208.716 90.356s-.104 7.7-4.748 7.348c-2.224-4.098 4.748-7.348 4.748-7.348Z" fill="#11351B"/><path d="m208.716 90.356-4.748 7.348c-2.224-4.098 4.748-7.348 4.748-7.348Z" fill="#184222"/><path d="M253.77 90.356s-.104 7.7-4.747 7.348c-2.224-4.098 4.747-7.348 4.747-7.348Z" fill="#11351B"/><path d="m253.77 90.356-4.747 7.348c-2.224-4.098 4.747-7.348 4.747-7.348Z" fill="#184222"/><path d="M218.705 72.863s42.519 16.734 60.572 47.527c18.053 30.805 30.253 54.353 30.253 54.353s5.163 7.884-9.183 16.982c-14.359 9.098-14.58 12.009-12.733 16.068 1.847 4.047 6.23 4.073 19.067 4.634 12.838.562 78.534 1.854 78.534 1.854l53.938-82.914s2.471-6.435-1.938-9.502c-4.409-3.068-17.65 4.594-17.65 4.594s-9.846 5.117-17.207-8.693c-7.362-13.81-23.399-33.377-42.519-44.133l-141.121-.77h-.013Z" fill="#86C363"/><path d="M287.614 207.793c1.847 4.046 6.23 4.072 19.067 4.634 12.838.561 78.534 1.853 78.534 1.853l47.357-72.784c-6.451 2.846-12.382 6.566-17.338 11.643-4.955 5.078-8.649 11.226-12.941 16.891-7.687 10.142-17.481 18.797-28.94 24.292-11.459 5.495-24.608 7.714-37.069 5.3-6.906-1.332-13.487-4.034-20.381-5.47-5.892-1.227-11.888-1.475-17.845-.926-12.057 7.936-12.174 10.755-10.431 14.58l-.013-.013Z" fill="#CBB08F"/><path d="M287.614 207.796c1.847 4.046 6.23 4.072 19.068 4.634 12.837.561 78.533 1.853 78.533 1.853l44.3-68.111a55.088 55.088 0 0 0-5.8 4.856c-5.944 5.73-10.419 12.779-14.932 19.697-8.753 13.431-18.716 27.385-33.635 33.155-7.999 3.093-16.778 3.537-25.35 3.328a180.987 180.987 0 0 1-30.929-3.42c-8.363-1.657-16.753-3.929-25.259-3.38a36.676 36.676 0 0 0-5.333.744c-2.042 2.636-1.665 4.49-.663 6.657v-.013Z" fill="#F5E4BB"/><path d="M344.817 96.932c-4.266 3.107-7.479 8.028-7.44 13.314.052 7.936 7.024 14.032 13.995 17.778 6.972 3.747 14.867 6.553 19.809 12.753 3.512 4.412 5.086 10.038 7.791 14.985 2.719 4.947 7.414 9.594 13.033 9.32 5.97-.287 10.132-5.769 13.904-10.416a95.363 95.363 0 0 1 14.32-14.228c4.773-3.825 9.976-7.245 13.761-12.061a22.56 22.56 0 0 0 3.486-6.292c-.091-.065-.169-.143-.26-.209-4.41-3.08-17.65 4.595-17.65 4.595s-9.846 5.117-17.208-8.693c-4.513-8.485-12.33-19.136-22.098-28.587-7.011.105-14.021.849-20.798 2.141-5.176.992-10.366 2.506-14.632 5.613l-.013-.013Z" fill="#A5DB75"/><path d="M160.371 187.223h3.057v-22.791h-3.057v22.791Z" fill="#000"/><path d="M192.484 138.078v2.506l-11.16 33.521h-50.036v-1.762l61.196-34.265Z" fill="#DBDBD2"/><path d="M192.484 138.078h-47.578l-13.618 34.265h49.685l11.511-34.265Z" fill="#FFFDEF"/><path d="M188.088 141.328h-41.66l-10.743 27.777h42.869l9.534-27.777Z" fill="#4A90A0"/><path d="m135.685 169.105 10.743-27.777h.637c2.185 5.169 10.158 19.188 33.024 23.3l-1.535 4.477h-42.869Z" fill="#58A3AF"/><path d="m176.782 139.145-11.194 31.707 1.299.462 11.194-31.707-1.299-.462ZM166.826 139.161l-11.194 31.706 1.299.462 11.194-31.706-1.299-.462ZM156.886 139.149l-11.194 31.706 1.3.463 11.194-31.707-1.3-.462Z" fill="#FFFDEF"/><path d="M184.654 154.523h-44.313v1.384h44.313v-1.384Z" fill="#FFFDEF"/><path d="M187.724 209.855h3.056v-22.79h-3.056v22.79Z" fill="#000"/><path d="M219.85 160.711v2.506l-11.172 33.521h-50.024v-1.763l61.196-34.264Z" fill="#DBDBD2"/><path d="M219.85 160.711h-47.591l-13.605 34.264h49.672l11.524-34.264Z" fill="#FFFDEF"/><path d="M215.454 163.961h-41.66l-10.743 27.777h42.856l9.547-27.777Z" fill="#4A90A0"/><path d="m163.051 191.738 10.743-27.777h.638c2.185 5.169 10.158 19.188 33.023 23.3l-1.535 4.477h-42.869Z" fill="#58A3AF"/><path d="m204.132 161.79-11.194 31.706 1.3.462 11.194-31.706-1.3-.462ZM194.193 161.778l-11.194 31.706 1.3.462 11.194-31.706-1.3-.462ZM184.25 161.793 173.056 193.5l1.299.462 11.194-31.706-1.299-.463Z" fill="#FFFDEF"/><path d="M212.02 177.156h-44.313v1.384h44.313v-1.384Z" fill="#FFFDEF"/><path d="m313.51 72.181-47.396-53.74-47.396 54.471s47.617 7.558 94.792-.73Z" fill="#9BBEB0"/><path d="M266.101 41.977 264.553 31.6l-9.508 6.122 1.392-6.122-1.574-.248 11.238-12.922 14.281 16.186-9.677-3.016-4.604 10.377Z" fill="#F1F5F4"/><path d="m218.705 72.9 47.396-54.47v57.616c-27.158.065-47.396-3.146-47.396-3.146Z" fill="#9BBEB0" style="mix-blend-mode:multiply" opacity=".4"/><path d="M228.929 75.682 295.678 0l66.75 76.7s-67.062 10.638-133.499-1.018Z" fill="#9BBEB0"/><path d="m295.678 33.155 2.186-14.62 13.396 8.616-1.977-8.616 2.211-.352L295.678 0 275.57 22.79l13.631-4.255 6.477 14.62Z" fill="#F1F5F4"/><path d="M362.428 76.7 295.679 0v81.138c38.252.078 66.749-4.438 66.749-4.438Z" fill="#9BBEB0" style="mix-blend-mode:multiply" opacity=".4"/><path d="M351.034 70.723h-5.294V87.73h5.294V70.723Z" fill="#926041"/><path d="M348.485 43.547s-19.64 34.486-.026 34.5c19.301.012.026-34.5.026-34.5Z" fill="#1A854D"/><path d="m348.485 43.547-.026 34.5c19.302.012.026-34.5.026-34.5Z" fill="#115936"/><path d="M295.522 75.367h-3.98v12.78h3.98v-12.78Z" fill="#926041"/><path d="M293.597 54.953s-14.736 25.897-.026 25.91c14.49 0 .026-25.91.026-25.91Z" fill="#1A854D"/><path d="m293.597 54.953-.026 25.91c14.49 0 .026-25.91.026-25.91Z" fill="#115936"/><path d="M308.997 84.61h-5.294v17.008h5.294V84.61Z" fill="#926041"/><path d="M306.447 57.434s-19.639 34.486-.026 34.5c19.302.012.026-34.5.026-34.5Z" fill="#1A854D"/><path d="m306.448 57.434-.026 34.5c19.302.012.026-34.5.026-34.5ZM282.841 102.572c-1.496-2.767.208-6.279 2.562-8.354 2.914-2.558 7.024-3.89 10.783-2.937 3.759.94 6.906 4.399 6.984 8.289 2.146-1.162 4.448-2.206 6.881-2.206 2.432 0 5.02 1.266 5.879 3.55 3.719-2.898 9.859-1.762 12.317 2.272h-45.159l-.247-.614Z" fill="#115936"/><path d="m373.047 92.352-5.247-.704-2.245 16.859 5.248.703 2.244-16.858Z" fill="#926041"/><path d="M374.082 65.082s-23.984 31.589-4.553 34.2c19.133 2.571 4.553-34.2 4.553-34.2Z" fill="#1A854D"/><path d="m374.082 65.082-4.553 34.2c19.133 2.571 4.553-34.2 4.553-34.2ZM351.853 111.019c.742-.836 1.938-1.214 3.031-.979a3.207 3.207 0 0 1 2.315 2.18c.988-1.515 3.238-1.227 4.981-.784.221-1.918.794-3.889 2.146-5.26 2.068-2.088 5.385-2.271 8.273-1.749 1.821.326 3.641.901 5.098 2.023 1.457 1.136 2.523 2.911 2.432 4.751.963-1.018 2.524-1.422 3.85-.965 1.327.443 2.342 1.723 2.485 3.119 1.378-.6 3.056-.431 4.305.431 1.235.862 1.99 2.376 1.925 3.877l-41.764-5.456.923-1.201v.013Z" fill="#115936"/><path d="m351.466 170.22-6.47-.306-.975 20.758 6.47.306.975-20.758Z" fill="#926041"/><path d="M349.876 136.926s-25.909 40.974-1.977 42.109c23.555 1.11 1.977-42.109 1.977-42.109Z" fill="#1A854D"/><path d="m349.876 136.926-1.977 42.109c23.555 1.11 1.977-42.109 1.977-42.109Z" fill="#115936"/><path d="m375.516 154.032-6.45-.602-1.919 20.691 6.449.602 1.92-20.691Z" fill="#926041"/><path d="M375.448 120.688s-27.743 39.746-3.889 41.965c23.476 2.193 3.889-41.965 3.889-41.965Z" fill="#1A854D"/><path d="m375.448 120.688-3.889 41.965c23.476 2.193 3.889-41.965 3.889-41.965Z" fill="#115936"/><path d="M113.118 163.297c.416-2.037.936-4.073 1.69-6.018 2.107-5.404 6.127-10.051 11.173-12.896-.325 2.154-.637 4.307-.962 6.461-.235 1.566-.482 3.185-1.262 4.556-.78 1.383-2.237 2.493-3.811 2.401a5.432 5.432 0 0 0 3.798 2.376c-2.901 6.07-2.927 13.079-4.799 19.541-1.743 6.03-5.567-2.037-6.101-4.308-.936-3.942-.533-8.171.261-12.113h.013Z" fill="#1A854D"/><path d="M106.901 164.29c-1.573-1.358-3.225-2.637-5.007-3.707-4.969-2.976-10.978-4.177-16.7-3.329 1.56 1.501 3.134 3.002 4.695 4.517 1.144 1.096 2.315 2.219 3.785 2.819 1.456.614 3.29.601 4.474-.444a5.506 5.506 0 0 1-1.548 4.216c5.996 3.016 10.301 8.55 15.725 12.492 5.073 3.694 3.148-5.025 2.185-7.166-1.665-3.694-4.565-6.788-7.609-9.411v.013Z" fill="#6EA04D"/><path d="M96.639 177.786c-2.003.536-3.993 1.188-5.88 2.063-5.254 2.441-9.624 6.735-12.16 11.956 2.12-.443 4.24-.9 6.36-1.344 1.548-.326 3.134-.666 4.461-1.54 1.327-.862 2.341-2.389 2.16-3.969a5.384 5.384 0 0 1 2.588 3.668c5.852-3.263 12.837-3.707 19.145-5.978 5.892-2.115-2.367-5.443-4.656-5.848-3.98-.705-8.168-.052-12.031.992h.013Z" fill="#6EA04D"/><path d="M101.087 170.607c-2.042-.405-4.097-.705-6.178-.757-5.788-.131-11.602 1.788-16.167 5.365 2.107.535 4.201 1.07 6.308 1.605 1.535.392 3.109.784 4.683.588 1.573-.196 3.16-1.11 3.68-2.611a5.457 5.457 0 0 1 .716 4.438c6.698-.339 13.163 2.35 19.822 3.107 6.217.705.273-5.939-1.613-7.31-3.265-2.389-7.31-3.655-11.238-4.425h-.013Z" fill="#86C363"/><path d="M125.656 165.452c1.73-1.148 3.525-2.232 5.424-3.067 5.294-2.35 11.407-2.793 16.987-1.253-1.743 1.305-3.473 2.597-5.216 3.903-1.262.953-2.575 1.919-4.097 2.336-1.522.431-3.343.183-4.396-.992a5.432 5.432 0 0 0 1.027 4.373c-6.321 2.258-11.263 7.218-17.129 10.482-5.476 3.041-2.511-5.378-1.301-7.375 2.107-3.459 5.359-6.187 8.688-8.407h.013Z" fill="#6EA04D"/><path d="M134.188 180.098c1.925.783 3.824 1.658 5.58 2.767 4.917 3.068 8.741 7.871 10.614 13.367-2.055-.705-4.097-1.41-6.152-2.115-1.496-.509-3.031-1.044-4.241-2.075-1.209-1.018-2.042-2.663-1.664-4.203-1.418.6-2.55 1.853-3.018 3.328-5.424-3.955-12.291-5.26-18.287-8.276-5.593-2.819 3.004-5.116 5.333-5.234 4.045-.209 8.116.953 11.822 2.454l.013-.013Z" fill="#6EA04D"/><path d="M130.651 172.421c2.068-.144 4.162-.196 6.23 0 5.762.574 11.29 3.198 15.4 7.297l-6.451.822c-1.574.196-3.187.392-4.721.013-1.535-.378-2.992-1.488-3.33-3.028-1.015 1.161-1.483 2.793-1.249 4.32-6.607-1.161-13.345.718-20.043.653-6.256-.052.455-5.926 2.484-7.062 3.538-1.971 7.7-2.728 11.693-3.015h-.013Z" fill="#86C363"/><path d="M208.221 204.858c-.325-1.88-.572-3.785-.585-5.691-.026-5.326 1.834-10.639 5.177-14.776.455 1.945.91 3.889 1.352 5.821.325 1.41.664 2.872.456 4.308-.209 1.436-1.067 2.885-2.446 3.341 1.158.81 2.667 1.097 4.045.731-.429 6.148 1.912 12.14 2.498 18.275.533 5.73-5.424.143-6.647-1.606-2.12-3.041-3.212-6.787-3.85-10.403Z" fill="#1A854D"/><path d="M203.253 207.82c-1.795-.626-3.642-1.161-5.515-1.462-5.241-.848-10.756.17-15.347 2.833 1.847.744 3.68 1.501 5.527 2.245 1.34.548 2.719 1.096 4.176 1.123 1.443.026 3.004-.614 3.667-1.906a4.96 4.96 0 0 1 .091 4.125c6.127.535 11.654 3.785 17.598 5.312 5.554 1.423.989-5.352-.546-6.84-2.666-2.584-6.178-4.242-9.651-5.43Z" fill="#6EA04D"/><path d="M199.065 222.795c-1.521 1.135-3.004 2.362-4.318 3.746-3.655 3.864-5.931 9.007-6.334 14.319 1.652-1.096 3.317-2.206 4.969-3.302 1.209-.809 2.445-1.632 3.277-2.82.833-1.188 1.197-2.832.507-4.111a5 5 0 0 1 3.447 2.245c3.889-4.765 9.69-7.519 14.307-11.578 4.306-3.799-3.85-3.838-5.931-3.407-3.628.757-6.971 2.728-9.911 4.921l-.013-.013Z" fill="#6EA04D"/><path d="M200.431 215.169c-1.873.353-3.733.797-5.515 1.449-4.968 1.854-9.273 5.456-11.966 10.051 1.964-.261 3.941-.509 5.905-.77 1.431-.183 2.914-.392 4.188-1.083 1.275-.692 2.315-2.011 2.263-3.459 1.171.796 1.951 2.127 2.107 3.537 5.593-2.558 11.993-2.467 17.924-4.073 5.54-1.501-1.769-5.143-3.837-5.678-3.59-.926-7.453-.639-11.056.039l-.013-.013Z" fill="#86C363"/><path d="M219.616 202.442c1.079-1.566 2.25-3.094 3.59-4.451 3.719-3.799 8.766-6.253 14.047-6.827l-3.122 5.091c-.754 1.24-1.548 2.506-2.705 3.381-1.158.874-2.784 1.292-4.071.639a4.981 4.981 0 0 0 2.354 3.381c-4.617 4.059-7.167 9.972-11.056 14.737-3.642 4.451-3.954-3.733-3.59-5.848.625-3.668 2.485-7.088 4.579-10.103h-.026Z" fill="#6EA04D"/><path d="M231.829 212.023c1.898.013 3.81.118 5.683.457 5.216.94 10.093 3.747 13.54 7.78-1.99.091-3.967.183-5.957.287-1.444.065-2.939.131-4.305-.326-1.379-.457-2.627-1.58-2.822-3.015a5.046 5.046 0 0 0-1.457 3.85c-5.944-1.54-12.239-.313-18.365-.848-5.71-.509.832-5.378 2.783-6.266 3.369-1.54 7.232-1.945 10.9-1.905v-.014Z" fill="#6EA04D"/><path d="M226.236 206.685c1.716-.836 3.472-1.58 5.306-2.102 5.099-1.462 10.705-1.096 15.569.992-1.743.966-3.486 1.919-5.216 2.885-1.274.705-2.575 1.423-4.006 1.605-1.43.196-3.056-.247-3.863-1.448a4.976 4.976 0 0 0 .391 4.098c-6.009 1.253-11.121 5.13-16.857 7.349-5.346 2.076-1.613-5.195-.26-6.853 2.341-2.884 5.632-4.934 8.936-6.539v.013Z" fill="#86C363"/><path d="M202.811 214.801h-5.293v17.008h5.293v-17.008Z" fill="#926041"/><path d="M200.262 187.625s-19.64 34.486-.026 34.499c19.302.013.026-34.499.026-34.499Z" fill="#1A854D"/><path d="m200.262 187.625-.026 34.499c19.302.013.026-34.499.026-34.499Z" fill="#115936"/><mask id="b" style="mask-type:luminance" maskUnits="userSpaceOnUse" x="110" y="79" width="162" height="151"><path d="M271.993 120.155s-56.942-76.674-124.329-19.358l-33.206 61.389s-11.628 14.633 2.692 22.438c14.32 7.793 77.051 41.966 77.051 41.966s11.979 10.247 21.63-8.85l56.149-97.598.013.013Z" fill="#fff"/></mask><g mask="url(#b)"><path d="M137.87 182.484h-5.294v17.009h5.294v-17.009Z" fill="#926041"/><path d="M135.321 155.309s-19.64 34.486-.026 34.499c19.301.013.026-34.499.026-34.499Z" fill="#1A854D"/><path d="m135.321 155.309-.026 34.499c19.302.013.026-34.499.026-34.499Z" fill="#115936"/><path d="M148.691 192h-5.294v17.008h5.294V192Z" fill="#926041"/><path d="M146.142 164.824s-19.64 34.487-.026 34.5c19.302.013.026-34.5.026-34.5Z" fill="#1A854D"/><path d="m146.142 164.824-.026 34.5c19.302.013.026-34.5.026-34.5Z" fill="#115936"/><path d="M165.171 201.816h-3.499v11.226h3.499v-11.226Z" fill="#926041"/><path d="M163.48 183.883s-12.954 22.764-.013 22.778c12.734 0 .013-22.778.013-22.778Z" fill="#1A854D"/><path d="M163.48 183.883v22.778c12.721 0 0-22.778 0-22.778ZM225.209 166.639c-1.054-1.723-2.016-3.498-2.757-5.378-2.068-5.234-2.277-11.174-.599-16.538 1.197 1.736 2.38 3.472 3.577 5.208.872 1.266 1.756 2.571 2.107 4.059.351 1.501.065 3.251-1.118 4.23a5.239 5.239 0 0 0 4.253-.836c1.951 6.213 6.555 11.2 9.481 17.021 2.732 5.431-5.28 2.246-7.166.992-3.265-2.179-5.775-5.43-7.791-8.745l.013-.013Z" fill="#115936"/><path d="M221.463 171.47c-2.016.091-4.019.274-5.996.704-5.475 1.188-10.522 4.334-14.021 8.733l6.295.078c1.535.013 3.109.026 4.54-.509 1.43-.535 2.718-1.762 2.874-3.289 1.106 1.005 1.73 2.519 1.678 4.02 6.23-1.84 12.916-.783 19.367-1.592 6.022-.744-1.08-5.652-3.174-6.527-3.616-1.514-7.713-1.775-11.576-1.605l.013-.013Z" fill="#115936"/><path d="M223.102 187.822c-1.067 1.71-2.042 3.485-2.81 5.352-2.107 5.208-2.367 11.16-.728 16.538 1.21-1.723 2.406-3.446 3.616-5.182.884-1.253 1.782-2.558 2.146-4.047.364-1.488.091-3.25-1.08-4.242a5.255 5.255 0 0 1 4.253.875c1.99-6.2 6.647-11.148 9.625-16.943 2.784-5.404-5.254-2.284-7.153-1.058-3.278 2.141-5.814 5.378-7.856 8.681l-.013.026Z" fill="#115936"/><path d="M221.515 179.793c-1.704 1.071-3.369 2.219-4.865 3.564-4.188 3.746-7.036 8.967-7.921 14.528 1.834-1.018 3.681-2.036 5.515-3.041 1.34-.744 2.719-1.514 3.707-2.689.989-1.175 1.509-2.872.885-4.282a5.256 5.256 0 0 1 3.433 2.663c4.514-4.686 10.861-7.075 16.076-10.951 4.865-3.629-3.719-4.386-5.957-4.112-3.889.47-7.582 2.258-10.873 4.32Z" fill="#115936"/><path d="M235.511 159.837c.468-1.971 1.027-3.916 1.821-5.769 2.198-5.169 6.23-9.542 11.198-12.166-.377 2.076-.741 4.151-1.118 6.227-.273 1.514-.56 3.067-1.353 4.372-.793 1.306-2.237 2.35-3.759 2.206a5.24 5.24 0 0 0 3.616 2.415c-2.979 5.783-3.213 12.583-5.216 18.784-1.873 5.795-5.319-2.141-5.775-4.36-.793-3.851-.286-7.936.612-11.722l-.026.013Z" fill="#115936"/><path d="M251.209 164.547c1.873-.718 3.798-1.357 5.775-1.749 5.502-1.096 11.368-.222 16.324 2.415-1.912.861-3.837 1.723-5.749 2.584-1.392.627-2.836 1.266-4.371 1.345-1.534.078-3.199-.535-3.941-1.867a5.312 5.312 0 0 0 .052 4.36c-6.451.796-12.161 4.438-18.391 6.279-5.814 1.709-1.248-5.613.325-7.245 2.719-2.832 6.374-4.712 9.989-6.096l-.013-.026Z" fill="#115936"/><path d="M243.64 161.455c1.365-1.475 2.809-2.898 4.409-4.125 4.461-3.42 10.106-5.235 15.712-5.052l-4.032 4.869c-.976 1.188-1.99 2.389-3.33 3.133-1.34.744-3.096.94-4.357.065a5.269 5.269 0 0 0 1.964 3.89c-5.437 3.563-8.975 9.359-13.761 13.771-4.474 4.112-3.59-4.49-2.888-6.644 1.197-3.746 3.655-7.049 6.283-9.894v-.013Z" fill="#115936"/></g><path d="M427.213 428.95s.013-.026.026-.026c.117-.131.325-.131.455-.013l35.925 34.068c.117.118.13.288.039.418l-2.211 3.055a.324.324 0 0 1-.417.091l-43.181-24.07a.326.326 0 0 1-.131-.431.325.325 0 0 1 .43-.13l42.934 23.939 1.886-2.597-35.729-33.873c-.117-.118-.13-.301-.039-.418l.013-.013Z" fill="#383838"/><path d="M428.735 430.384a.296.296 0 0 1 .247-.13.33.33 0 0 1 .338.3l.846 17.87 16.505-1.41a.326.326 0 0 1 .338.235l3.33 12.466 9.391-.34c.182 0 .325.131.325.314 0 .182-.13.326-.312.339l-9.651.339c-.143 0-.286-.091-.325-.234l-3.33-12.453-16.57 1.41a.365.365 0 0 1-.235-.079.298.298 0 0 1-.104-.222l-.858-18.209c0-.078.026-.143.065-.209v.013Z" fill="#383838"/><path d="M419.604 442.984s.104-.105.169-.118l17.533-4.777c.078-.026.169 0 .247.039.078.039.13.117.143.209l3.746 16.264 12.837-.64c.143 0 .287.092.326.235l2.64 9.32a.311.311 0 0 1-.221.392.31.31 0 0 1-.39-.222l-2.563-9.072-12.85.653c-.156 0-.299-.092-.325-.248l-3.733-16.199-17.208 4.686a.31.31 0 0 1-.39-.222.342.342 0 0 1 .052-.274l-.013-.026ZM455.087 474.124l13.995-19.292a.311.311 0 0 1 .442-.065c.143.104.169.3.065.443l-13.995 19.293a.311.311 0 0 1-.442.065.315.315 0 0 1-.065-.444Z" fill="#383838"/><path d="M468.47 453.411s.078-.079.13-.105a.314.314 0 0 1 .416.17l1.223 2.845c.065.157 0 .353-.169.418a.314.314 0 0 1-.416-.17l-1.223-2.845c-.052-.105-.026-.222.039-.313ZM466.076 456.715s.079-.078.131-.104a.314.314 0 0 1 .416.17l1.222 2.845c.065.157 0 .353-.169.418a.314.314 0 0 1-.416-.17l-1.223-2.845c-.052-.105-.026-.222.039-.314ZM464.334 459.114s.078-.079.13-.105a.316.316 0 0 1 .417.17l1.222 2.846c.065.156 0 .352-.169.417a.314.314 0 0 1-.416-.169l-1.223-2.846c-.052-.104-.026-.222.039-.313ZM453.461 474.101a.305.305 0 0 1 .286-.13l3.069.3c.182.013.299.17.286.352-.013.183-.169.301-.351.288l-3.069-.301c-.182-.013-.299-.169-.286-.352 0-.065.026-.118.065-.157ZM455.854 470.797a.304.304 0 0 1 .286-.131l3.07.3c.182.013.299.17.286.353-.013.182-.169.3-.351.287l-3.07-.3c-.182-.013-.299-.17-.286-.353 0-.065.026-.117.065-.156ZM457.61 468.382a.305.305 0 0 1 .286-.13l3.07.3c.182.013.299.17.286.353-.013.182-.169.3-.351.287l-3.07-.3c-.182-.013-.299-.17-.286-.353a.22.22 0 0 1 .065-.157Z" fill="#383838"/><path d="M475.962 354.925s-36.224 27.908-71.823 27.543c-35.611-.379-62.002-2.05-62.002-2.05s-9.404.379-9.755-16.656c-.351-17.034-2.731-18.731-7.14-19.227-4.41-.496-6.686 3.25-13.787 13.993-7.102 10.743-42.102 66.558-42.102 66.558l42.934 89.153s4.214 5.443 9.118 3.25c4.89-2.193 5.189-17.543 5.189-17.543s.716-11.109 16.298-10.299c15.581.809 40.567-2.898 59.609-13.784l73.474-120.925-.013-.013Z" fill="#86C363"/><path d="M332.656 402.203c3.355-7.206 7.465-14.202 10.093-21.734l-.624-.039s-9.404.378-9.755-16.656c-.352-17.034-2.732-18.731-7.141-19.227-4.409-.496-6.685 3.25-13.787 13.993-7.102 10.743-42.102 66.558-42.102 66.558l42.934 89.153s4.215 5.443 9.118 3.25c4.891-2.193 5.19-17.544 5.19-17.544s.234-3.38 3.043-6.278c-2.77-14.215-6.75-28.404-7.322-42.854-.664-16.721 3.303-33.455 10.366-48.609l-.013-.013Z" fill="#39B0BD"/><path d="M321.392 517.475c4.891-2.193 5.19-17.543 5.19-17.543s.234-3.381 3.043-6.279c-2.77-14.215-6.75-28.403-7.322-42.853-.664-16.721 3.303-33.455 10.366-48.61 3.356-7.205 7.466-14.202 10.093-21.733l-.624-.04s-9.404.379-9.755-16.655c-.351-17.035-2.732-18.732-7.141-19.228-3.512-.391-5.671 1.906-9.976 8.263 2.64 1.018 5.151 2.193 7.557 5.365 1.86 2.441 3.525 5.26 3.551 8.328.039 4.307-3.161 7.988-6.647 10.494-3.498 2.507-7.504 4.36-10.509 7.454-3.004 3.08-4.76 8.041-2.562 11.748 1.769 2.976 5.372 4.151 8.259 6.056 2.887 1.893 5.255 5.926 3.148 8.654-1.626 2.115-5.021 2.102-6.712 4.164-3.251 3.956 2.823 9.216 2.953 14.333.052 2.193-1.028 4.229-1.743 6.291-1.548 4.491-1.379 9.555.481 13.941 1.093 2.585 2.796 5.221 2.237 7.989-.338 1.618-1.418 2.989-1.873 4.568-1.782 6.357 7.05 11.983 5.541 18.418-1.158 4.973-7.284 6.005-8.896 10.495-.196.548-.313 1.122-.274 1.697.208 4.359 5.632 6.291 7.453 9.998 1.769 3.629 2.003 8.172-.247 11.644-.52.809-1.158 1.579-1.834 2.336 1.652 1.032 3.863 1.763 6.23.705h.013Z" fill="#6EE0E5"/><path d="M342.879 489.634c15.582.809 40.567-2.898 59.609-13.784l73.474-120.924s-18.522 14.267-42.089 22.269a9.924 9.924 0 0 1-1.379 4.451c-3.317 5.665-9.066 9.92-14.776 12.896-8.246 4.308-17.363 6.657-25.74 10.704-8.376 4.046-16.362 10.364-19.093 19.266-3.59 11.696 2.12 26.433-6.126 35.439-6.477 7.062-18.444 6.449-25.09 13.354-4.097 4.255-5.255 10.742-3.941 16.525 1.509-.222 3.213-.313 5.151-.209v.013Z" fill="#A5DB75"/><path d="M408.106 376.333s94.818-9.385 80.68-96.893l-35.274-60.227s-6.49-17.544-20.537-9.268c-14.047 8.289-75.581 44.576-75.581 44.576s-14.932 5.013-3.616 23.17l54.328 98.629v.013Z" fill="#256B3B"/><path d="M427.408 326.756c3.122-8.145 2.081-17.596 5.983-25.401 4.982-9.96 16.479-14.542 24.4-22.36 3.941-3.89 6.985-8.602 9.495-13.55a68.197 68.197 0 0 0 5.216-13.797l-18.99-32.424s-6.49-17.543-20.537-9.267c-14.047 8.288-75.581 44.576-75.581 44.576s-14.932 5.012-3.616 23.169l38.929 70.67c4.058-.392 8.064-1.083 11.966-2.284 9.833-3.029 19.041-9.699 22.735-19.332Z" fill="#F5E4BB"/><path d="M404.673 346.09c9.833-3.029 19.042-9.699 22.736-19.332 3.121-8.145 2.081-17.596 5.983-25.401 4.981-9.96 16.479-14.542 24.4-22.36 3.941-3.89 6.985-8.602 9.495-13.55a68.134 68.134 0 0 0 5.215-13.797l-5.358-9.15a54.881 54.881 0 0 1-5.658 12.831c-4.357 7.219-10.418 13.432-17.689 17.687-7.921 4.634-17.637 7.675-22.124 15.703-3.837 6.84-2.64 15.324-4.253 23-2.185 10.429-10.067 19.462-20.082 23.038-3.525 1.254-7.219 1.854-10.965 2.128l6.334 11.487c4.058-.392 8.064-1.084 11.966-2.284Z" fill="#CBB08F"/><path d="M414.857 257.954c.287-.704.599-1.435 1.223-1.866.676-.483 1.574-.509 2.406-.457 2.823.144 5.606.822 8.181 1.997a81.48 81.48 0 0 1 6.322-15.416c.845-1.579 1.834-3.211 3.433-4.02 2.901-1.449 6.283.405 8.988 2.193 4.63 3.08 9.261 6.161 13.891 9.228-3.681 5.887-9.56 10.038-15.582 13.458-5.788 3.277-11.823 5.9-18.04 8.237-5.19 1.945-8.142 4.32-14.06 3.067-.169-.039-.351-.078-.468-.209-.196-.208-.13-.548-.065-.822 1.365-5.313 1.677-10.299 3.771-15.403v.013Z" fill="#E8D5AA"/><path d="m457.29 280.309-4.382 3.339 10.634 14.056 4.382-3.339-10.634-14.056Z" fill="#926041"/><path d="M438.165 259.484s5.372 40.857 21.565 28.508c15.946-12.152-21.565-28.508-21.565-28.508Z" fill="#1A854D"/><path d="m438.165 259.484 21.565 28.508c15.946-12.152-21.565-28.508-21.565-28.508Z" fill="#115936"/><path d="m448.055 303.907-4.833 4.327 13.785 15.506 4.833-4.327-13.785-15.506Z" fill="#926041"/><path d="M423.676 281.215s10.093 47.448 27.964 31.445c17.598-15.755-27.964-31.445-27.964-31.445Z" fill="#1A854D"/><path d="m423.676 281.215 27.964 31.445c17.598-15.755-27.964-31.445-27.964-31.445Z" fill="#115936"/><path d="m410.871 340.925-5.514 3.411 10.866 17.69 5.514-3.411-10.866-17.69Z" fill="#926041"/><path d="M390.834 314.293s1.652 48.492 22.046 35.883c20.069-12.414-22.046-35.883-22.046-35.883Z" fill="#1A854D"/><path d="m390.834 314.293 22.046 35.883c20.069-12.414-22.046-35.883-22.046-35.883ZM432.832 342.198c-.039-1.109.547-2.232 1.496-2.806.95-.575 2.211-.601 3.174-.052-.338-1.776 1.469-3.146 3.043-4.034-1.17-1.527-2.12-3.355-2.094-5.286.039-2.937 2.302-5.391 4.735-7.023 1.534-1.031 3.238-1.893 5.072-2.102 1.834-.208 3.824.327 5.047 1.724-.013-1.41.832-2.781 2.094-3.381 1.261-.601 2.874-.392 3.941.509.585-1.397 1.899-2.441 3.381-2.689a4.522 4.522 0 0 1 4.071 1.449l-33.804 25.192-.169-1.501h.013ZM409.966 365.198c.118-1.109.859-2.127 1.873-2.571 1.015-.444 2.277-.287 3.148.405-.091-1.802 1.899-2.911 3.577-3.564-.95-1.684-1.639-3.616-1.34-5.521.442-2.911 3.031-5.013 5.671-6.292 1.665-.809 3.473-1.423 5.32-1.371 1.847.053 3.746.862 4.76 2.415.182-1.396 1.21-2.636 2.549-3.054 1.34-.418 2.901 0 3.824 1.057.768-1.292 2.224-2.154 3.733-2.193a4.55 4.55 0 0 1 3.837 1.997l-36.978 20.22.039-1.515-.013-.013ZM428.189 229.851c-.221-.496-.468-1.018-.924-1.305-.936-.587-2.094.092-3.147.418-1.847.574-3.941-.078-5.411-1.332-1.47-1.266-2.406-3.054-3.005-4.908-.26-.835-.468-1.736-.26-2.584.208-.849.924-1.645 1.808-1.645 1.613 0 2.094 2.141 2.472 3.707.234.992.663 1.984 1.443 2.611.794.626 2.029.77 2.797.117.715-.613.819-1.71.533-2.597-.286-.888-.911-1.632-1.47-2.376a35.064 35.064 0 0 1-5.749-11.199c-.377-1.24-.676-2.598-.221-3.799.455-1.214 1.964-2.088 3.083-1.436.611.366.936 1.058 1.222 1.71a114.734 114.734 0 0 1 2.927 7.61c.949.313 1.938-.652 2.003-1.644.078-.992-.494-1.919-1.106-2.716-.611-.783-1.326-1.527-1.652-2.48-.143-.404-.195-.861-.013-1.24.339-.691 1.34-.822 2.016-.457.677.366 1.106 1.058 1.496 1.723 1.002 1.697 2.029 3.447 2.315 5.391.3 1.945-.312 4.164-1.964 5.222-.468.3-1.053.548-1.196 1.083-.104.366.052.744.182 1.097 1.73 4.268 3.473 8.536 5.202 12.805.326.809 1.691 4.829-.468 4.294-1.014-.248-2.458-5.117-2.887-6.083l-.026.013ZM371.948 286.071c-.819-.301-1.73-.196-2.601-.301-1.873-.222-3.512-1.436-4.656-2.924-1.158-1.488-1.899-3.25-2.628-4.986-.325-.77-.624-1.723-.091-2.362.611-.731 1.873-.392 2.458.365.586.757.742 1.749 1.08 2.637.338.887 1.027 1.801 1.977 1.827.26 0 .52-.065.689-.248.351-.404.065-1.018-.234-1.449-2.289-3.433-4.565-6.866-6.854-10.299-.703-1.057-1.34-2.676-.325-3.446.546-.417 1.365-.313 1.95.079.573.391.976.992 1.34 1.579a175.504 175.504 0 0 1 8.116 14.306c.703.287 1.509-.391 1.6-1.148.104-.757-.286-1.488-.728-2.115-.443-.627-.95-1.227-1.158-1.958-.104-.378-.117-.809.091-1.136.364-.574 1.262-.6 1.821-.208.572.378.885 1.031 1.184 1.657.533 1.136 1.079 2.259 1.613 3.394.585 1.214 1.131 2.767.273 3.812-.43.522-1.132.783-1.457 1.37-.338.588-.182 1.345.104 1.958.286.614.715 1.175.936 1.815.508 1.501-.715 2.78-1.834 1.514-1.079-1.24-.78-3.029-2.679-3.72l.013-.013Z" fill="#115936"/><path d="M362.584 396.539h.052c.234 0 .429.17.442.405l2.25 65.435c0 .209-.143.405-.351.431l-4.904.809a.407.407 0 0 1-.468-.3l-18.3-62.799a.423.423 0 0 1 .286-.522.421.421 0 0 1 .52.287l18.196 62.433 4.176-.678-2.238-65.057c0-.222.143-.405.352-.431l-.013-.013Z" fill="#383838"/><path d="M362.675 399.305a.407.407 0 0 1 .351.104.446.446 0 0 1 .039.601l-15.725 17.569 16.791 14.045a.42.42 0 0 1 .092.536l-8.39 14.802 9.131 8.432a.432.432 0 0 1 .026.601.428.428 0 0 1-.598.026l-9.378-8.655a.418.418 0 0 1-.078-.522l8.389-14.789-16.856-14.097a.461.461 0 0 1-.157-.301c0-.117.026-.221.105-.313l16.024-17.896a.386.386 0 0 1 .247-.13l-.013-.013Z" fill="#383838"/><path d="M342.462 402.622a.404.404 0 0 1 .274.052l20.875 11.839a.395.395 0 0 1 .195.261.465.465 0 0 1-.052.327l-11.511 18.757 12.643 11.343a.44.44 0 0 1 .091.522l-6.139 11.213a.426.426 0 0 1-.573.17.43.43 0 0 1-.169-.575l5.983-10.912-12.655-11.356a.421.421 0 0 1-.078-.536l11.459-18.692-20.486-11.617a.415.415 0 0 1-.156-.574.441.441 0 0 1 .299-.209v-.013ZM347.002 464.913l30.981-5.091a.417.417 0 0 1 .482.353.417.417 0 0 1-.352.483l-30.981 5.091a.416.416 0 0 1-.481-.353.416.416 0 0 1 .351-.483Z" fill="#383838"/><path d="M378.725 457.914c.078 0 .143 0 .221.026a.425.425 0 0 1 .247.548l-1.47 3.812a.423.423 0 1 1-.793-.3l1.47-3.812a.419.419 0 0 1 .325-.261v-.013ZM373.418 458.777c.078 0 .143 0 .221.026a.426.426 0 0 1 .248.549l-1.47 3.811a.425.425 0 1 1-.794-.3l1.47-3.812a.42.42 0 0 1 .325-.261v-.013ZM369.542 459.414c.078 0 .143 0 .221.026a.425.425 0 0 1 .248.548l-1.47 3.812a.425.425 0 1 1-.794-.3l1.47-3.812a.419.419 0 0 1 .325-.261v-.013ZM345.506 463.37a.407.407 0 0 1 .39.143l2.601 3.146a.433.433 0 0 1-.052.601.417.417 0 0 1-.598-.053l-2.601-3.145a.433.433 0 0 1 .052-.601.427.427 0 0 1 .208-.091ZM350.8 462.499a.407.407 0 0 1 .39.143l2.601 3.146a.433.433 0 0 1-.052.601.429.429 0 0 1-.598-.053l-2.601-3.145a.431.431 0 0 1 .052-.601.427.427 0 0 1 .208-.091ZM354.676 461.858a.405.405 0 0 1 .39.144l2.601 3.146a.432.432 0 0 1-.052.6.416.416 0 0 1-.598-.052l-2.602-3.146a.431.431 0 0 1 .053-.6.42.42 0 0 1 .208-.092Z" fill="#383838"/><path d="M370.01 460.225s-.091 0-.13-.039c-.104-.065-.13-.209-.065-.313.052-.078 1.352-2.023 4.5-4.543 2.901-2.323 7.986-5.586 15.751-7.949 24.79-7.558 56.696-.235 79.093 7.245a.229.229 0 0 1 .143.287.227.227 0 0 1-.286.143c-22.306-7.453-54.094-14.763-78.768-7.257-14.736 4.477-20.004 12.244-20.056 12.322a.23.23 0 0 1-.195.104h.013Z" fill="#383838"/><path d="M356.042 463.41s-.131-.026-.17-.078a.242.242 0 0 1 .013-.326c.117-.105 12.513-11.213 32.127-17.061 11.523-3.433 23.242-4.412 34.857-2.924 14.503 1.88 28.862 7.649 42.662 17.165.104.078.13.209.065.313-.078.105-.208.131-.312.066-13.748-9.477-28.03-15.233-42.454-17.1-11.537-1.488-23.204-.509-34.662 2.911-19.51 5.822-31.827 16.851-31.944 16.969-.039.039-.104.052-.156.052l-.026.013Z" fill="#383838"/><path d="M459.509 468.958s-.091 0-.13-.04c-31.827-21.302-58.998-29.304-80.745-23.808-10.067 2.545-16.896 7.636-20.85 11.447-4.279 4.138-6.191 7.702-6.217 7.741a.222.222 0 0 1-.312.091.223.223 0 0 1-.091-.313c.078-.144 7.882-14.502 27.353-19.423 21.89-5.535 49.178 2.493 81.109 23.874.104.065.13.209.065.313a.23.23 0 0 1-.195.105l.013.013Z" fill="#383838"/><path d="M455.606 474.727s-.13-.026-.169-.078c-19.705-21.786-39.943-32.829-60.155-32.829-.572 0-1.145 0-1.73.026-28.211.875-46.55 23.457-46.732 23.679-.078.104-.221.117-.326.039a.23.23 0 0 1-.039-.326c.183-.235 18.639-22.961 47.071-23.848.572-.013 1.158-.027 1.743-.027 20.355 0 40.698 11.083 60.494 32.973.091.091.078.235-.013.326a.242.242 0 0 1-.157.065h.013Z" fill="#383838"/><path d="m362.671 404.675 4.933-.589-1.877-15.852-4.934.588 1.878 15.853Z" fill="#926041"/><path d="M368.073 429.706s14.463-34.329-3.811-32.149c-17.988 2.14 3.811 32.149 3.811 32.149Z" fill="#1A854D"/><path d="m368.073 429.705-3.811-32.15c-17.988 2.14 3.811 32.15 3.811 32.15Z" fill="#115936"/><path d="m334.549 430.214 4.933-.589-1.878-15.852-4.933.588 1.878 15.853Z" fill="#926041"/><path d="M339.953 455.253s14.463-34.329-3.811-32.15c-17.988 2.141 3.811 32.15 3.811 32.15Z" fill="#1A854D"/><path d="m339.953 455.251-3.811-32.149c-17.988 2.14 3.811 32.149 3.811 32.149Z" fill="#115936"/><path d="m391.744 420.447 3.265-.884-2.824-10.498-3.265.885 2.824 10.497Z" fill="#926041"/><path d="M397.857 436.756s6.373-24.579-5.723-21.303c-11.914 3.224 5.723 21.303 5.723 21.303Z" fill="#1A854D"/><path d="m397.857 436.756-5.723-21.303c-11.914 3.224 5.723 21.303 5.723 21.303Z" fill="#115936"/><path d="m406.433 421.132 3.069-1.425-4.548-9.869-3.069 1.425 4.548 9.869Z" fill="#926041"/><path d="M415.195 436.195s2.146-25.31-9.221-20.023c-11.199 5.195 9.221 20.023 9.221 20.023Z" fill="#1A854D"/><path d="m415.195 436.195-9.221-20.023c-11.199 5.195 9.221 20.023 9.221 20.023Z" fill="#115936"/><path d="m433.478 421.991 1.527-1.495-4.759-4.896-1.527 1.495 4.759 4.896Z" fill="#926041"/><path d="M441.82 429.121s-4.006-15.442-9.65-9.921c-5.554 5.431 9.65 9.921 9.65 9.921Z" fill="#1A854D"/><path d="m441.82 429.12-9.65-9.921c-5.554 5.43 9.65 9.921 9.65 9.921ZM411.762 404.985a2.195 2.195 0 0 1-1.782 1.267 2.18 2.18 0 0 1-1.964-.953c-.338 1.188-1.873 1.475-3.108 1.54.247 1.305.273 2.715-.326 3.89-.923 1.801-3.069 2.597-5.059 2.858-1.262.157-2.575.17-3.759-.274-1.184-.443-2.25-1.383-2.575-2.61-.417.874-1.366 1.449-2.328 1.436-.963-.027-1.886-.64-2.264-1.528-.78.679-1.925.914-2.913.614-.989-.3-1.795-1.149-2.055-2.154l28.51-5.051-.351.979-.026-.014ZM384.461 387.544a2.183 2.183 0 0 1-1.977.914 2.19 2.19 0 0 1-1.756-1.292c-.546 1.109-2.107 1.109-3.33.953 0 1.331-.221 2.715-1.027 3.772-1.236 1.593-3.486 1.997-5.502 1.893-1.261-.065-2.562-.3-3.655-.953-1.092-.653-1.964-1.775-2.055-3.041a2.577 2.577 0 0 1-2.549.979c-.936-.196-1.73-.979-1.951-1.919a3.106 3.106 0 0 1-2.965.065 3.143 3.143 0 0 1-1.639-2.493l28.939.235-.533.9v-.013Z" fill="#115936"/><path d="M317.438 382.101c-2.042 1.057-3.837 2.793-4.461 5.012-.195.705-.26 1.514.143 2.128.338.522.95.809 1.548 1.018 3.512 1.201 7.583.6 10.6-1.566 1.639-1.188 3.057-3.12 2.641-5.104-.365-1.775-2.029-3.929-3.98-3.564-2.16.418-4.527 1.071-6.491 2.089v-.013ZM308.672 392.833c-.039.587-.065 1.214.195 1.736.325.653 1.015 1.018 1.678 1.345.364.169.728.339 1.106.43 1.378.314 2.9-.561 3.407-1.879.507-1.319.026-2.937-1.066-3.838-2.328-1.932-5.151-.679-5.32 2.206ZM313.913 496.646c.403.248.872.444 1.353.431.871-.027 1.6-.718 2.055-1.475.702-1.188.949-2.689.507-3.995-.442-1.305-1.613-2.388-2.978-2.571-4.748-.64-3.668 5.939-.924 7.61h-.013Z" fill="#39B0BD"/><path d="M311.052 485.863c.156.209.39.34.638.418.728.235 1.573.144 2.224-.287a2.488 2.488 0 0 0 1.118-1.932c0-.209 0-.431-.104-.627-1.17-2.427-5.293.431-3.889 2.428h.013Z" fill="#6EE0E5"/></g><defs><clipPath id="a"><path fill="#fff" d="M0 0h510v518H0z"/></clipPath></defs></svg>