<svg width="345" height="187" fill="none" xmlns="http://www.w3.org/2000/svg"><path d="M154.285 206.408c107.129 48.438 147.005 64.648 180.89 62.388l8.245-1.55c-.193-2.971-1.481-7.105-3.027-11.044.966 2.131 2.061 4.585 3.414 7.491l.193.388c-.515-1.163-1.739-3.875-3.543-7.879-2.512-6.394-5.605-12.4-5.798-12.852C306.121 180.381 224.631 0 224.631 0l-71.57 135.819-59.653-93.775L0 215.773c21.58-20.086 69.96-47.469 154.285-9.365Z" fill="#153537"/><path d="M153 134.885 126.084 187 93 41l60 93.885ZM334.995 268.809 345 266.936 225 0l36.558 252.601c33.608 12.85 54.452 17.434 73.437 16.208Z" fill="#2A6B71"/></svg>