<svg width="230" height="74" fill="none" xmlns="http://www.w3.org/2000/svg"><path d="M176 0c-16.56 0-30 13.44-30 30 0 16.56 13.44 30 30 30 16.56 0 30-13.44 30-30 0-16.56-13.44-30-30-30Z" fill="#FFCE2F"/><path d="M202.316 46.383c-11.09 0-20.627 6.57-25.037 15.942-3.571-2.134-7.73-3.43-12.183-3.43-.168 0-.294.041-.462.041C162.323 34.332 141.781 15 116.449 15c-25.331 0-46.378 19.792-48.268 44.857-6.596 1.799-11.973 6.318-14.955 12.302-2.353-1.925-5.252-3.222-8.57-3.222-.336 0-.63.167-.966.21-1.975-5.148-6.89-8.83-12.771-8.83-6.638 0-11.889 4.77-13.191 11.005-2.143-1.38-4.537-2.385-7.31-2.385C6.175 68.937 2.521 70.987 0 74h230c0-15.231-12.393-27.575-27.684-27.575v-.042Z" fill="#fff"/></svg>