<svg width="89" height="131" fill="none" xmlns="http://www.w3.org/2000/svg"><path d="m33.026 41.595-8.317 88.6h37.909l-8.317-88.6H33.026Z" fill="#A98F59"/><path d="m44.356 41.595-1.024 88.6h20.19l-8.317-88.6H44.356Z" fill="#B4976E"/><path d="M47.13 74.007h-6.028v5.958h6.027v-5.958Z" fill="#5B3120"/><path d="M40.62 80.442h6.991v-6.911h-6.99v6.911Zm1.025-5.958h5.002v4.946h-5.002v-4.946Z" fill="#EDEDED"/><path d="M47.13 88.605h-6.028v5.958h6.027v-5.958Z" fill="#5B3120"/><path d="M40.62 95.041h6.991v-6.912h-6.99v6.912Zm1.025-5.958h5.002v4.945h-5.002v-4.945Z" fill="#EDEDED"/><path d="M47.13 103.142h-6.028v5.958h6.027v-5.958Z" fill="#5B3120"/><path d="M40.62 109.578h6.991v-6.912h-6.99v6.912Zm1.025-5.959h5.002v4.946h-5.002v-4.946Z" fill="#EDEDED"/><path d="M47.13 117.736h-6.028v5.958h6.027v-5.958Z" fill="#5B3120"/><path d="M40.62 124.171h6.991v-6.911h-6.99v6.911Zm1.025-5.958h5.002v4.945h-5.002v-4.945Z" fill="#EDEDED"/><path d="M47.13 59.408h-6.028v5.958h6.027v-5.958Z" fill="#5B3120"/><path d="M40.62 65.844h6.991v-6.912h-6.99v6.912Zm1.025-5.958h5.002v4.945h-5.002v-4.945Z" fill="#EDEDED"/><path d="m37.835 36.708-.725.716 13.68 13.524.724-.716-13.68-13.524Z" fill="#6D2F1F"/><path d="m28.868 16.095-6.63 6.614.061.06-5.966 5.898.904.834 6.629-6.613-.06-.06 5.966-5.898-.904-.835ZM31.64 32.004l5.425 5.363 5.183-5.124-5.424-5.363-5.183 5.124Zm5.425 3.933-3.978-3.933 3.737-3.694 3.977 3.933-3.736 3.694Z" fill="#fff"/><path d="m27.06 27.479 5.304 5.243 5.122-5.064-4.4-6.078-6.026 5.959v-.06Zm5.304 3.813-3.857-3.813 4.399-4.35 3.194 4.41-3.797 3.753h.06Z" fill="#fff"/><path d="m22.36 22.826 5.303 5.243 5.906-5.839-4.4-6.077-6.75 6.673h-.06Zm5.303 3.813-3.857-3.813 5.183-5.124 3.194 4.409-4.52 4.468v.06Z" fill="#fff"/><path d="m32.855 21.47-5.926 5.855.895.885 5.925-5.854-.894-.885ZM17.477 18.003l5.425 5.363 6.63-6.555-4.581-6.196-7.474 7.388Zm5.425 3.933-3.978-3.933 5.906-5.84 3.375 4.589-5.243 5.184h-.06Z" fill="#fff"/><path d="m12.957 13.533 5.304 5.243 7.353-7.27-4.4-6.077-8.196 8.104h-.06Zm5.304 3.813-3.857-3.813 6.63-6.554 3.194 4.409-6.027 5.958h.06Z" fill="#fff"/><path d="m8.256 8.886 5.304 5.243 8.076-7.984-4.4-6.077-8.98 8.878v-.06ZM13.56 12.7 9.703 8.886l7.352-7.269 3.195 4.41-6.75 6.672h.06Z" fill="#fff"/><path d="m20.907 5.368-8.142 8.044.894.885 8.143-8.044-.895-.885ZM27.24 36.471l5.425 5.363 5.183-5.124-5.424-5.363-5.183 5.124Zm5.425 3.933-3.978-3.933 3.737-3.694L36.4 36.71l-3.736 3.694Z" fill="#fff"/><path d="m21.877 32.781 6.147 4.35 5.123-5.065-5.304-5.243-5.966 5.898v.06Zm6.027 3.039-4.46-3.158 4.4-4.35 3.857 3.814-3.797 3.753v-.06Z" fill="#fff"/><path d="m16.453 28.846 6.147 4.35 5.907-5.84-5.304-5.243-6.75 6.674v.06Zm6.027 3.039-4.46-3.158 5.183-5.124 3.857 3.813-4.52 4.469h-.06Z" fill="#fff"/><path d="m27.674 26.73-5.924 5.855.895.885 5.924-5.856-.895-.885ZM10.848 24.796l6.268 4.529 6.63-6.554-5.424-5.363-7.474 7.388Zm6.208 3.218-4.64-3.337 5.905-5.839 3.978 3.933-5.243 5.183v.06Z" fill="#fff"/><path d="m5.544 20.98 6.147 4.35 7.353-7.27-5.304-5.242-8.196 8.103v.06Zm6.027 3.04L7.11 20.86l6.63-6.554 3.857 3.813-6.027 5.959v-.06Z" fill="#fff"/><path d="m.06 17.11 6.148 4.349 8.075-7.984L8.98 8.23 0 17.11h.06Zm6.027 3.038-4.46-3.158L8.98 9.72l3.857 3.814-6.75 6.673v-.06Z" fill="#fff"/><path d="m13.576 12.752-8.142 8.044.894.885 8.143-8.044-.895-.885ZM71.055 57.735l-6.69 6.613.06.06-5.905 5.898.843.894 6.69-6.613-.06-.06 5.906-5.899-.844-.893ZM45.983 55.056l5.425 5.363 5.182-5.124-5.424-5.363-5.183 5.124Zm5.425 3.933-3.978-3.933 3.736-3.694 3.978 3.933-3.736 3.694Z" fill="#fff"/><path d="m50.744 59.647 4.4 6.078 6.026-5.959-5.303-5.243-5.123 5.064v.06Zm4.52 4.528-3.194-4.409 3.797-3.753 3.857 3.813-4.4 4.35h-.06Z" fill="#fff"/><path d="m54.722 65.005 4.4 6.078 6.75-6.673-5.304-5.244-5.906 5.84h.06Zm4.52 4.529-3.194-4.41 4.52-4.468 3.857 3.754-5.183 5.124Z" fill="#fff"/><path d="m60.517 59.154-5.926 5.854.894.885 5.926-5.854-.895-.885ZM58.7 70.43l4.58 6.197 7.474-7.389-5.424-5.362-6.63 6.554Zm4.701 4.647-3.375-4.587 5.243-5.244 3.978 3.933-5.906 5.839.06.06Z" fill="#fff"/><path d="m62.678 75.788 4.4 6.078 8.195-8.103-5.303-5.244-7.353 7.27h.06Zm4.52 4.529-3.195-4.41 6.027-5.958 3.797 3.814-6.63 6.554Z" fill="#fff"/><path d="m66.655 81.215 4.4 6.078 8.98-8.878-5.304-5.243-8.076 7.984v.06Zm4.52 4.529-3.194-4.41 6.75-6.673 3.797 3.814-7.353 7.269Z" fill="#fff"/><path d="m74.6 73.024-8.14 8.047.895.885 8.14-8.047-.895-.885ZM50.382 50.528l5.425 5.362 5.182-5.124-5.424-5.363-5.183 5.125Zm5.425 3.932-3.978-3.932 3.736-3.695 3.978 3.933-3.736 3.694Z" fill="#fff"/><path d="m55.083 55.175 5.304 5.244 5.966-5.9-6.147-4.349-5.123 5.065v-.06Zm9.703-.596-4.4 4.35-3.856-3.813 3.796-3.754 4.46 3.158v.06Z" fill="#fff"/><path d="m59.784 59.88 5.304 5.243 6.75-6.673-6.147-4.35-5.907 5.84v-.06Zm10.426-1.311-5.182 5.124-3.858-3.813 4.52-4.47 4.46 3.159h.06Z" fill="#fff"/><path d="M65.617 53.876 59.69 59.73l.895.885 5.925-5.854-.894-.885ZM64.545 64.527l5.424 5.362 7.473-7.388-6.268-4.529-6.63 6.555Zm11.33-1.907-5.906 5.84-3.977-3.933 5.243-5.184 4.64 3.336v-.06Z" fill="#fff"/><path d="m69.247 69.178 5.304 5.243 8.196-8.103-6.147-4.35-7.353 7.27v-.06Zm11.933-2.8-6.63 6.554-3.856-3.814 6.026-5.958 4.46 3.158v.06Z" fill="#fff"/><path d="m73.948 73.825 5.303 5.243 8.98-8.878-6.147-4.35-8.076 7.985h-.06Zm12.656-3.515-7.353 7.269-3.857-3.814 6.75-6.673 4.46 3.158v.06Z" fill="#fff"/><path d="m81.928 65.64-8.14 8.047.895.885 8.14-8.047-.895-.885Z" fill="#fff"/><path d="M50.62 36.53 36.94 50.054l.724.717 13.68-13.524-.724-.717Z" fill="#6D2F1F"/><path d="m65.27 22.045-5.967-5.899-.904.894 6.69 6.554.06-.06 5.966 5.9.904-.894-6.69-6.555-.06.06ZM50.444 36.642l5.183 5.124 5.424-5.362-5.183-5.125-5.424 5.363Zm5.183 3.694-3.737-3.694 3.978-3.933 3.736 3.695-3.977 3.932Z" fill="#fff"/><path d="m55.204 31.998 5.123 5.065 6.147-4.35-6.026-5.958-5.304 5.243h.06Zm5.244 3.754-3.797-3.754 3.857-3.813 4.4 4.35-4.46 3.157v.06Z" fill="#fff"/><path d="m59.905 27.348 5.906 5.84 6.148-4.35-6.75-6.674-5.304 5.244v-.06Zm5.967 4.469-4.52-4.469 3.857-3.813 5.183 5.124-4.46 3.158h-.06Z" fill="#fff"/><path d="m60.66 26.654-.894.885 5.923 5.856.895-.884-5.924-5.857ZM64.606 22.703l6.63 6.554 6.267-4.528-7.473-7.389-5.424 5.363Zm6.75 5.184-5.243-5.184 3.977-3.933 5.906 5.84-4.64 3.336v-.06Z" fill="#fff"/><path d="m69.308 17.995 7.353 7.27 6.147-4.35-8.196-8.104-5.304 5.244v-.06Zm7.473 5.958-6.027-5.958 3.858-3.813 6.63 6.554-4.46 3.158v.06Z" fill="#fff"/><path d="m74.008 13.35 8.076 7.984 6.147-4.35-8.98-8.878-5.303 5.244h.06Zm8.196 6.673-6.75-6.673 3.858-3.814 7.352 7.27-4.46 3.157v.06Z" fill="#fff"/><path d="m74.75 12.65-.895.884 8.14 8.047.894-.885-8.14-8.047ZM45.924 32.294l5.183 5.124 5.424-5.363-5.183-5.124-5.424 5.363Zm5.183 3.694-3.737-3.694 3.978-3.933 3.736 3.694-3.977 3.933Z" fill="#fff"/><path d="m50.685 27.709 5.123 5.064 5.303-5.243-5.966-5.899-4.4 6.078h-.06Zm8.98-.12-3.857 3.814-3.797-3.754 3.194-4.409 4.4 4.35h.06Z" fill="#fff"/><path d="m54.662 22.281 5.906 5.84 5.304-5.244-6.75-6.673-4.4 6.077h-.06Zm9.703.596-3.857 3.813-4.52-4.469 3.194-4.409 5.183 5.125v-.06Z" fill="#fff"/><path d="m55.337 21.509-.895.884 5.924 5.857.895-.885-5.924-5.856ZM58.64 16.92l6.63 6.554 5.424-5.363-7.474-7.388-4.58 6.197Zm10.607 1.191-3.978 3.933-5.243-5.184 3.375-4.588 5.906 5.84h-.06Z" fill="#fff"/><path d="m62.618 11.558 7.352 7.269 5.304-5.243-8.196-8.103-4.4 6.077h-.06Zm11.21 2.026-3.858 3.813-6.026-5.958 3.194-4.41 6.63 6.555h.06Z" fill="#fff"/><path d="m66.595 6.137 8.076 7.984 5.304-5.243L70.995 0l-4.4 6.077v.06Zm11.933 2.8-3.857 3.814-6.75-6.674 3.194-4.409 7.353 7.27h.06Z" fill="#fff"/><path d="m67.176 5.243-.895.885 8.14 8.047.895-.885-8.14-8.047ZM23.083 63.691l-5.967-5.839-.843.834 6.69 6.614.06-.06 5.966 5.84.844-.835-6.69-6.613-.06.06ZM27.18 50.883l5.183 5.124 5.424-5.362-5.183-5.124-5.424 5.362Zm5.183 3.695-3.736-3.695 3.977-3.932 3.737 3.694-3.978 3.933Z" fill="#fff"/><path d="m21.817 54.576 6.027 5.958 5.303-5.243-5.122-5.065-6.148 4.35h-.06Zm6.027 4.468-4.4-4.35 4.46-3.157 3.797 3.754-3.857 3.813v-.06Z" fill="#fff"/><path d="m16.332 58.512 6.75 6.674 5.304-5.244-5.906-5.839-6.148 4.35v.06Zm6.75 5.243L17.9 58.631l4.46-3.157 4.52 4.468-3.797 3.813Z" fill="#fff"/><path d="m22.612 53.945-.895.885 5.923 5.856.895-.885-5.923-5.856ZM10.727 62.561l7.474 7.388 5.424-5.362-6.63-6.554-6.268 4.528Zm7.474 5.958-5.906-5.839 4.64-3.336 5.243 5.183-3.977 3.933v.06Z" fill="#fff"/><path d="m5.424 66.319 8.197 8.103 5.303-5.243-7.352-7.27-6.148 4.35v.06Zm8.197 6.673-6.63-6.554 4.46-3.158 6.027 5.958-3.797 3.814-.06-.06Z" fill="#fff"/><path d="m0 70.25 8.98 8.879 5.303-5.244-8.075-7.984-6.148 4.35H0Zm8.98 7.448L1.627 70.43l4.46-3.158 6.75 6.673-3.857 3.813v-.06Z" fill="#fff"/><path d="m6.349 65.713-.895.884 8.14 8.047.895-.884-8.14-8.047ZM31.7 55.175l5.184 5.124 5.424-5.363-5.183-5.124-5.424 5.363Zm5.184 3.694-3.737-3.694 3.978-3.933 3.736 3.694-3.977 3.933Z" fill="#fff"/><path d="m27.12 59.703 5.967 5.899 4.4-6.078-5.123-5.064-5.304 5.243h.06Zm5.846 4.35-4.4-4.35 3.858-3.813 3.797 3.754-3.194 4.409h-.06Z" fill="#fff"/><path d="m22.42 64.347 6.75 6.673 4.4-6.078-5.907-5.839-5.304 5.244h.06Zm6.63 5.124-5.184-5.124 3.857-3.814 4.52 4.47-3.194 4.408v.06Z" fill="#fff"/><path d="m27.814 58.88-.895.884 5.924 5.857.895-.885-5.924-5.857ZM17.598 69.175l7.474 7.389 4.58-6.197-6.63-6.554-5.424 5.362Zm7.353 5.84-5.906-5.84 3.977-3.932 5.244 5.184-3.375 4.587h.06Z" fill="#fff"/><path d="m13.018 73.647 8.196 8.103 4.4-6.077-7.353-7.27-5.303 5.244h.06Zm8.076 6.554-6.63-6.554 3.857-3.814 6.027 5.959-3.194 4.409h-.06Z" fill="#fff"/><path d="m8.317 78.35 8.98 8.878 4.4-6.078-8.076-7.984-5.304 5.243v-.06Zm8.86 7.269-7.353-7.27 3.857-3.813 6.75 6.674-3.194 4.409h-.06Z" fill="#fff"/><path d="m13.82 73.017-.896.885 8.14 8.047.895-.885-8.14-8.047Z" fill="#fff"/></svg>