<svg width="1023" height="475" fill="none" xmlns="http://www.w3.org/2000/svg"><g clip-path="url(#a)"><path d="M25.235 315.395v-72.822h20.713v-95.342l109.444 31.588v182.838H25.235v-46.262ZM243.726 421.989h-58.358V287.956l58.358-29.94v163.973ZM1005.58 264.077V241.86h-26.2v34.817l-31.57 15.196v107.035h75.5V258.472l-17.73 5.605ZM905.119 369.931h-61.367V230.36l61.367 37.84v101.731ZM590.915 263.665v-27.356h-36.037v35.738l-31.858 7.406V384.44h83.028V260.148l-15.133 3.517Z" fill="#CAE6EC"/><path d="M346.683 229.122h-75.922v100.975h75.922V229.122Z" fill="#7A9CAC"/><path d="M346.67 229.122h-23.901v100.975h23.901V229.122Z" fill="#2A597A"/><path d="M283.873 319.792a2.886 2.886 0 0 1-2.887-2.886v-74.594a2.886 2.886 0 0 1 5.773 0v74.594a2.886 2.886 0 0 1-2.886 2.886ZM296.71 319.792a2.886 2.886 0 0 1-2.887-2.886v-74.594a2.886 2.886 0 0 1 5.773 0v74.594a2.886 2.886 0 0 1-2.886 2.886ZM309.546 319.792a2.886 2.886 0 0 1-2.886-2.886v-74.594a2.886 2.886 0 1 1 5.773 0v74.594a2.886 2.886 0 0 1-2.887 2.886ZM322.383 319.792a2.886 2.886 0 0 1-2.886-2.886v-74.594a2.886 2.886 0 1 1 5.773 0v74.594a2.886 2.886 0 0 1-2.887 2.886ZM335.22 319.792a2.886 2.886 0 0 1-2.886-2.886v-74.594a2.886 2.886 0 1 1 5.772 0v74.594a2.885 2.885 0 0 1-2.886 2.886Z" fill="#317DC9"/><path d="M359.507 292.422H257.924V441.24h101.583V292.422Z" fill="#7A9CAC"/><path d="M359.507 292.422h-31.983V441.24h31.983V292.422Z" fill="#2A597A"/><path d="M275.475 427.432a3.866 3.866 0 0 1-3.862-3.861V310.065a3.865 3.865 0 0 1 3.862-3.861 3.864 3.864 0 0 1 3.862 3.861v113.506a3.865 3.865 0 0 1-3.862 3.861ZM292.641 427.432a3.866 3.866 0 0 1-3.862-3.861V310.065a3.865 3.865 0 0 1 3.862-3.861 3.864 3.864 0 0 1 3.862 3.861v113.506a3.865 3.865 0 0 1-3.862 3.861ZM309.822 427.432a3.866 3.866 0 0 1-3.862-3.861V310.065a3.865 3.865 0 0 1 3.862-3.861 3.865 3.865 0 0 1 3.862 3.861v113.506a3.866 3.866 0 0 1-3.862 3.861ZM330.864 310.08a3.862 3.862 0 0 0-7.724 0v113.493a3.862 3.862 0 0 0 7.724 0V310.08ZM344.182 427.432a3.866 3.866 0 0 1-3.862-3.861V310.065a3.865 3.865 0 0 1 3.862-3.861 3.864 3.864 0 0 1 3.862 3.861v113.506a3.865 3.865 0 0 1-3.862 3.861Z" fill="#317DC9"/><path d="M802.796 226.594h-75.923V327.57h75.923V226.594Z" fill="#7A9CAC"/><path d="M802.782 226.594h-23.901V327.57h23.901V226.594Z" fill="#2A597A"/><path d="M739.985 317.252a2.885 2.885 0 0 1-2.886-2.885v-74.594a2.886 2.886 0 1 1 5.772 0v74.594a2.885 2.885 0 0 1-2.886 2.885ZM752.822 317.252a2.885 2.885 0 0 1-2.886-2.885v-74.594a2.886 2.886 0 1 1 5.772 0v74.594a2.885 2.885 0 0 1-2.886 2.885ZM765.659 317.252a2.885 2.885 0 0 1-2.887-2.885v-74.594a2.886 2.886 0 0 1 5.773 0v74.594a2.885 2.885 0 0 1-2.886 2.885ZM778.496 317.252a2.885 2.885 0 0 1-2.887-2.885v-74.594a2.886 2.886 0 0 1 5.773 0v74.594a2.885 2.885 0 0 1-2.886 2.885ZM791.333 317.252a2.885 2.885 0 0 1-2.887-2.885v-74.594a2.886 2.886 0 0 1 5.773 0v74.594a2.885 2.885 0 0 1-2.886 2.885Z" fill="#317DC9"/><path d="M815.619 289.879H714.036v148.818h101.583V289.879Z" fill="#7A9CAC"/><path d="M815.619 289.879h-31.982v148.818h31.982V289.879Z" fill="#2A597A"/><path d="M731.588 424.904a3.864 3.864 0 0 1-3.862-3.861V307.537a3.865 3.865 0 0 1 3.862-3.861 3.866 3.866 0 0 1 3.862 3.861v113.506a3.865 3.865 0 0 1-3.862 3.861ZM748.767 424.904a3.865 3.865 0 0 1-3.862-3.861V307.537a3.866 3.866 0 0 1 3.862-3.861 3.865 3.865 0 0 1 3.862 3.861v113.506a3.864 3.864 0 0 1-3.862 3.861ZM765.948 424.904a3.865 3.865 0 0 1-3.862-3.861V307.537a3.866 3.866 0 0 1 3.862-3.861 3.866 3.866 0 0 1 3.862 3.861v113.506a3.865 3.865 0 0 1-3.862 3.861ZM786.976 307.537a3.862 3.862 0 0 0-7.724 0V421.03a3.862 3.862 0 0 0 7.724 0V307.537ZM800.294 424.904a3.864 3.864 0 0 1-3.862-3.861V307.537a3.865 3.865 0 0 1 3.862-3.861 3.866 3.866 0 0 1 3.862 3.861v113.506a3.865 3.865 0 0 1-3.862 3.861Z" fill="#317DC9"/><path d="M474.833 288.989h-98.187v121.228h98.187V288.989Z" fill="#7A9CAC"/><path d="M474.833 288.989h-28.821v121.228h28.821V288.989Z" fill="#2A597A"/><path d="M467.343 292.52h-83.207v3.998h83.207v-3.998ZM467.343 300.145h-83.207v3.998h83.207v-3.998ZM467.343 307.77h-83.207v3.998h83.207v-3.998ZM467.343 315.399h-83.207v3.998h83.207v-3.998ZM467.343 323.024h-83.207v3.998h83.207v-3.998ZM467.343 330.649h-83.207v3.998h83.207v-3.998ZM467.343 338.274h-83.207v3.998h83.207v-3.998ZM467.343 345.899h-83.207v3.998h83.207v-3.998ZM467.343 353.512h-83.207v3.999h83.207v-3.999ZM467.343 361.137h-83.207v3.999h83.207v-3.999ZM467.343 368.762h-83.207v3.999h83.207v-3.999ZM467.343 376.387h-83.207v3.999h83.207v-3.999ZM467.343 384.016h-83.207v3.998h83.207v-3.998ZM467.343 391.641h-83.207v3.998h83.207v-3.998ZM467.343 399.266h-83.207v3.998h83.207v-3.998Z" fill="#317DC9"/><path d="M696.457 260.008H625.51v166.859h70.947V260.008Z" fill="#7A9CAC"/><path d="M696.471 260.008h-22.348v166.859h22.348V260.008Z" fill="#2A597A"/><path d="M637.769 417.234a2.698 2.698 0 0 1-2.694-2.693V272.346a2.698 2.698 0 0 1 2.694-2.693 2.698 2.698 0 0 1 2.694 2.693v142.195a2.698 2.698 0 0 1-2.694 2.693ZM649.768 417.234a2.698 2.698 0 0 1-2.694-2.693V272.346a2.698 2.698 0 0 1 2.694-2.693 2.698 2.698 0 0 1 2.694 2.693v142.195a2.698 2.698 0 0 1-2.694 2.693ZM661.753 417.234a2.697 2.697 0 0 1-2.693-2.693V272.346a2.697 2.697 0 0 1 2.693-2.693 2.697 2.697 0 0 1 2.694 2.693v142.195a2.697 2.697 0 0 1-2.694 2.693ZM673.751 417.234a2.697 2.697 0 0 1-2.693-2.693V272.346a2.697 2.697 0 0 1 2.693-2.693 2.697 2.697 0 0 1 2.694 2.693v142.195a2.697 2.697 0 0 1-2.694 2.693ZM685.751 417.234a2.697 2.697 0 0 1-2.694-2.693V272.346a2.697 2.697 0 0 1 2.694-2.693 2.697 2.697 0 0 1 2.693 2.693v142.195a2.697 2.697 0 0 1-2.693 2.693Z" fill="#317DC9"/><path d="M595.15 298.879h-89.969v124.993h89.969V298.879Z" fill="#7A9CAC"/><path d="M595.163 298.879h-26.416v124.993h26.416V298.879Z" fill="#2A597A"/><path d="M588.305 302.52h-76.252v4.122h76.252v-4.122ZM588.305 310.379h-76.252v4.122h76.252v-4.122ZM588.305 318.239h-76.252v4.122h76.252v-4.122ZM588.305 326.098h-76.252v4.122h76.252v-4.122ZM588.305 333.958h-76.252v4.122h76.252v-4.122ZM588.305 341.817h-76.252v4.122h76.252v-4.122ZM588.305 349.676h-76.252v4.122h76.252v-4.122ZM588.305 357.535h-76.252v4.122h76.252v-4.122ZM588.305 365.407h-76.252v4.122h76.252v-4.122ZM588.305 373.266h-76.252v4.122h76.252v-4.122ZM588.305 381.125h-76.252v4.122h76.252v-4.122ZM588.305 388.985h-76.252v4.122h76.252v-4.122ZM588.305 396.844h-76.252v4.122h76.252v-4.122ZM588.305 404.704h-76.252v4.122h76.252v-4.122ZM588.305 412.563h-76.252v4.122h76.252v-4.122Z" fill="#317DC9"/><path d="M1007 405H15c-8.837 0-16 7.164-16 16v38c0 8.837 7.163 16 16 16h992c8.84 0 16-7.163 16-16v-38c0-8.836-7.16-16-16-16Z" fill="#B9C56B"/><path d="M1025.19 405.051H2.9a4.26 4.26 0 0 0 0 8.519h1022.29c2.35 0 4.26-1.907 4.26-4.259 0-2.353-1.91-4.26-4.26-4.26Z" fill="#525F37"/><mask id="b" style="mask-type:luminance" maskUnits="userSpaceOnUse" x="-2" y="264" width="1032" height="142"><path d="M1029.45 264.462H-1.36v140.574h1030.81V264.462Z" fill="#fff"/></mask><g mask="url(#b)"><path d="M379.174 405.048c-11.559-10.814-55.967-49.286-102.765-49.286-46.799 0-93.708 38.445-106.009 49.286h208.774Z" fill="#619887"/><path d="M-1.36 405.048h262.375c-3.834-4.191-97.899-105.95-197.736-105.95C-36.558 299.098-141 405.185-141 405.185H-1.36v-.151.014Z" fill="#408F6D"/><path d="M39.913 353.521c5.14 4.644 9.869 9.591 14.116 14.812 4.137 5.304 7.889 10.8 11.05 16.57 3.519 6.458 6.322 13.218 8.535 20.143h40.353c-4.866-12.97-11.38-25.46-19.668-36.809-5.003-6.843-10.665-13.204-16.7-19.14a165.417 165.417 0 0 0-19.64-16.007c-13.895-9.577-29.11-16.9-44.778-22.259a197.609 197.609 0 0 0-6.308-2.033c-9.662 3.16-19.146 6.966-28.354 11.198 1.786.549 3.573 1.126 5.346 1.731 7.023 2.404 13.868 5.18 20.451 8.354 13.153 6.348 25.262 14.193 35.611 23.427l-.014.013Z" fill="#6DDBBF"/><path d="M1029.45 405.048v3.531h10.62s-94.583-96.18-195.08-96.18c-88.939 0-178.193 75.323-197.545 92.649h382.015-.01Z" fill="#619887"/><path d="M722.048 405.047c-8.796-8.629-80.073-76.203-155.501-76.203-75.428 0-151.144 67.574-160.518 76.203h316.019Z" fill="#408F6D"/><path d="M750.965 405.048c-2.405-5.455-5.291-15.513-10.418-18.398-5.167-2.913-13.18-1.374-14.898 4.3-1.32-9.782-4.247-19.675-10.583-27.246-6.336-7.571-16.644-12.366-26.265-10.14-11.944 2.775-19.256 14.922-22.692 26.683-.495-3.861-5.772-5.441-9.277-3.724-3.505 1.704-5.525 5.373-7.339 8.821-3.423-8.614-16.136-10.263-23.627-4.795-7.449 5.441-10.335 15.265-10.624 24.499h135.723ZM513.811 405.049c-1.058-3.16-3.849-5.702-7.133-6.375-3.533-.714-7.408.756-9.566 3.655-1.691-2.542-3.478-5.18-6.144-6.664s-6.501-1.36-8.315 1.085c-.096-7.653-4.769-15.086-11.628-18.48-10.033-4.974-23.475-1.786-25.674 10.278-1.388-10.14-3.889-20.899-11.476-27.769-5.814-5.262-13.057-6.403-20.602-6.499-4.632-.055-9.374.247-13.689 1.951-11.889 4.727-17.084 18.371-20.988 30.544-3.986-8.835-14.871-13.877-24.203-11.225-9.319 2.651-15.916 12.682-14.651 22.286-2.928-3.586-7.78-5.51-12.37-4.905-4.426.591-11.078 5.908-10.72 12.118h197.173-.014Z" fill="#358071"/></g><path d="M714.739 474.781c-.632-2.597-2.859-4.754-5.484-5.29-2.625-.536-5.511.563-7.119 2.721-1.251-1.897-2.584-3.861-4.577-4.961-1.993-1.099-4.838-1.016-6.185.811-.069-5.702-3.546-11.226-8.645-13.754-7.463-3.696-17.455-1.332-19.104 7.654-1.031-7.544-2.886-15.554-8.535-20.652-4.33-3.916-9.704-4.768-15.325-4.836-3.45-.041-6.968.178-10.184 1.456-8.838 3.518-12.714 13.658-15.614 22.726-2.968-6.568-11.064-10.332-18.004-8.354-6.928 1.979-11.834 9.426-10.9 16.571-2.171-2.666-5.786-4.095-9.194-3.641-3.409.453-8.645 4.712-7.931 9.549h146.801Z" fill="#507E6B"/><path d="M974.008 475.001c-2.405-5.455-5.291-15.513-10.418-18.398-5.168-2.913-13.18-1.374-14.898 4.3-1.32-9.783-4.247-19.675-10.583-27.246-6.336-7.571-16.644-12.366-26.265-10.14-11.944 2.761-19.256 14.921-22.692 26.683-.495-3.861-5.772-5.441-9.277-3.724-3.505 1.704-5.525 5.373-7.34 8.821-3.422-8.615-16.135-10.263-23.626-4.795-7.449 5.441-10.335 15.265-10.624 24.499h135.723Z" fill="#358071"/><path d="M239.618 474.781c-.274-10.209-3.463-21.132-11.71-27.151-8.246-6.018-22.251-4.204-26.031 5.29-1.993-3.792-4.233-7.831-8.095-9.714-3.862-1.882-9.676-.151-10.226 4.108-3.793-12.956-11.847-26.353-25-29.403-10.597-2.46-21.95 2.83-28.932 11.17-6.982 8.341-10.212 19.237-11.668 30.009-1.883-6.266-10.707-7.956-16.411-4.741-5.704 3.202-8.879 14.469-11.545 20.432h149.618Z" fill="#50A37F"/><path d="M778.826 302.989s3.251.239 3.744.289c.494.049 1.498.887 2.548 1.949 1.054 1.06 1.927 2.966 1.851 3.22-.076.254-.029.531-.581.986-.554.456-1.27.578-1.27.578s-.42.841-1.31.928c0 0-.432.777-1.451.724 0 0-.443.747-1.176.651 0 0-1.007-.837-1.483-1.042-.475-.204-2.431-2.087-3.981-4.182 0 0-.703-2.487 3.109-4.101Z" fill="#D9997A"/><path d="M778.568 307.868c-.078 0-.16-.006-.239-.015l.021-.149c1.085.146 2.253-.887 2.265-.899l.099.111c-.047.041-1.074.952-2.146.952Z" fill="#A1725B"/><path d="M786.072 308.671s-2.589-2.475-3.106-2.11c-.513.367-.484.773-.484.773l-1.602-.537s-1.323.216-.789 1.471c0 0-1.249.085-.572 1.229 0 0-.823.394-.615.984.207.589 1.949 2.113 1.949 2.113s.537.157 1.109-.616c0 0 .914.099 1.369-.683 0 0 .753-.029 1.238-.876 0 0 1.684-.184 1.748-1.477 0 0-.14-.169-.248-.271h.003Z" fill="#D9997A"/><path d="M784.359 310.094s-.858-.624-1.629-1.468l.111-.102c.762.835 1.6 1.442 1.606 1.448l-.088.122ZM782.985 311.017c-.017-.015-1.733-1.334-2.606-2.373l.114-.097c.861 1.028 2.565 2.338 2.583 2.353l-.091.12v-.003ZM781.673 311.788c-.056-.04-1.399-1.021-1.898-1.768l.126-.082c.484.727 1.847 1.722 1.862 1.731l-.087.122-.003-.003Z" fill="#A1725B"/><path d="M650.832 433.262a44.557 44.557 0 0 1-17.451-3.523 44.667 44.667 0 0 1-14.25-9.608 44.749 44.749 0 0 1-9.608-14.25A44.557 44.557 0 0 1 606 388.43a44.56 44.56 0 0 1 3.523-17.451 44.662 44.662 0 0 1 9.608-14.249 44.686 44.686 0 0 1 31.701-13.132 44.557 44.557 0 0 1 17.451 3.523 44.653 44.653 0 0 1 14.25 9.609 44.695 44.695 0 0 1 13.131 31.7 44.557 44.557 0 0 1-3.523 17.451 44.667 44.667 0 0 1-9.608 14.25 44.749 44.749 0 0 1-14.25 9.608 44.557 44.557 0 0 1-17.451 3.523Zm0-87.384c-23.464 0-42.552 19.088-42.552 42.552s19.088 42.553 42.552 42.553 42.553-19.089 42.553-42.553-19.089-42.552-42.553-42.552Z" fill="#353A3D"/><path d="M650.832 430.937a42.259 42.259 0 0 1-16.544-3.339 42.285 42.285 0 0 1-13.507-9.11 42.302 42.302 0 0 1-9.107-13.508 42.275 42.275 0 0 1-3.342-16.543 42.219 42.219 0 0 1 3.342-16.544 42.324 42.324 0 0 1 9.107-13.508 42.38 42.38 0 0 1 30.051-12.451 42.21 42.21 0 0 1 16.543 3.342 42.29 42.29 0 0 1 13.509 9.109 42.395 42.395 0 0 1 9.109 13.508 42.272 42.272 0 0 1 3.342 16.544 42.21 42.21 0 0 1-3.342 16.543 42.291 42.291 0 0 1-9.109 13.508 42.375 42.375 0 0 1-13.509 9.11 42.25 42.25 0 0 1-16.543 3.339Zm0-82.72c-22.177 0-40.22 18.043-40.22 40.22s18.043 40.22 40.22 40.22 40.22-18.043 40.22-40.22-18.043-40.22-40.22-40.22Z" fill="#FFD6F2"/><path d="m690.256 319.824-2.202.598 21.651 79.692 2.203-.599-21.652-79.691Z" fill="#EDDAD3"/><path d="M673.86 312.718s-.499 7.271 6.275 8.068c6.772.797 18.922 0 18.922 0s-17.328-12.052-25.197-8.068Z" fill="#857E83"/><path d="M741.825 294.365s.832 16.52-5.963 35.407c-6.795 18.888-12.093 31.278-13.59 36.172-1.5 4.898-11.115 33.575-11.115 33.575l-5.694-3.576s4.997-31.192 4.722-38.028c-.277-6.935 8.29-20.452 7.893-23.648-.4-3.199-.8-45.565 0-51.361.8-5.797 23.75 11.459 23.75 11.459h-.003Z" fill="#EEA987"/><path d="M718.076 282.91s-9.393 5.896-14.191 12.691c-4.795 6.795-20.385 22.682-28.977 23.983-5.634.853-16.389 8.593-24.681 14.588-8.293 5.995-15.096 8.833-15.096 8.833l2.455 5.402s40.322-16.634 43.019-18.23c2.697-1.6 15.688-7.195 17.886-9.294 2.198-2.098 31.911-7.361 43.335-26.514s-23.75-11.459-23.75-11.459Z" fill="#EEA987"/><path d="M756.182 253.48s6.094 20.904 7.361 23.297c1.267 2.391 16.987 27.446 16.987 27.446l-5.195 1.73s-18.785-24.514-19.518-25.848c-.732-1.331-8.66-23.648-8.66-23.648l9.028-2.98-.003.003Z" fill="#D9997A"/><path d="m711.216 399.372-1.045 2.569-5.187-2.42.476-3.575 5.756 3.426Z" fill="#EEA987"/><path d="M710.759 400.491s2.055 4.162 3.975 5.07c1.921.911 7.242 4.65 7.09 5.797-.149 1.147.849 4.594-10.344.084-11.057-4.454-11.885-5.122-10.788-7.031 1.094-1.909 3.056-4.32 4.293-6.106l5.777 2.186h-.003ZM637.684 348.622s-1.477 4.399-.756 6.398c.721 1.999 1.856 8.403.939 9.112-.916.71-2.635 3.859-7.396-7.232-4.699-10.954-4.813-12.014-2.691-12.595 2.122-.581 5.213-.908 7.35-1.305l2.554 5.622Z" fill="#EDDAD3"/><path d="M743.357 203.566s9.793 5.096 6.197 18.385c-3.596 13.289-12.991 12.991-16.587 1.398-3.599-11.59-.999-23.184 10.393-19.786l-.003.003Z" fill="#EEA987"/><path d="M742.803 236.844s8.143 4.247 9.293 6.646c1.15 2.4 5.131 14.209 4.953 15.738-.598 5.096-6.252 7.645-6.351 9.145-.099 1.5-.484 7.279-1.815 11.275-1.334 3.999-7.061 14.722-7.061 14.722s-13.257.032-23.75-11.459c0 0 4.297-6.094 4.396-11.792.099-5.694-1.824-19.806-.998-24.681.849-5.005 9.891-10.093 10.992-10.892 1.1-.8 10.341 1.298 10.341 1.298Z" fill="#EB4747"/><path d="M724.147 242.137c1.982-1.705 9.013-2.198 11.214 7.095 2.198 9.293 9.194 27.979 10.391 29.678 1.199 1.699 25.784 26.14 25.784 26.14l-3.61 3.526s-27.2-18.607-28.598-21.205c-1.398-2.597-16.261-29.745-16.36-31.545-.099-1.798-3.818-9.39 1.179-13.689Z" fill="#EEA987"/><path d="M741.824 294.369s2.333 19.617-4.961 41.902c0 0-23.383-8.494-28.68-10.193-5.295-1.698-25.481-14.588-25.481-17.288 0 0 12.79-3.496 16.987-9.392 4.197-5.896 19.031-17.483 19.031-17.483l23.104 12.454Z" fill="#EBEBEB"/><path d="M746.798 239.125s8.298 3.809 10.256 14.001l-6.713 2.697s-11.593-16.812-3.546-16.701l.003.003Z" fill="#EB4747"/><path d="M741.551 245.332c-4.53.402-8.596-4.262-9.095-9.79 0 0 1.693-7.11 1.302-10.02-.403-2.898 7.659 6.465 7.659 6.465s-.111.841-.17 1.815c-.061 1.06-.073 2.265.17 2.741l1.389.304s3.275 8.085-1.255 8.485Z" fill="#EEA987"/><path d="M739.959 209.029s9.565 6.319 10.28 9.323c0 0 3.377-5.059-1.153-13.52-4.53-8.462-15.455-8.526-21.517-3.132-6.062 5.397-7.461 16.12-15.388 16.322-7.927.198-12.991-3.398-14.856 5.796-1.865 9.194-12.259 1.466-14.323 8.66-2.066 7.195 7.128 16.987 20.186 8.327 13.059-8.659 15.388-1.167 20.435-1.167 5.046 0 11.149-.196 10.198-13.286-.955-13.094 6.141-17.323 6.141-17.323h-.003Z" fill="#FCCCA2"/><path d="M723.62 260.921s13.105-6.13 14.587-6.13c0 0-2.688-17.428-13.56-13.178 0 0-8.041 4.186-1.03 19.308h.003Z" fill="#EB4747"/><path d="m788.4 332.221-1.439-1.768c.102-.085 7.18-5.94 7.591-12.204.158-2.367-.642-4.451-2.443-6.363-1.932-2.054-4.17-3.111-6.651-3.137-5.812-.061-11.232 5.394-11.284 5.449l-.047.047-6.804 6.188-1.535-1.687 6.78-6.168c.485-.487 6.206-6.109 12.79-6.109h.114c3.132.032 5.922 1.328 8.301 3.856 2.227 2.37 3.257 5.09 3.056 8.085-.484 7.273-8.105 13.552-8.429 13.817v-.006Z" fill="#EDDAD3"/><path d="m715.622 412.884-14.087-5.743-.66 1.619 14.087 5.743.66-1.619Z" fill="#FFD6F2"/><path d="m711.514 400.154-3.557 9.983.753.269 3.557-9.984-.753-.268Z" fill="#FFD6F2"/><path d="M785.318 433.262a44.56 44.56 0 0 1-17.451-3.523 44.662 44.662 0 0 1-14.249-9.608 44.686 44.686 0 0 1-13.132-31.701 44.56 44.56 0 0 1 3.523-17.451 44.649 44.649 0 0 1 9.609-14.249 44.682 44.682 0 0 1 31.7-13.132 44.565 44.565 0 0 1 17.452 3.523 44.649 44.649 0 0 1 14.249 9.609 44.715 44.715 0 0 1 9.609 14.249 44.577 44.577 0 0 1 3.522 17.451 44.686 44.686 0 0 1-13.131 31.701 44.695 44.695 0 0 1-31.701 13.131Zm0-87.384c-23.463 0-42.552 19.088-42.552 42.552s19.089 42.553 42.552 42.553c23.464 0 42.553-19.089 42.553-42.553s-19.089-42.552-42.553-42.552Z" fill="#353A3D"/><path d="M785.316 430.937a42.25 42.25 0 0 1-16.543-3.339 42.29 42.29 0 0 1-13.508-9.11 42.376 42.376 0 0 1-9.11-13.508 42.272 42.272 0 0 1-3.339-16.543 42.27 42.27 0 0 1 3.339-16.544 42.365 42.365 0 0 1 9.11-13.508 42.384 42.384 0 0 1 30.051-12.451 42.212 42.212 0 0 1 16.544 3.342 42.286 42.286 0 0 1 13.508 9.109 42.337 42.337 0 0 1 9.106 13.508 42.252 42.252 0 0 1 3.339 16.544 42.243 42.243 0 0 1-3.339 16.543 42.315 42.315 0 0 1-9.106 13.508 42.37 42.37 0 0 1-13.508 9.11 42.251 42.251 0 0 1-16.544 3.339Zm0-82.72c-22.176 0-40.22 18.043-40.22 40.22s18.044 40.22 40.22 40.22c22.177 0 40.221-18.043 40.221-40.22s-18.044-40.22-40.221-40.22Z" fill="#FFD6F2"/><path d="m767.109 317.166-2.202.6 19.332 70.909 2.202-.6-19.332-70.909Z" fill="#EDDAD3"/><path d="M768.05 317.063h-4.121v2.134h4.121v-2.134Z" fill="#EDDAD3"/><path d="M788.323 388.433a3.006 3.006 0 1 1-6.012 0 3.006 3.006 0 1 1 6.012 0Z" fill="#5B83C2"/><path d="m711.225 401.064-62.281-12.376 41.823-63.281h77.181v2.282h-75.955l-39.272 59.423 57.663 11.459 58.559-66.264 1.36 1.906-59.078 66.851Z" fill="#EDDAD3"/><path d="M711.334 412.312c-.759 0-1.529-.07-2.303-.213-6.824-1.267-11.348-7.849-10.081-14.676 1.267-6.824 7.848-11.348 14.675-10.081a12.498 12.498 0 0 1 8.08 5.251 12.514 12.514 0 0 1 2.002 9.425c-1.124 6.05-6.427 10.291-12.373 10.291v.003Zm-.009-22.329c-4.599 0-8.7 3.281-9.567 7.96-.981 5.277 2.519 10.37 7.796 11.348 5.277.981 10.37-2.516 11.348-7.796a9.668 9.668 0 0 0-1.547-7.288 9.681 9.681 0 0 0-6.249-4.06 9.755 9.755 0 0 0-1.781-.164Z" fill="#F0A3D6"/><path d="m714.321 387.423-4.157 11.945.755.263 4.157-11.945-.755-.263Z" fill="#FFD6F2"/><path d="m722.13 387.438-15.193-.754-.087 1.746 15.194.754.086-1.746Z" fill="#FFD6F2"/><path d="M713.29 400.088a1.994 1.994 0 1 1-3.921-.727 1.994 1.994 0 0 1 3.921.727Z" fill="#5B83C2"/><path d="M771.537 305.051s1.87.826 2.743.783c.873-.044 6.232-.578 6.929.344.698.922 5.841 6.115 5.143 6.9-.697.785-1.22.394-1.57 0-.35-.394-4.314-3.733-4.796-3.786 0 0 3.532 3.961 2.919 5.14-.61 1.179-1.699.96-2.352 1.179-.654.219-1.743 1.048-2.919.523-1.176-.523-5.762-4.758-6.85-5.455-1.089-.698-3.871-2.563-3.915-2.826-.043-.262 4.668-2.799 4.668-2.799v-.003Z" fill="#EEA886"/><path d="M653.839 388.433a3.006 3.006 0 1 1-6.012 0 3.006 3.006 0 0 1 6.012 0Z" fill="#5B83C2"/><path d="M213.424 426.856c0 3.708-36.139 6.722-80.712 6.722S52 430.564 52 426.856c0-3.708 36.14-6.723 80.712-6.723 44.573 0 80.712 3.015 80.712 6.723Z" fill="#D3D9C6"/><path d="M101.041 390.571c-1.752-3.015-3.477-6.003-6.247-7.986.136 0 .272-.027.407-.081.72-.313.802-1.277.856-2.065.054-.787.421-1.765 1.209-1.752.312 0 .597.177.896.218.924.149 1.657-.815 1.834-1.739.176-.923.027-1.888.366-2.757.72-1.833 3.328-2.662 3.463-4.631.109-1.507-1.385-2.77-1.331-4.278.041-1.154.965-2.064 1.739-2.906.774-.856 1.507-2.037 1.073-3.11-.204-.503-.611-.883-.869-1.345-.245-.475-.231-1.181.244-1.426a4.042 4.042 0 0 0-.53-.434 198.18 198.18 0 0 0 53.564.176c4.509-.597 9.14-1.344 13.554-.244 2.689.679 5.16 2.023 7.809 2.825 8.447 2.594 17.709-.503 25.057-5.419 7.333-4.903 13.336-11.544 20.14-17.167 1.331-1.1 3.396-2.132 4.577-.869.706.747.611 1.901.462 2.906a52.78 52.78 0 0 1-6.954 19.258c-2.879 4.781-6.749 9.276-11.937 11.313-8.421 3.301-17.778-.543-25.994-4.332 1.738 7.823 3.476 15.74 3.259 23.753-.095 3.26-.462 6.75 1.127 9.616.978 1.765 2.594 3.069 3.83 4.671 4.835 6.22 2.974 15.456-1.168 22.151-.557.91-1.29 1.874-2.336 2.024-1.779.244-2.933-2.065-2.553-3.817.367-1.765 1.603-3.218 2.146-4.93 1.385-4.318-1.915-8.841-5.813-11.163-3.87-2.309-8.42-3.328-12.209-5.772-.014 0-.041-.027-.068-.041-4.74-3.083-7.945-8.42-8.448-14.056-3.395-.38-6.695.869-9.669 2.675a29.663 29.663 0 0 0-2.608 1.793c-3.612 2.757-6.872 6.084-10.932 8.108-2.105 1.046-4.374 1.725-6.492 2.716-2.119 1.005-4.169 2.417-5.297 4.468-1.141 2.092-1.195 4.563-1.453 6.94a39.086 39.086 0 0 1-2.078 9.072c-.516 1.44-1.127 2.879-2.118 4.047-2.676 3.165-7.293 3.613-11.422 3.857-.733.041-1.657-.04-1.915-.733-.177-.475.082-.978.38-1.385.856-1.141 2.092-1.915 3.097-2.934 3.476-3.517 3.599-9.058 3.504-14.015-.041-2.309-.123-4.699-1.141-6.764-.951-1.887-2.553-3.259-4.265-4.549-1.331-1.005-2.716-1.97-3.911-3.11-1.996-1.915-3.422-4.36-4.848-6.791l.013.014Z" fill="#8B5127"/><path d="m170.725 401.243-.081.149c-.299 5.229-.815 10.553-2.961 15.333-2.132 4.781-6.193 8.991-11.313 10.036-1.127.231-2.703 0-2.852-1.127-.081-.584.299-1.141.666-1.602 2.743-3.531 6.138-7.022 6.532-11.476.693-7.972-8.583-14.247-7.85-22.219l-.299-.502c2.975-1.82 6.275-3.056 9.67-2.676.489 5.636 3.694 10.974 8.447 14.057.014 0 .041.027.068.04l-.027-.013ZM105.875 397.36c1.196 1.14 2.581 2.105 3.912 3.11a160.493 160.493 0 0 1-14.002 15.129c-2.58 2.444-5.256 4.835-8.271 6.722-3.015 1.888-6.397 3.273-9.941 3.586-.842.068-1.725.081-2.472-.299-.747-.367-1.331-1.222-1.127-2.051.149-.611.679-1.059 1.181-1.439 1.874-1.372 3.925-2.486 5.826-3.817 5.582-3.884 9.752-9.438 13.676-15.007 2.757-3.924 5.501-8.04 6.411-12.739 1.412 2.431 2.852 4.876 4.848 6.791l-.041.014Z" fill="#6B3C27"/><path d="M75.876 358.735a74.172 74.172 0 0 1-2.96 12.006c-.408 1.222-.87 2.498-.653 3.762.285 1.67 1.739 2.987 3.368 3.476 1.63.489 3.396.285 5.025-.163 1.86-.502 3.776-1.453 4.563-3.205.747-1.616.354-3.49-.135-5.201a57.659 57.659 0 0 0-1.657-4.971c-.856-2.227-1.874-4.468-3.626-6.084-.584-.557-1.345-1.046-2.146-.951-.774.082-1.331.638-1.78 1.317v.014Zm28.289-2.458c.19.136.367.271.53.434-.476.231-.489.951-.245 1.426.245.476.666.856.869 1.345.421 1.073-.298 2.254-1.073 3.11-.774.856-1.697 1.752-1.738 2.906-.054 1.508 1.44 2.771 1.331 4.278-.149 1.97-2.757 2.798-3.463 4.631-.34.87-.19 1.847-.367 2.757-.176.924-.91 1.888-1.833 1.739-.299-.041-.584-.218-.897-.218-.787 0-1.14.965-1.208 1.752-.055.775-.136 1.739-.856 2.065a1.095 1.095 0 0 1-.407.081c-.57 0-1.155-.448-1.644-.828-3.748-3.015-9.194-3.735-13.594-1.793-1.643.72-3.287 1.806-5.066 1.548-1.453-.203-2.703-1.412-2.974-2.838-.055-.272-.082-.557-.258-.761-.353-.394-.992-.19-1.48 0-1.929.802-4.034 1.263-6.112 1.019-2.064-.245-4.102-1.236-5.364-2.893-.462-.597-.815-1.331-.788-2.091.054-1.426 1.399-2.391 2.54-3.26a20.229 20.229 0 0 0 6.097-7.782c1.046-2.336 1.684-4.93 3.436-6.79 1.603-1.698 3.952-2.526 6.275-2.744 2.322-.203 4.658.136 6.98.489 3.532.544 7.076 1.073 10.607 1.603 3.029.448 6.18.91 9.154.19.557.109 1.113.34 1.575.652l-.027-.027Z" fill="#694227"/><path d="M61.303 378.256c.163-.313.3-.639.394-.965.258-.991.163-2.037 0-3.055-.23-1.358-.611-2.717-1.195-3.966-.15.122-.285.272-.448.394-1.127.869-2.472 1.833-2.54 3.259-.027.761.326 1.494.788 2.092.774 1.018 1.833 1.738 3.015 2.241h-.014Z" fill="#472D27"/><path d="M85.083 369.439c.49 1.698.87 3.585.136 5.201-.801 1.752-2.716 2.703-4.563 3.206-1.644.448-3.396.651-5.025.163-1.63-.503-3.07-1.807-3.368-3.477-.218-1.277.23-2.553.652-3.762a74.493 74.493 0 0 0 2.96-12.006c.448-.665 1.005-1.236 1.78-1.317.8-.082 1.561.407 2.145.951 1.752 1.616 2.77 3.857 3.626 6.084a59.19 59.19 0 0 1 1.657 4.971v-.014Z" fill="#8B5127"/><path d="M781.436 465.465c24.869 0 45.029-2.339 45.029-5.224 0-2.886-20.16-5.225-45.029-5.225-24.868 0-45.028 2.339-45.028 5.225 0 2.885 20.16 5.224 45.028 5.224Z" fill="#D3D9C6"/><path d="m764.864 442.95 3.67 14.033 4.726 3.657h-8.396l-7.873-12.806 7.873-4.884ZM799.553 438.259c-1.033 1.069-14.228 18.723-14.228 18.723l3.038 3.73h6.694l-2.357-3.997 11.676-6.95-4.811-11.518-.012.012Z" fill="#A6A7AD"/><path d="M824.011 412.054s-7.776 7.958-10.473 15.759c-2.697 7.788-5.917 15.758-25.503 15.588-19.598-.17-34.057 2.564-39.148-4.544-1.822-2.552-4.75-6.938-3.863-11.883 1.591-8.967 12.04-15.989 21.299-15.868 14.507.207 34.956-.036 38.601-2.867l19.087 3.815Z" fill="#fff"/><path d="M806.308 407.336c1.263 1.665 7.119 8.979 13.595 10.145.462.085.705.571.438.96l-2.77 4.107a1.841 1.841 0 0 1-1.859.79c-2.637-.462-9.089-2.673-15.99-13.074-.413-.62-.085-1.446.632-1.652l5.273-1.483a.612.612 0 0 1 .681.219v-.012Z" fill="#F3C623"/><path d="M819.564 392.368s6.768.28 10.607 6.877c3.84 6.598 8.445 4.398 10.559 6.719 2.114 2.333 1.348 9.489-8.068 9.866-9.404.377-21.433-.948-21.433-.948v-16.585l2.807-3.961 5.528-1.98v.012Z" fill="#fff"/><path d="M842.248 404.825c.839 1.142.802 2.564-.085 3.196-.887.632-2.284.218-3.122-.924-.839-1.142-.802-2.563.085-3.195.887-.632 2.284-.219 3.122.923ZM819.564 392.428s-4.265.401-4.872 7.764c-.608 7.363 3.037 24.3-7.509 25.297-7.582.716-7.934-11.033-7.533-17.691a12.978 12.978 0 0 1 3.451-8.068c3.633-3.9 10.048-9.27 16.463-7.314v.012Z" fill="#27235A"/><path d="M810.002 430.423s-1.75 7.375 1.227 14.592a351.775 351.775 0 0 1 5.492 14.289h-5.492s-11.725-11.519-14.24-19.671l13.001-9.222.012.012ZM768.983 439.485l-16.913 12.526c-1.373 1.021-2.503 2.357-3.135 3.925-.607 1.519-.838 3.28.644 4.289h-6.415s-4.666-7.436 10.352-24.033l15.467 3.293ZM754.962 418.441s-1.166-6.609-10.242-8.456c-9.077-1.847-14.398-3.998-13.924-15.516-2.151.741-3.755 2.527-4.18 4.714-.814 4.253-.753 11.069 6.84 14.034 0 0-5.479 1.992-8.456-1.227 0 3.025 2.053 5.662 5.018 6.476 3.438.935 8.189 1.385 12.818-.948 8.7-4.386 11.421 3.536 11.421 3.536l.693-2.613h.012Z" fill="#fff"/><path d="M894.883 62c-9.108 0-16.5 7.616-16.5 17 0 9.385 7.392 17 16.5 17s16.5-7.615 16.5-17c0-9.384-7.392-17-16.5-17Z" fill="#FFCE2F"/><path d="M911.246 88.93c-3.502 0-6.642 1.501-8.848 3.884-2.257-2.486-5.474-4.066-9.081-4.066-1.479 0-2.906.31-4.229.777-1.116-9.039-8.77-16.083-18.137-16.083-10.145 0-18.37 8.21-18.37 18.336v.26c-1.22-.415-2.517-.7-3.892-.7-2.854 0-5.449 1.036-7.525 2.668-2.05-2.59-5.189-4.3-8.744-4.3-4.982 0-9.159 3.29-10.586 7.822-.26 0-.519-.078-.779-.078a9.831 9.831 0 0 0-9.055 5.983h111.078c.156-.777.234-1.58.234-2.409 0-6.682-5.423-12.095-12.118-12.095h.052ZM651.525 232.999a8.75 8.75 0 0 0-6.331 3.393 9.518 9.518 0 0 0-1.92-.207v-.052c0-6.915-5.631-12.535-12.559-12.535-6.927 0-12.558 5.62-12.558 12.535 0 .156.026.285.052.44a8.96 8.96 0 0 0-3.347-.414c-2.283.155-4.255 1.165-5.734 2.694-.986-.285-2.05-.441-3.14-.363a8.808 8.808 0 0 0-6.331 3.367h61.338c0-.207.026-.415 0-.622-.337-4.895-4.566-8.572-9.47-8.236ZM627.446 74.113a8.746 8.746 0 0 0-6.331 3.392 9.482 9.482 0 0 0-1.92-.207v-.052c0-6.914-5.631-12.535-12.559-12.535-6.927 0-12.558 5.62-12.558 12.535 0 .156.026.285.052.44a8.952 8.952 0 0 0-3.347-.414c-2.283.156-4.255 1.166-5.734 2.694-.986-.285-2.05-.44-3.14-.363a8.808 8.808 0 0 0-6.331 3.367h61.338c0-.207.026-.414 0-.621-.337-4.895-4.566-8.573-9.47-8.236ZM262.375 64.758c-2.672 0-5.033 1.14-6.72 2.953-1.712-1.89-4.151-3.082-6.902-3.082-1.141 0-2.205.233-3.191.596-.856-6.89-6.668-12.224-13.778-12.224-7.706 0-13.959 6.241-13.959 13.933v.181c-.934-.31-1.92-.518-2.958-.518-2.18 0-4.126.777-5.708 2.02-1.557-1.968-3.944-3.263-6.643-3.263-3.788 0-6.954 2.512-8.043 5.931-.208 0-.39-.052-.597-.052A7.454 7.454 0 0 0 187 75.791h84.379c.13-.595.181-1.19.181-1.838 0-5.077-4.125-9.195-9.211-9.195h.026Z" fill="#EDEDED"/><path d="m383.008 209.495-23.299 21.143-18.156 16.476s-14.515-7.038-6.429-15.588c3.84-4.064 8.234-7.82 12.685-11.147 11.4-8.518 23.184-14.204 27.027-14.88 5.346-.942 8.172 3.996 8.172 3.996Z" fill="#323657"/><path d="m359.708 230.638-17.883 17.723s-15.261-8.631-7.179-17.181c3.84-4.064 8.641-7.544 13.163-10.801l11.903 10.259h-.004Z" fill="#73A5F5"/><path d="m440.925 324.69-1.587-1.949c.113-.093 7.91-6.544 8.365-13.444.173-2.609-.708-4.901-2.692-7.009-2.128-2.266-4.596-3.426-7.326-3.458-6.404-.068-12.371 5.941-12.432 6.002l-.051.052-7.493 6.816-1.692-1.859 7.47-6.794c.532-.538 6.836-6.73 14.089-6.73h.125c3.448.035 6.525 1.465 9.143 4.25 2.455 2.608 3.586 5.605 3.369 8.906-.536 8.012-8.929 14.928-9.285 15.22l-.003-.003Zm-.795-.975-.795-.974.792.974h.003Z" fill="#353A3D"/><path d="M368.665 410.297h-16.759v1.926h16.759v-1.926Z" fill="#73A5F5"/><path d="m364.508 393.684.459 5.035-12.435.92-.824-5.955h12.8Z" fill="#333859"/><path d="M429.949 292.403s2.079.916 3.047.868c.968-.048 6.926-.641 7.698.382.776 1.022 6.49 6.794 5.715 7.666-.776.871-1.356.436-1.744 0-.387-.436-4.794-4.147-5.326-4.208 0 0 3.923 4.4 3.243 5.711-.679 1.307-1.888 1.067-2.615 1.307-.728.244-1.936 1.164-3.243.584-1.308-.584-6.295-6.013-7.506-6.788-1.212-.776-4.407-1.987-4.455-2.279-.048-.291 5.186-3.243 5.186-3.243ZM393.196 206.465s-2.577 2.359-4.561 2.221c-1.984-.137 5.512 15.297 5.512 15.297s6.699-9.31 8.474-9.861c1.776-.551-9.425-7.657-9.425-7.657Z" fill="#EEA886"/><path d="m388.636 208.684 2.035-.5 5.544 13.015-1.24 4.33-6.339-16.845Z" fill="#D4D4D4"/><path d="M386.255 248.364s-18.172 14.242-21.749 21.04c-3.579 6.797-19.363-11.394-19.363-11.394l41.112-9.646Z" fill="#EDDCC5"/><path d="m364.747 268.967-.561 1.84-.686 2.448h-.003c-.292-.153-18.912-10.015-20.46-10.287-1.561-.276 4.679-3.327 4.679-3.327l17.034 9.329-.003-.003Z" fill="#323657"/><path d="M356.799 297.149s2.112 34.914 2.295 37.395c.182 2.48.916 13.874.551 15.71-.368 1.836 5.875 43.365 5.875 43.365l-15.333.981s-6.38-42.814-7.573-48.419c-1.192-5.606-13.986-56.659-14.079-60.886-.093-4.228 28.264 11.851 28.264 11.851v.003Z" fill="#272A45"/><path d="M418.191 190.934s.827 8.175-.827 9.553c-1.65 1.378 1.193 7.811 0 8.362-1.192.551-3.304.92-3.394 1.195-.092.276-5.323 8.086-7.249 7.442-1.926-.644-14.223-6.983-13.489-11.393.734-4.41 1.561-14.426 1.561-16.355 0-1.929 12.848-11.025 23.401 1.196h-.003Z" fill="#EEA886"/><path d="m430.889 290.364.913 1.147-6.957 5.24-1.728-2.025 7.772-4.362Z" fill="#D4D4D4"/><path d="m359.703 370.632-3.41 3.555s-8.121-7.349-8.121-7.487c0-.138 2.891-3.996 2.891-3.996l8.64 7.928Z" fill="#3D436B"/><path d="M364.92 397.896s3.625 3.936 4.91 4.257c1.285.32 7.813 2.922 10.611 3.015 2.798.093 5.218.959 4.666 3.763-.551 2.801-22.85 1.631-22.85 1.631s-1.103-1.147-1.606-.965c-.503.183-.872 1.129-.872 1.129l-9.092-.148s-.481-7.618 1.904-11.294c0 0 8.842-1.48 9.528-1.849.689-.369 2.798.458 2.798.458l.003.003Z" fill="#4D5485"/><path d="M403.234 182.673c-1.4.304-2.618.747-3.676 1.282-1 .016-6.964.234-7.131 3.307-.227 4.131 1.013 16.044 1.032 17.239 0 .161.125-.089.318-.641 1.842-3.172 7.621-5.054 7.621-5.054h2.631c-.183-2.634 1.163-4.413 1.163-4.413 3.67-1.532 13.179-.676 13.179-.676 4.124-12.255-7.782-12.643-15.137-11.044Z" fill="#323657"/><path d="M401.833 195.683c-.18-1.15-3.314-2.388-4.048.43-.734 2.817 2.08 6.614 3.426 5.82 1.346-.798.814-5.022.622-6.25Z" fill="#EEA886"/><path d="m357.328 398.55-.85.22 2.926 11.299.85-.22-2.926-11.299Z" fill="#73A5F5"/><path d="m327.939 292.835-2.425.658 28.731 105.969 2.425-.657-28.731-105.97Z" fill="#353A3D"/><path d="m355.913 400.519-68.61-13.634 46.073-69.709h85.019v2.516h-83.67l-43.262 65.46 63.52 12.62 64.508-72.994 1.5 2.099-65.078 73.642Z" fill="#353A3D"/><path d="M356.037 412.907c-.837 0-1.686-.077-2.535-.234-7.519-1.394-12.499-8.647-11.105-16.166 1.394-7.518 8.647-12.499 16.165-11.105a13.787 13.787 0 0 1 8.9 5.782 13.777 13.777 0 0 1 2.205 10.381c-1.237 6.666-7.079 11.338-13.63 11.338v.004Zm-.01-24.595c-5.067 0-9.582 3.612-10.54 8.769-1.081 5.814 2.772 11.422 8.589 12.502 5.813 1.08 11.422-2.772 12.502-8.589a10.656 10.656 0 0 0-1.705-8.028 10.652 10.652 0 0 0-6.884-4.471 10.751 10.751 0 0 0-1.962-.183Z" fill="#5B83C2"/><path d="M318.644 286.675s-.548 8.009 6.913 8.887c7.461.878 20.844 0 20.844 0s-19.088-13.275-27.757-8.887Z" fill="#857E83"/><path d="M437.53 435.983a49.116 49.116 0 0 1-19.222-3.881 49.214 49.214 0 0 1-15.698-10.583 49.196 49.196 0 0 1-10.582-15.697c-2.577-6.089-3.882-12.557-3.882-19.223a49.108 49.108 0 0 1 3.882-19.223 49.207 49.207 0 0 1 10.582-15.697 49.214 49.214 0 0 1 15.698-10.583c6.089-2.576 12.556-3.881 19.222-3.881a49.121 49.121 0 0 1 19.223 3.881 49.214 49.214 0 0 1 15.698 10.583 49.223 49.223 0 0 1 10.582 15.697c2.577 6.09 3.881 12.557 3.881 19.223 0 6.666-1.304 13.134-3.881 19.223a49.212 49.212 0 0 1-10.582 15.697 49.214 49.214 0 0 1-15.698 10.583c-6.089 2.577-12.557 3.881-19.223 3.881Zm0-96.261c-25.847 0-46.874 21.027-46.874 46.874s21.027 46.871 46.874 46.871c25.848 0 46.875-21.027 46.875-46.871s-21.027-46.874-46.875-46.874Z" fill="#353A3D"/><path d="M437.529 433.415c-6.32 0-12.451-1.237-18.223-3.679a46.621 46.621 0 0 1-14.88-10.034 46.655 46.655 0 0 1-10.031-14.881c-2.442-5.772-3.679-11.903-3.679-18.223 0-6.32 1.237-12.45 3.679-18.222a46.671 46.671 0 0 1 10.031-14.881 46.688 46.688 0 0 1 14.88-10.034c5.772-2.442 11.903-3.679 18.223-3.679 6.32 0 12.451 1.237 18.223 3.679a46.6 46.6 0 0 1 14.88 10.034 46.642 46.642 0 0 1 10.032 14.881c2.442 5.772 3.679 11.902 3.679 18.222 0 6.32-1.237 12.451-3.679 18.223a46.658 46.658 0 0 1-10.032 14.881 46.666 46.666 0 0 1-14.88 10.034c-5.772 2.442-11.903 3.679-18.223 3.679Zm0-91.124c-24.43 0-44.304 19.874-44.304 44.304 0 24.431 19.874 44.304 44.304 44.304 24.431 0 44.305-19.876 44.305-44.304 0-24.427-19.874-44.304-44.305-44.304Z" fill="#73A5F5"/><path d="M289.384 435.983a49.121 49.121 0 0 1-19.223-3.881 49.199 49.199 0 0 1-15.697-10.583 49.199 49.199 0 0 1-10.583-15.697c-2.577-6.089-3.881-12.557-3.881-19.223a49.125 49.125 0 0 1 3.881-19.223 49.21 49.21 0 0 1 10.583-15.697 49.199 49.199 0 0 1 15.697-10.583c6.089-2.576 12.557-3.881 19.223-3.881a49.125 49.125 0 0 1 19.223 3.881 49.21 49.21 0 0 1 15.697 10.583 49.21 49.21 0 0 1 10.583 15.697c2.576 6.09 3.881 12.557 3.881 19.223a49.121 49.121 0 0 1-3.881 19.223 49.199 49.199 0 0 1-10.583 15.697 49.21 49.21 0 0 1-15.697 10.583c-6.09 2.577-12.557 3.881-19.223 3.881Zm0-96.261c-25.847 0-46.875 21.027-46.875 46.874s21.028 46.871 46.875 46.871 46.874-21.027 46.874-46.871-21.027-46.874-46.874-46.874Z" fill="#353A3D"/><path d="M289.384 433.415c-6.32 0-12.451-1.237-18.223-3.679a46.621 46.621 0 0 1-14.88-10.034 46.631 46.631 0 0 1-10.034-14.881c-2.443-5.772-3.68-11.903-3.68-18.223 0-6.32 1.237-12.45 3.68-18.222a46.598 46.598 0 0 1 10.034-14.881 46.655 46.655 0 0 1 14.88-10.034c5.772-2.442 11.903-3.679 18.223-3.679 6.32 0 12.451 1.237 18.223 3.679a46.6 46.6 0 0 1 14.88 10.034 46.623 46.623 0 0 1 10.031 14.881c2.443 5.772 3.68 11.902 3.68 18.222 0 6.32-1.237 12.451-3.68 18.223a46.639 46.639 0 0 1-10.031 14.881 46.688 46.688 0 0 1-14.88 10.034c-5.772 2.442-11.903 3.679-18.223 3.679Zm0-91.124c-24.431 0-44.304 19.874-44.304 44.304 0 24.431 19.873 44.304 44.304 44.304s44.304-19.876 44.304-44.304c0-24.427-19.873-44.304-44.304-44.304Z" fill="#73A5F5"/><path d="M363.498 273.262s21.29 16.538 25.879 20.672c4.59 4.134 14.775 11.944 14.957 13.598.183 1.654 2.936 6.064-1.836 13.691-4.772 7.628-29.366 36.017-30.927 38.404-1.561 2.388-10.002 12.496-10.002 12.496l-12.115-9.647s24.815-34.18 27.918-37.852c3.102-3.676 5.028-8.179 3.65-10.108-1.375-1.93-11.287-3.952-42.122-20.948-3.079-1.698-14.681-4.592-14.223-9.095.459-4.503-.093-19.386 9.086-22.787 9.176-3.4 29.732 11.576 29.732 11.576h.003Z" fill="#323657"/><path d="M292.698 386.599a3.314 3.314 0 1 1-6.629 0 3.314 3.314 0 0 1 6.629 0Z" fill="#5B83C2"/><path d="m352.146 385.215-.851.227 3.592 13.461.851-.228-3.592-13.46Z" fill="#73A5F5"/><path d="m359.711 390.515-13.063-10.499-1.206 1.501 13.062 10.499 1.207-1.501Z" fill="#73A5F5"/><path d="M348.171 366.699s7.019 4.778 7.57 5.419c.551.645 1.718.85 1.718.85s.599 3.471.875 4.342c.275.872 6.079 9.006 6.858 9.234.779.23 6.179 3.509 5.141 5.589-1.042 2.083-5.888.535-8.948-.936-3.058-1.471-13.429-9.557-14.361-10.964l-.382-1.102s-1.285-.122-1.775-.183c-.491-.061-4.59-3.737-4.59-3.737s4.276-6.147 7.894-8.515v.003Z" fill="#545C91"/><path d="M358.189 399.442a2.198 2.198 0 0 1-4.32-.801 2.199 2.199 0 0 1 2.561-1.76 2.199 2.199 0 0 1 1.759 2.561Z" fill="#5B83C2"/><path d="m417.429 308.199-2.424.661 21.282 78.114 2.424-.66-21.282-78.115Z" fill="#353A3D"/><path d="M418.512 307.977h-4.541v2.349h4.541v-2.349Z" fill="#353A3D"/><path d="M440.843 386.599a3.314 3.314 0 1 1-6.629 0 3.314 3.314 0 0 1 6.629 0Z" fill="#5B83C2"/><path d="M388.634 208.687s-16.383-2-36.029 24.658c-19.649 26.658-12.326 19.704-30.078 37.58l42.449 3.532s13.678-22.501 22.597-26.094c8.92-3.592 7.948-22.235 7.948-22.235l-6.887-17.441Z" fill="#D4D4D4"/><path d="M377.211 231.976c-6.195 0-13.089-3.211-17.454-8.3l2.666-2.285c4.112 4.797 11.092 7.717 16.614 6.948 3.574-.5 6.157-2.423 7.67-5.718 1.221-2.653 1.384-4.961.49-6.858-1.663-3.529-8.169-5.333-8.217-5.346l1.958-3.147c.259.067 7.044 1.955 9.425 6.971 1.369 2.884 1.215 6.198-.464 9.845-2.019 4.391-5.606 7.06-10.375 7.727a16.64 16.64 0 0 1-2.31.157l-.003.006Z" fill="#323657"/><path d="M391.153 219.448s2.683 6.74 4.096 11.458c1.365 4.557 7.249 18.742 7.8 19.844.552 1.103 9.452 15.435 10.461 17.089 1.01 1.654 17.345 22.049 17.71 22.142.369.093-7.618 5.971-7.618 5.971s-20.004-23.889-21.197-26.094c-1.192-2.205-14.316-18.284-16.152-21.498-1.837-3.215-11.445-18.361-12.39-20.947-1.055-2.894-4.266-10.153 4.679-14.333 7.64-3.57 11.368 4.164 12.608 6.368h.003Z" fill="#D4D4D4"/></g><defs><clipPath id="a"><path fill="#fff" d="M0 0h1023v475H0z"/></clipPath></defs></svg>