<svg width="184" height="53" fill="none" xmlns="http://www.w3.org/2000/svg"><path d="M46.846 13.039c-.075-.08-.157-.16-.239-.247H46.6c6.463 7.338 6.717 17.498 1.336 25.302l2.769-.437c3.746-8.13 2.62-17.643-3.86-24.618Z" fill="url(#a)"/><path d="M47.764 39.406c-3.926.254-8.546-1.571-20.958-7.026-13.21-5.803-18.816 1.884-19.413 2.778l-.022.022-.03.058c0 .008 6.418 11.528 19.995 12.764 0 0-13.33.618-20.831-11.39-1.97-3.257-3.098-7.025-3.098-11.04 0-12.195 10.382-22.108 23.317-22.414v-.007c-.12-.007-.24-.007-.359-.007C11.864 3.15.108 14.307.108 28.074c0 13.768 11.756 24.924 26.257 24.924 9.278 0 17.435-4.567 22.1-11.469.523-.742 1-1.505 1.433-2.283-.015 0-.037.007-.06.007.038-.073.075-.138.112-.211l-2.186.364Z" fill="url(#b)"/><path d="M26.94 31.077c12.412 5.454 17.032 7.28 20.958 7.025l.955-.174c-.022-.335-.172-.8-.35-1.244.111.24.238.516.395.844l.022.043-.41-.887c-.291-.72-.65-1.396-.672-1.447C44.532 28.146 35.09 7.833 35.09 7.833l-8.292 15.295-6.911-10.56L9.064 32.13c2.5-2.262 8.106-5.345 17.876-1.054Z" fill="#153537"/><path d="m26.805 23.068-3.127 5.861-3.844-16.421 6.971 10.56ZM47.89 38.11l1.164-.212L35.09 7.833l4.254 28.451c3.911 1.447 6.337 1.964 8.546 1.825Z" fill="#2A6B71"/><path d="M48.928 37.624c0 .007.007.014.007.014s0-.007-.007-.014ZM48.935 37.639c.007.013.007.013 0 0Z" fill="#153537"/><path d="M28.521 3.15 22.924 0l2.216 3.15-2.216 3.148 5.598-3.149Z" fill="#AEC90B"/><path d="M84.924 32.214v9.113c0 5.469-3.634 7.49-9.142 7.49h-.418c-5.508 0-9.143-1.97-9.143-7.49V20.06c0-5.265 3.635-7.49 9.143-7.49h.418c5.508 0 9.142 2.225 9.142 7.49v3.04c0 1.317-.723 2.022-2.074 2.022h-1.874c-1.35 0-2.075-.705-2.075-2.022v-2.123c0-2.531-1.35-3.244-3.328-3.244-1.978 0-3.33.705-3.33 3.244v19.44c0 2.53 1.352 3.243 3.33 3.243s3.328-.705 3.328-3.243v-5.266h-1.455c-1.35 0-2.075-.713-2.075-2.022v-.909c0-1.316.724-2.022 2.075-2.022h5.404c1.35-.014 2.075.699 2.075 2.015Z" fill="url(#c)"/><path d="M106.227 48.42h-1.926c-1.246 0-2.023-.611-2.232-1.877l-.985-6.022h-6.65l-.985 6.022c-.21 1.266-.985 1.877-2.232 1.877h-1.612c-1.403 0-2.127-.757-1.873-2.175l5.978-31.44c.21-1.215 1.038-1.825 2.284-1.825h3.74c1.246 0 2.074.61 2.283 1.825l6.083 31.44c.261 1.41-.47 2.175-1.873 2.175Zm-5.919-12.764L97.763 19.91l-2.545 15.746h5.09Z" fill="url(#d)"/><path d="M115.682 48.42h-1.874c-1.351 0-2.075-.706-2.075-2.022V15c0-1.316.724-2.021 2.075-2.021h1.874c1.351 0 2.075.705 2.075 2.021v31.39c.007 1.316-.724 2.029-2.075 2.029Z" fill="url(#e)"/><path d="M139.902 48.42h-1.925c-1.247 0-2.023-.611-2.232-1.877l-.985-6.022h-6.65l-.985 6.022c-.209 1.266-.986 1.877-2.232 1.877h-1.612c-1.403 0-2.127-.757-1.874-2.175l5.979-31.44c.209-1.215 1.037-1.825 2.284-1.825h3.739c1.246 0 2.075.61 2.284 1.825l6.083 31.44c.253 1.41-.47 2.175-1.874 2.175Zm-5.926-12.764-2.545-15.746-2.545 15.746h5.09Z" fill="url(#f)"/><path d="M163.076 36.01v5.317c0 5.469-3.635 7.49-9.143 7.49h-.105c-5.508 0-9.142-1.97-9.142-7.49V20.06c0-5.265 3.634-7.49 9.142-7.49h.105c5.508 0 9.143 2.225 9.143 7.49v4.458c0 1.317-.724 2.022-2.075 2.022h-1.873c-1.351 0-2.075-.705-2.075-2.022v-3.541c0-2.48-1.247-3.244-3.172-3.244-1.926 0-3.172.756-3.172 3.244v19.44c0 2.48 1.246 3.243 3.172 3.243 1.925 0 3.172-.756 3.172-3.243V36.01c0-1.316.724-2.021 2.075-2.021h1.873c1.343 0 2.075.705 2.075 2.021Z" fill="url(#g)"/><path d="M183.541 15.001v1.113c0 1.316-.724 2.022-2.075 2.022h-4V46.39c0 1.316-.724 2.021-2.075 2.021h-1.874c-1.35 0-2.074-.705-2.074-2.021V18.136h-4.001c-1.351 0-2.075-.706-2.075-2.022v-1.113c0-1.316.724-2.021 2.075-2.021h14.032c1.343-.008 2.067.705 2.067 2.021Z" fill="url(#h)"/><path d="M108.457 5.753c0-2.03 1.687-3.673 3.769-3.673 2.083 0 3.769 1.643 3.769 3.673 0 2.029-1.686 3.672-3.769 3.672-2.082 0-3.769-1.643-3.769-3.672Z" fill="url(#i)"/><path d="M113.51 5.753c0-2.03 1.687-3.673 3.769-3.673s3.769 1.643 3.769 3.673c0 2.029-1.687 3.672-3.769 3.672s-3.769-1.643-3.769-3.672Z" fill="url(#j)"/><defs><linearGradient id="a" x1="39.184" y1="47.391" x2="46.023" y2="30.539" gradientUnits="userSpaceOnUse"><stop stop-color="#2A6B71"/><stop offset="1" stop-color="#AEC90B"/></linearGradient><linearGradient id="b" x1="29.919" y1="51.862" x2="16.786" y2="5.012" gradientUnits="userSpaceOnUse"><stop stop-color="#2A6B71"/><stop offset=".076" stop-color="#387566"/><stop offset=".381" stop-color="#6A993F"/><stop offset=".648" stop-color="#8FB323"/><stop offset=".863" stop-color="#A6C311"/><stop offset="1" stop-color="#AEC90B"/></linearGradient><linearGradient id="c" x1="68.111" y1="30.298" x2="128.413" y2="33.679" gradientUnits="userSpaceOnUse"><stop stop-color="#2A6B71"/><stop offset=".215" stop-color="#2D6D6F"/><stop offset=".386" stop-color="#377467"/><stop offset=".542" stop-color="#48805A"/><stop offset=".69" stop-color="#609148"/><stop offset=".831" stop-color="#7EA730"/><stop offset=".966" stop-color="#A3C113"/><stop offset="1" stop-color="#AEC90B"/></linearGradient><linearGradient id="d" x1="68.175" y1="29.286" x2="128.477" y2="32.666" gradientUnits="userSpaceOnUse"><stop stop-color="#2A6B71"/><stop offset=".215" stop-color="#2D6D6F"/><stop offset=".386" stop-color="#377467"/><stop offset=".542" stop-color="#48805A"/><stop offset=".69" stop-color="#609148"/><stop offset=".831" stop-color="#7EA730"/><stop offset=".966" stop-color="#A3C113"/><stop offset="1" stop-color="#AEC90B"/></linearGradient><linearGradient id="e" x1="68.227" y1="28.22" x2="128.53" y2="31.6" gradientUnits="userSpaceOnUse"><stop stop-color="#2A6B71"/><stop offset=".215" stop-color="#2D6D6F"/><stop offset=".386" stop-color="#377467"/><stop offset=".542" stop-color="#48805A"/><stop offset=".69" stop-color="#609148"/><stop offset=".831" stop-color="#7EA730"/><stop offset=".966" stop-color="#A3C113"/><stop offset="1" stop-color="#AEC90B"/></linearGradient><linearGradient id="f" x1="68.269" y1="27.499" x2="128.571" y2="30.879" gradientUnits="userSpaceOnUse"><stop stop-color="#2A6B71"/><stop offset=".215" stop-color="#2D6D6F"/><stop offset=".386" stop-color="#377467"/><stop offset=".542" stop-color="#48805A"/><stop offset=".69" stop-color="#609148"/><stop offset=".831" stop-color="#7EA730"/><stop offset=".966" stop-color="#A3C113"/><stop offset="1" stop-color="#AEC90B"/></linearGradient><linearGradient id="g" x1="68.344" y1="26.143" x2="128.646" y2="29.523" gradientUnits="userSpaceOnUse"><stop stop-color="#2A6B71"/><stop offset=".215" stop-color="#2D6D6F"/><stop offset=".386" stop-color="#377467"/><stop offset=".542" stop-color="#48805A"/><stop offset=".69" stop-color="#609148"/><stop offset=".831" stop-color="#7EA730"/><stop offset=".966" stop-color="#A3C113"/><stop offset="1" stop-color="#AEC90B"/></linearGradient><linearGradient id="h" x1="68.414" y1="24.89" x2="128.716" y2="28.27" gradientUnits="userSpaceOnUse"><stop stop-color="#2A6B71"/><stop offset=".215" stop-color="#2D6D6F"/><stop offset=".386" stop-color="#377467"/><stop offset=".542" stop-color="#48805A"/><stop offset=".69" stop-color="#609148"/><stop offset=".831" stop-color="#7EA730"/><stop offset=".966" stop-color="#A3C113"/><stop offset="1" stop-color="#AEC90B"/></linearGradient><linearGradient id="i" x1="108.457" y1="5.751" x2="115.998" y2="5.751" gradientUnits="userSpaceOnUse"><stop stop-color="#2A6B71"/><stop offset="1" stop-color="#437B60"/></linearGradient><linearGradient id="j" x1="113.511" y1="5.751" x2="121.052" y2="5.751" gradientUnits="userSpaceOnUse"><stop stop-color="#749F3D"/><stop offset="1" stop-color="#ADC826"/></linearGradient></defs></svg>