<svg width="114" height="31" fill="none" xmlns="http://www.w3.org/2000/svg"><path d="M101.617 15.993c-3.603 0-6.786 1.55-9.06 4.016-2.308-2.572-5.597-4.192-9.305-4.192-1.539 0-2.973.317-4.302.81C77.796 7.257 69.96 0 60.376 0c-10.39 0-18.82 8.49-18.82 18.952v.247c-1.259-.423-2.588-.705-3.987-.705-2.939 0-5.562 1.057-7.696 2.748-2.099-2.677-5.317-4.439-8.955-4.439-5.107 0-9.375 3.418-10.844 8.067-.28 0-.524-.07-.804-.07-4.163 0-7.73 2.536-9.27 6.2h113.755c.175-.81.245-1.62.245-2.501 0-6.905-5.562-12.506-12.418-12.506h.035Z" fill="#E2E2E2"/></svg>