<svg width="277" height="234" fill="none" xmlns="http://www.w3.org/2000/svg"><path d="M13.947 179.554C37.39 174.92 61.54 156.63 125.53 104.169c68.109-55.825 113.436-18.2 118.387-13.734l.167.096.269.305c.012.044-18.999 79.723-96.646 108.534 0 0 79.204-17.221 103.775-101.545 6.286-22.78 16.364-50.198-5.214-96.99-.002-.002 8.495 5.285 17.685 22.17 44.797 82.303-17.388 182.224-102.467 205.021-54.428 14.584-109.68-.182-148.218-34.541a160.165 160.165 0 0 1-12.104-11.542c.088-.024.231-.015.363-.05-.337-.381-.662-.717-.999-1.098l13.419-1.241Z" fill="url(#a)"/><defs><linearGradient id="a" x1="138.795" y1="226.75" x2="144.627" y2="-76.815" gradientUnits="userSpaceOnUse"><stop stop-color="#2A6B71"/><stop offset=".076" stop-color="#387566"/><stop offset=".381" stop-color="#6A993F"/><stop offset=".648" stop-color="#8FB323"/><stop offset=".863" stop-color="#A6C311"/><stop offset="1" stop-color="#AEC90B"/></linearGradient></defs></svg>