<svg width="24" height="24" fill="none" xmlns="http://www.w3.org/2000/svg"><rect width="24" height="24" rx="12" fill="#fff"/><g clip-path="url(#a)"><path d="M5 6.867c0-.45.158-.823.473-1.115.315-.293.725-.44 1.23-.44.495 0 .896.145 1.202.433.316.297.473.685.473 1.162 0 .433-.153.793-.46 1.081-.314.297-.729.446-1.242.446h-.014c-.495 0-.896-.149-1.203-.446A1.498 1.498 0 0 1 5 6.867Zm.176 11.824V9.664h3v9.027h-3Zm4.662 0h3v-5.04c0-.316.036-.56.108-.73a1.96 1.96 0 0 1 .574-.777c.257-.212.58-.318.966-.318 1.01 0 1.514.68 1.514 2.04v4.825h3v-5.176c0-1.333-.315-2.344-.946-3.034-.63-.689-1.464-1.033-2.5-1.033-1.162 0-2.068.5-2.716 1.5v.027h-.014l.014-.027V9.664h-3c.018.288.027 1.184.027 2.689 0 1.505-.01 3.617-.027 6.338Z" fill="#102C29"/></g><defs><clipPath id="a"><path fill="#fff" d="M5 5h14v14H5z"/></clipPath></defs></svg>