<svg width="390" height="235" fill="none" xmlns="http://www.w3.org/2000/svg"><path d="M390.001 126.322v68.36H8.332v-39.319h2.976v-24.87h15.726v12.671h15.27l6.038 5.913h6.129v-30.659H68.57v7.904h11.97v15.248h16.075v-19.131h12.684v8.049h6.601l5.708-5.591h6.5v-18.555h18.164v27.532h18.565v6.629h7.199v-10.01h27.437v11.077h10.494v-15.248h16.005v22.755h.938v-30.659h14.104v7.904h11.964v15.248h16.071v-19.131h12.684v8.049h6.606l5.714-5.591h6.489v-18.555h18.164v27.532h18.576v6.629h7.198v-10.01h14.444v11.077h23.478v-15.248h7.599Z" fill="url(#a)"/><path d="M349.066 98.424h-56.962v84.601h56.962V98.423Z" fill="url(#b)"/><path d="M55.724 182.326H20.662v-76.895l35.062-7.706v84.601Z" fill="url(#c)"/><path d="M62.164 183.025h26.033v-57.094l-26.033-5.72v62.814Z" fill="url(#d)"/><path d="M287.44 130.751h-35.199v52.273h35.199v-52.273Z" fill="url(#e)"/><path d="M62.725 111.262c0-2.954-3.052-5.352-6.819-5.352-.857 0-1.673.124-2.428.347-.994-2.363-3.463-4.032-6.352-4.032-3.21 0-5.907 2.066-6.627 4.851a5.212 5.212 0 0 0-1.794-.317c-2.672 0-4.842 2.015-4.842 4.508h28.862v-.005Z" fill="url(#f)"/><path d="M128.035 53.277c0-6.018-6.221-10.904-13.891-10.904-1.744 0-3.407.254-4.943.71-2.023-4.81-7.052-8.217-12.938-8.217-6.54 0-12.025 4.21-13.5 9.876a10.537 10.537 0 0 0-3.65-.65c-5.445 0-9.861 4.11-9.861 9.18h58.783v.005Z" fill="url(#g)"/><path d="M313.467 105.231c0-4.096-4.228-7.447-9.444-7.447-1.187 0-2.317.168-3.362.481-1.373-3.272-4.795-5.586-8.801-5.586-4.446 0-8.177 2.865-9.181 6.718a7.166 7.166 0 0 0-2.484-.442 7.053 7.053 0 0 0-3.32.82c-1.106-1.967-3.311-3.312-5.861-3.312-3.113 0-5.729 2.006-6.428 4.702a5.012 5.012 0 0 0-1.739-.308c-2.591 0-4.695 1.956-4.695 4.369h55.32l-.005.005Z" fill="url(#h)"/><path d="M250.609 69.665H205.58c0-3.163 2.621-5.73 5.856-5.73 1.328 0 2.555.442 3.538 1.177 1.567-2.523 4.406-4.206 7.635-4.206 3.437 0 6.418 1.897 7.914 4.682a4.883 4.883 0 0 1 2.494-.685c1.643 0 3.093.804 3.97 2.026 1.084-2.478 3.599-4.215 6.524-4.215 3.919 0 7.093 3.108 7.093 6.946l.005.005Z" fill="url(#i)"/><path d="M349.807 171.287H31.857C14.262 171.287 0 185.55 0 203.144 0 220.737 14.263 235 31.856 235h317.951c17.594 0 31.857-14.263 31.857-31.856 0-17.594-14.263-31.857-31.857-31.857Z" fill="url(#j)"/><path d="M376.819 197.73H4.85a4.85 4.85 0 1 0 0 9.7H376.82a4.85 4.85 0 0 0 0-9.7Z" fill="url(#k)"/><path d="M389.996 182.924H8.332v3.371h381.664v-3.371Z" fill="#BACC5F"/><path d="M364.183 162.067s3.508-6.211 7.584-6.385c4.076-.169 3.599-4.727 3.599-4.727s5.43 13.247-11.188 11.112h.005Z" fill="url(#l)"/><path d="M175.842 60.459s10.408-1.495 14.19 2.964 8.735-.084 8.735-.084-10.834 17.78-22.925-2.875v-.005Z" fill="url(#m)"/><path d="M236.819 89.477s3.949-6.291 8.192-6.276c4.243.015 3.97-4.747 3.97-4.747s4.998 14.017-12.168 11.023h.006Z" fill="url(#n)"/><path d="M222.112 56.176s4.608 2.775 4.598 5.76c-.01 2.983 3.473 2.79 3.473 2.79s-10.271 3.505-8.071-8.55Z" fill="url(#o)"/><path d="M13.389 209.543s-1.602-7.81 5.79-6.554c0 0 2.341-9.051 10.716-5.675 8.375 3.376 5.171 8.034 5.171 8.034s6.53-3.551 11.453 0c0 0 4.436-8.714 10.59-3.789 0 0 8.127-4.26 9.359 2.686 0 0 6.403-3.331 7.635 2.533 0 0 2.215 1.047 2.215 2.77h-62.93v-.005ZM226.706 171.287s-1.121-5.472 4.056-4.593c0 0 1.637-6.346 7.508-3.977 5.87 2.368 3.624 5.63 3.624 5.63s4.573-2.487 8.031 0c0 0 3.107-6.107 7.422-2.656 0 0 5.698-2.984 6.56 1.882 0 0 4.487-2.334 5.353 1.772 0 0 1.557.735 1.557 1.942h-44.111Z" fill="#5C8232"/><path d="M217.685 171.287s-.699-3.406 2.525-2.86c0 0 1.019-3.952 4.674-2.478 3.655 1.475 2.256 3.506 2.256 3.506s2.849-1.55 4.999 0c0 0 1.936-3.804 4.623-1.654 0 0 3.549-1.857 4.086 1.172 0 0 2.794-1.455 3.331 1.102 0 0 .968.457.968 1.207h-27.462v.005ZM250.739 171.287s-1.399-6.817 5.055-5.72c0 0 2.043-7.899 9.353-4.95 7.311 2.949 4.517 7.011 4.517 7.011s5.699-3.099 9.998 0c0 0 3.868-7.607 9.242-3.307 0 0 7.092-3.719 8.167 2.343 0 0 5.592-2.904 6.667 2.21 0 0 1.936.914 1.936 2.418h-54.93l-.005-.005Z" fill="#5C8232"/><path d="M281.259 171.287s-1.12-5.472 4.056-4.593c0 0 1.643-6.346 7.508-3.977 5.871 2.368 3.625 5.63 3.625 5.63s4.573-2.487 8.025 0c0 0 3.108-6.107 7.422-2.656 0 0 5.699-2.984 6.561 1.882 0 0 4.486-2.334 5.353 1.772 0 0 1.556.735 1.556 1.942h-44.111.005Z" fill="#5C8232"/><path d="M294.247 171.287s-1.121-5.472 4.056-4.593c0 0 1.642-6.346 7.508-3.977 5.87 2.368 3.624 5.63 3.624 5.63s4.578-2.487 8.031 0c0 0 3.108-6.107 7.422-2.656 0 0 5.698-2.984 6.56 1.882 0 0 4.487-2.334 5.353 1.772 0 0 1.552.735 1.552 1.942h-44.111.005Z" fill="#5C8232"/><path d="M329.376 171.287s-.563-2.736 2.028-2.299c0 0 .821-3.173 3.756-1.986 2.936 1.182 1.815 2.815 1.815 2.815s2.287-1.241 4.015 0c0 0 1.552-3.053 3.711-1.325 0 0 2.85-1.495 3.28.938 0 0 2.246-1.167 2.677.889 0 0 .776.367.776.973h-22.053l-.005-.005Z" fill="#5C8232"/><path d="M324.849.395h-7.461v218.289h7.461V.394Z" fill="url(#p)"/><path d="M355.268.395h-22.957v218.289h22.957V.394Z" fill="url(#q)"/><path d="M338.624 6.583h-6.313v212.101h6.313V6.583Z" fill="#A7BD48"/><path d="M332.326 156.71s-1.693-10.268-8.364-14.002c-6.672-3.733-10.804-13.693-14.616-15.247v-.934s4.628 2.84 8.258 8.818c2.865 4.717 8.365 5.085 11.224 7.676 2.86 2.592 5.825 8.297 5.825 8.297l-2.332 5.392h.005Z" fill="#A7BD48"/><path d="M381.665 106.557v1.46c-5.491 2.78-12.01 15.903-17.881 18.51-6.783 3.009-10.383 15.089-10.383 15.089l-1.085-3.113s4.452-12.215 9.45-13.302c5.004-1.092 11.442-9.181 15.25-14.394 1.749-2.388 3.381-3.625 4.644-4.255l.005.005Z" fill="#385A36"/><path d="M341.33 124.555s-.213 82.982 0 85.678c0 0 2.753-71.572 0-85.678Z" fill="#A7BD48"/><path d="M320.357 101.084s-2.145-9.1-6.849-9.86c-2.9-.467-6.697-.333-7.544-.954-.847-.62-3.711-6.092-3.711-6.092s3.599 5.914 6.038 5.914c2.438 0 9.004.78 10.063 3.555 1.06 2.775 3.493 4.538 3.493 4.538l-1.48 2.904-.01-.005Z" fill="#325743"/><path d="M336.462 193.099s.061 3.942-4.527 6.405-9.115 1.643-7.904 5.914c1.212 4.27-8.669 2.298-10.707 6.732-2.038 4.434 3.316 6.405 3.316 6.405h28.304s5.166-5.581 0-10.839c-5.166-5.253-8.477-14.612-8.477-14.612l-.005-.005Z" fill="url(#r)"/><path d="M355.728 200.482s.04 2.795-2.819 4.548c-2.854 1.748-5.673 1.167-4.918 4.196.756 3.028-5.394 1.633-6.666 4.781-1.268 3.148 2.063 4.548 2.063 4.548h17.617s3.214-3.962 0-7.696c-3.214-3.729-5.277-10.377-5.277-10.377Z" fill="url(#s)"/><path d="M279.699 170.044h77.783v-2.934h-77.783v2.934ZM279.699 174.401h77.783v-2.935h-77.783v2.935ZM277.559 207.641h2.398v-19.627h-2.398v19.627ZM288.307 207.641h2.398v-19.627h-2.398v19.627ZM274.406 188.013h83.076v-2.934h-83.076v2.934ZM279.699 183.257h77.783v-2.934h-77.783v2.934ZM279.699 178.83h77.783v-2.935h-77.783v2.935ZM353.163 207.641h2.398v-19.627h-2.398v19.627ZM341.944 207.641h2.398v-19.627h-2.398v19.627Z" fill="#705A3F"/><path d="M112.871 79.006h-7.905l-3.952 6.772V72.271c0-3.725 3.108-6.772 6.907-6.772h4.95c3.798 0 6.907 3.047 6.907 6.772s-3.109 6.735-6.907 6.735Z" fill="#EE7A64"/><path d="M106.808 74.153a.95.95 0 0 0 .959-.94.95.95 0 0 0-.959-.942.95.95 0 0 0-.959.941c0 .52.429.941.959.941ZM110.645 74.153a.95.95 0 0 0 .959-.94.95.95 0 0 0-.959-.942.95.95 0 0 0-.959.941c0 .52.429.941.959.941ZM114.482 74.153a.95.95 0 0 0 .959-.94.95.95 0 0 0-.959-.942.95.95 0 0 0-.96.941c0 .52.43.941.96.941Z" fill="#FFF8ED"/><path d="m96.51 207.461-.806-1.543-4.758.151-.077 1.392 2.226 3.8 4.029-3.048-.614-.752Z" fill="#FF937E"/><path d="m93.593 206.07-.921 5.606c-.039.301-.192-1.129-.307-1.43-.346-.79-.883-1.844-1.65-2.521l.192-2.032 2.686.377Z" fill="#D4635F"/><path d="m96.817 207.387-3.415 3.461s-2.034-3.047-2.495-3.424c-.076-.075-.23 0-.23.113l-.575 5.004h14.159c.153 0 .307-.188.307-.376v-1.054a.46.46 0 0 0-.192-.376l-7.56-3.348Z" fill="#fff"/><path d="m73.447 207.46-.767-1.543-4.375-.639-.498 2.182 2.225 3.8 4.03-3.048-.615-.752Z" fill="#FF937E"/><path d="m70.109 205.955-.69 5.493s-.193-2.785-1.612-4.026l.383-1.731 1.919.264Z" fill="#D4635F"/><path d="M73.755 207.385s-1.688 2.032-3.3 3.236c-.96.714-2.149-2.822-2.61-3.198-.076-.076-.23 0-.23.112l-.537 5.042h14.16c.153 0 .306-.188.306-.376v-1.054a.46.46 0 0 0-.191-.376l-7.598-3.386Z" fill="#fff"/><path d="M95.628 146.736s1.803 21.332 1.995 27.239c.153 5.907-1.036 32.169-1.036 32.169l-5.833.037s-7.022-43.982-14.35-58.204l19.224-1.241Z" fill="#1E2046"/><path d="m92.366 200.311.038 5.757M86.456 147.865s5.18 24.643 5.18 28.444c0 .601.691 20.429.73 22.009M90.523 203.586l6.14-.189" stroke="#fff" stroke-width=".523" stroke-miterlimit="10"/><path d="M92.942 146.585s-1.497 17.947-5.756 30.513c-3.453 10.159-13.737 29.159-13.737 29.159l-5.87.263 7.367-29.121c.383-1.505.652-3.085.729-4.627.383-5.907-.845-17.834-1.382-25.509l18.649-.678Z" fill="#45A2B9"/><path d="M80.201 176.383c-3.146 9.745-9.593 30.1-9.593 30.1M80.893 147.036s1.995 23.064.191 26.638M68.422 203.886l6.293.34" stroke="#fff" stroke-width=".523" stroke-miterlimit="10"/><path d="m117.881 110.278-.345 1.054s-2.878 6.02-4.068 9.218l-2.417-9.67s1.113-1.768 1.765-2.972c0 0-1.19-5.982-.998-6.434.384-.827 1.765 2.973 1.957 2.521.537-1.166.844-2.032.998-2.182 0 0 .998-6.058 1.611-5.305.614.715.231 5.079.231 5.079s2.456-4.477 3.338-4.364c.844.113.115 1.919.115 1.919s.729-1.693 1.113-1.091c.384.602-.499 2.671-.499 2.671s1.842-.978 1.842-.226c.038.715-4.643 9.782-4.643 9.782Z" fill="#FF937E"/><path d="m120.07 99.142-1.803 3.386M120.685 100.722l-1.343 2.484M115.889 101.399c.153.226 4.604 2.258 4.604 2.258M114.43 104.861s1.496 1.768 1.228 3.047" stroke="#D4635F" stroke-width=".966" stroke-miterlimit="10"/><path d="M106.409 118.555s-20.49-13.394-22.755-4.101c-1.151 4.779 19.723 13.62 26.093 14.937.729.151 1.497-.263 1.727-.94l6.101-17.27-5.103-2.671-6.063 10.045Z" fill="#FF937E"/><path d="M106.408 118.555s-19.723-15.877-21.987-6.584c-1.15 4.779 12.126 18.662 25.518 17.608.767-.075 1.496-.263 1.726-.94l5.91-17.495-6.946-3.537-4.221 10.948Z" fill="#AEC90B"/><path d="M99.195 120.701c-2.647-4.515-6.178-8.391-10.399-11.589-2.187-.188-3.837.565-4.412 2.897-.96 3.951 7.79 13.959 18.418 16.743-.921-2.784-2.11-5.493-3.607-8.051Z" fill="#AEC90B"/><path d="M70.034 118.631c.191-5.004 8.365-9.519 8.365-9.519l2.877-1.994-.038.151 5.104 4.138 1.573-1.317-.077-.865 1.535.527c.652.075 3.722 3.348 4.72 4.891a11.279 11.279 0 0 1 1.803 5.531l3.147 33.823-26.592.903c.038-.037-2.724-28.519-2.417-36.269Z" fill="#AEC90B"/><path d="M79.895 137.63c-1.918-3.725-3.645-7.562-5.334-11.4-1.496-3.386-2.84-6.848-3.645-10.422-.499.903-.844 1.844-.882 2.822-.307 7.75 2.455 36.232 2.455 36.232l17.498-.602c-3.76-5.305-7.137-10.836-10.092-16.63Z" fill="#AEC90B" opacity=".53"/><path d="M82.045 96.507s-.653-5.568.422-5.945c1.074-.413 5.487-.903 5.487-.903s-.575-2.332 1.151-2.332c1.727 0 1.497 2.332 1.497 2.332s1.228-1.617 2.072-1.053c.806.564.92 2.107.153 2.333 0 0 1.957.978 1.075 1.768-.921.79-1.573.339-1.573.339s1.496.978.652 1.542c-.844.565-9.363 5.456-9.363 5.456l-1.573-3.537Z" fill="#2A3E5E" stroke="#2A3E5E" stroke-width=".225" stroke-miterlimit="10"/><path opacity=".76" d="M81.775 93.046c0 1.655.192 3.461.192 3.461l1.573 3.537s2.61-1.505 5.104-2.935c-1.88-2.107-4.26-3.8-6.869-4.063Z" fill="#FF937E"/><path d="M91.714 93.876s.997 7.224-.691 10.61c-.23.451-.69.752-1.19.79-.844.075-1.726 0-2.148-.075.729.075.498 1.918 1.227 4.364 0 0-.23 2.182-3.99 1.655-1.228-.15-4.451-3.273-4.451-3.273s1.611-4.552 1.726-5.982c.077-.752.077-1.505 0-1.919-.92-.075-1.19-1.73-.844-2.634.346-.865 1.996-.79 2.34-.037.116.226.385.489.692.15.268-.3.307-3.047 1.036-3.386 2.417.377 4.681.226 5.448 0 .73-.225.845-.263.845-.263Z" fill="#FF937E"/><path d="M81.584 98.128c.422-1.618 1.573-.339 1.573-.339l-1.573.339Z" fill="#D4635F"/><path d="m88.26 105.276-2.188-.301.192.565c.346 1.016 1.919.828 1.996-.264Z" fill="#1E2046"/><path d="M89.722 98.503s.805 2.372.729 2.372c-.269 0-.845-.038-.845-.038l.116-2.334Z" fill="#D4635F"/><path d="M90.258 99.107c0 .225.115.451.23.451s.23-.188.192-.451c0-.226-.115-.452-.23-.452-.077 0-.192.188-.192.452ZM88.34 99.143c0 .226.115.452.23.452s.23-.188.192-.452c0-.226-.115-.451-.23-.451s-.192.225-.192.451Z" fill="#020F2B"/><path d="M87.189 97.526c-.27.037.038-.603 1.189-.828.384-.076.69.338.499.64-.115.225-.652.075-1.688.188ZM91.524 96.924c.269.075.077-.715-.768-.979-.575-.188-.69.301-.498.678.115.15.844.188 1.266.3Z" fill="#1E2046"/><path d="m91.064 101.326-2.955-.113s.653 1.205 1.497 1.242c.69 0 1.458-1.129 1.458-1.129Z" fill="#fff"/><path d="M65.273 140.302c3.224 1.468 8.826 5.907 8.826 5.907s9.67 4.026 10.053 3.612c.384-.414-2.379-2.37-2.379-2.37.576-.038 3.53 1.505 3.76 1.241.231-.263-3.376-2.295-3.3-2.52.078-.226 3.761 1.918 4.068 1.542.269-.414-3.453-2.521-3.453-2.746 0-.226 3.875 1.806 3.99 1.204.077-.602-6.1-2.973-6.254-3.386-.154-.452 2.801-.264 3.722-.866.92-.602-5.756-1.053-5.756-1.053-1.266-.377-9.17-6.66-9.17-6.66l-4.107 6.095Z" fill="#FF937E"/><path d="M75.404 146.736c.268-2.446.575-4.891.805-7.337-2.762-1.956-6.83-5.192-6.83-5.192l-4.106 6.095c3.224 1.468 8.826 5.907 8.826 5.907s.499.226 1.305.527Z" fill="#1E2046"/><path d="M68.574 132.063S84.5 119.346 77.9 111.295c-3.53-4.327-24.29 18.247-24.789 22.085l19.839 12.416 5.755-6.584-10.13-7.149Z" fill="#AEC90B"/><mask id="t" style="mask-type:luminance" maskUnits="userSpaceOnUse" x="53" y="107" width="65" height="48"><path d="m110.629 107.795-4.221 10.798s-17.037-13.695-21.258-8.164l-3.876-3.123.039-.151-2.916 1.957s-1.19.639-2.648 1.731c-6.408 1.58-22.217 19.188-22.64 22.536l18.457 11.551c.5 5.681.921 9.97.921 9.97l26.592-.903-2.61-27.729c4.068 2.258 8.749 3.763 13.431 3.386.767-.075 1.496-.263 1.727-.94l5.909-17.495-6.907-3.424Zm-42.056 24.267s.768-.602 1.88-1.655c.077 1.016.154 2.069.23 3.123l-2.11-1.468Z" fill="#fff"/></mask><g mask="url(#t)" fill="#fff"><path d="M45.59 132.625c3.453-6.697 8.288-12.679 14.12-17.533a56.427 56.427 0 0 1 9.402-6.396c1.534-.827 4.297-2.257 5.295.038.384.903.422 1.956.575 2.897.154 1.166.307 2.333.5 3.537.728 5.192 1.419 10.384 2.148 15.576 0 .075.077.113.115.113 2.38.075 4.375-1.392 6.178-2.709 1.765-1.317 3.837-3.01 6.178-2.784 3.453.301 5.103 4.251 6.14 6.998 1.189 3.123 2.072 6.396 3.952 9.218 1.765 2.596 4.413 4.853 7.713 5.079a.132.132 0 0 0 0-.263c-3.185-.226-5.756-2.446-7.445-4.967-1.918-2.897-2.8-6.283-4.067-9.481-1.036-2.558-2.494-5.945-5.487-6.735-2.226-.564-4.26.64-5.986 1.881-2.11 1.505-4.375 3.575-7.176 3.5l.115.112c-.652-4.853-1.343-9.707-1.995-14.56-.153-1.204-.345-2.408-.499-3.612-.153-1.091-.23-2.22-.499-3.273-.192-.753-.614-1.505-1.381-1.844-.767-.338-1.688-.188-2.456.075-.882.301-1.688.753-2.456 1.204a59.668 59.668 0 0 0-2.609 1.543c-1.65 1.016-3.223 2.145-4.758 3.311-3.108 2.408-5.986 5.117-8.519 8.127-2.84 3.348-5.333 6.96-7.329 10.873-.115.075.154.226.23.075Z"/><path d="M73.293 102.677a85.084 85.084 0 0 0 5.449 8.691c.959 1.355 1.995 2.671 3.031 3.951 1.074 1.317 2.149 2.633 3.338 3.8 4.912 4.928 11.167-2.408 13.584-6.359 1.842-2.972 3.108-6.283 4.144-9.594.039-.15-.23-.226-.268-.075-1.689 5.568-4.26 11.475-8.903 15.275-1.113.903-2.456 1.693-3.914 1.994-1.573.301-3.031-.113-4.182-1.204-1.151-1.053-2.11-2.295-3.108-3.499-1.075-1.279-2.072-2.596-3.07-3.95a74.84 74.84 0 0 1-5.871-9.18c-.077-.151-.307 0-.23.15ZM102.496 112.309a784.567 784.567 0 0 0 10.706 21.22c1.036 1.956 2.072 3.95 3.108 5.907.077.15.307 0 .23-.151-3.722-6.998-7.367-14.033-10.859-21.144-.998-1.994-1.957-3.988-2.955-5.982-.077-.151-.307 0-.23.15ZM104.989 110.954c4.49 7.073 8.941 14.184 13.277 21.333 1.228 2.032 2.417 4.026 3.645 6.057.077.151.345 0 .23-.15a1104.162 1104.162 0 0 0-13.123-21.408l-3.799-5.982c-.076-.151-.307 0-.23.15ZM49.463 132.288c6.063.226 12.126 0 18.112-.715.192-.038.192-.301 0-.264-6.025.716-12.087.941-18.112.716-.192-.038-.192.225 0 .263ZM55.299 123.26c3.683 2.182 7.405 4.364 11.09 6.546.153.075.306-.15.153-.226-3.684-2.182-7.406-4.364-11.09-6.546-.192-.113-.307.113-.153.226Z"/></g><g clip-path="url(#u)"><path d="M135.292 106.177c4.863 22.869 6.556 23.106 29.345 14.972 1.767-.646 2.179-4.302 1.165-5.893l-.028-.046a2.993 2.993 0 0 0-3.35-1.208c-5.985 1.803-14.52 3.739-15.502 3.684-3.258-.204-5.352-6.145-7.446-12.988-.007-.276.102-1.737.327-3.639.041-.303-.491-3.26-1.446 1.238-.177.817-1.059-5.481-2.009-5.058-.226.1.345 3.81.298 3.838 0 0-1.338-3.83-1.932-3.393-.152.118-.12 1.654-.12 1.654s-.006-1.333-.391-1.236c-.385.098-.241 1.663-.241 1.663s-.478-.906-.733-.697c-.228.256 2.063 7.109 2.063 7.109Z" fill="#A94846"/><path d="m134.692 98.815.806 2.675M133.989 99.81l.72 1.948M137.143 101.007l-3.053.828M137.827 102.789s-1.1.385-1.28 1.515" stroke="#753231" stroke-width=".5" stroke-miterlimit="10" stroke-linecap="round"/><path d="m141.547 204.982-2.304 6.426s-2.173 3.677-2.773 1.878c-.6-1.798-1.395-2.863-1.395-2.863l1.269-6.886 5.203 1.445Z" fill="#A94846"/><path d="m134.589 210.299-7.166 1.894c-.301.08-.239.448.097.534 2.878.734 10.633 2.635 12.651 3.15.262.066.46-.079.434-.281-.158-1.059-.661-5.028-.848-5.075 0 0-2.071 1.94-2.862 1.463-.652-.401-1.617-1.274-1.755-1.505-.064-.212-.325-.279-.551-.18Z" fill="#FFC56B"/><path d="m133.258 210.351.793 1.222M132.402 210.72l.793 1.222" stroke="#fff" stroke-width=".814" stroke-miterlimit="10" stroke-linecap="round"/><path d="m166.741 207.18.877 6.767s-.239 4.21-1.603 2.882c-1.363-1.327-2.556-1.945-2.556-1.945l-2.011-6.704 5.293-1Z" fill="#A94846"/><path d="m162.952 214.99-5.51 4.823c-.255.21-.015.506.323.436 2.92-.627 10.712-2.321 12.749-2.781.254-.053.387-.254.276-.439-.647-.87-2.917-4.192-3.086-4.157 0 0-.982 2.649-1.881 2.576-.786-.044-2-.432-2.28-.582-.167-.121-.43-.031-.591.124Z" fill="#FFC56B"/><path d="m161.784 215.632 1.275.758M161.196 216.344l1.276.758" stroke="#fff" stroke-width=".814" stroke-miterlimit="10" stroke-linecap="round"/><path d="M166.487 137.176c.529 4.171 2.418 8.179 2.146 12.812-.307 5.367-2.593 12.777-3.071 18.336-.478 5.56-.876 6.007-.953 12.609-.102 8.202 3.055 21.115 5.926 29.84-3.277 1.672-6.279 2.159-9.746 3.195-4.763-10.619-8.584-22.683-9.002-34.035-.306-8.619 1.431-15.464 3.167-23.209.207-.927-.726-2.223-1.524-.272-6.704 16.391-9.004 29.714-11.894 53.23-3.74-.641-5.509-.74-9.297-1.354.082-12.635 1.71-26.286 3.961-39.425 2.287-13.129 7.53-23.86 16.366-36.102 4.268 1.207 9.651 3.325 13.921 4.375Z" fill="#45A2B9"/><mask id="v" style="mask-type:luminance" maskUnits="userSpaceOnUse" x="132" y="132" width="39" height="82"><path d="M166.487 137.176c.529 4.171 2.418 8.179 2.146 12.812-.307 5.367-2.593 12.777-3.071 18.336-.478 5.56-.876 6.007-.953 12.609-.102 8.202 3.055 21.115 5.926 29.84-3.277 1.672-6.279 2.159-9.746 3.195-4.763-10.619-8.584-22.683-9.002-34.035-.306-8.619 1.431-15.464 3.167-23.209.207-.927-.726-2.223-1.524-.272-6.704 16.391-9.004 29.714-11.894 53.23-3.74-.641-5.509-.74-9.297-1.354.082-12.635 1.71-26.286 3.961-39.425 2.287-13.129 7.53-23.86 16.366-36.102 4.268 1.207 9.651 3.325 13.921 4.375Z" fill="#fff"/></mask><g mask="url(#v)" fill="#FFF8ED"><path d="M172.13 161.616c-2.869 1.188-5.774 2.21-8.779 3.01-1.466.41-2.959.773-4.479 1.09-.761.159-2.169.505-2.61-.391-.514-1.072 1.256-1.874 1.925-2.291 1.235-.743 2.497-1.439 3.759-2.136 2.515-1.357 5.048-2.63 7.488-4.006 2.817-1.593 5.578-3.278 8.054-5.389.151-.118.374.095.223.214-4.006 3.366-8.714 5.769-13.31 8.201-2.317 1.211-4.643 2.459-6.849 3.855-.293.2-.622.39-.85.645-.351.42-.328.935.223 1.115.541.217 1.227.039 1.771-.057 1.389-.273 2.76-.628 4.132-.984a77.006 77.006 0 0 0 9.211-3.134c.189-.109.27.186.091.258ZM133.253 175.792a42.06 42.06 0 0 0 6.853-3.267c1.093-.661 2.149-1.332 3.159-2.132.954-.736 1.815-1.574 2.276-2.711.028.047.008.12.036.166-.575-.538-1.409-.555-2.15-.47-.741.085-1.464.253-2.177.385-1.511.28-2.994.607-4.487.971-2.939.699-5.842 1.565-8.69 2.523-.179.072-.26-.223-.082-.295 3.074-1.057 6.221-1.939 9.414-2.691 1.577-.382 3.173-.68 4.768-.978 1.173-.21 2.713-.6 3.659.346.065.056.045.129.036.166-.95 2.226-3.4 3.638-5.436 4.843a40.32 40.32 0 0 1-7.088 3.402c-.178.072-.26-.223-.091-.258ZM149.748 184.154a42.696 42.696 0 0 0 10.282-7.015c.737-.674 1.522-1.374 2.129-2.16.247-.329.514-.731.546-1.154-.002-.744-.92-.744-1.445-.721-1.087.036-2.177.385-3.182.716-1.006.331-2.031.736-3.046 1.103a65.452 65.452 0 0 0-6.918 3.211c-.179.072-.317-.159-.166-.277 2.091-1.112 4.312-2.113 6.588-3.021a89.995 89.995 0 0 1 3.535-1.292c1.053-.358 2.171-.661 3.258-.697.721-.012 1.6.134 1.61.999-.018.818-.708 1.465-1.21 2.003a43.766 43.766 0 0 1-5.094 4.46 42.83 42.83 0 0 1-6.749 4.076c-.188.109-.316-.159-.138-.231ZM169.831 186.967a41.757 41.757 0 0 1-5.491 2.047c-1.56.464-3.591 1.2-5.204.514-.215-.094-.606-.273-.707-.494-.156-.314-.057-.838-.007-1.177.159-.9.58-1.733 1.093-2.464 1.017-1.426 2.433-2.553 3.876-3.478 1.735-1.124 3.646-2.008 5.556-2.892.179-.072.317.159.166.277-2.955 1.362-5.995 2.741-8.332 5.084-.597.592-1.175 1.267-1.576 2.027-.219.375-.373.806-.49 1.246-.098.367-.226 1 .005 1.333.499.676 1.849.551 2.59.465.872-.13 1.774-.37 2.638-.619a41.135 41.135 0 0 0 5.66-2.082c.236-.136.411.105.223.213ZM152.791 204.561a22.973 22.973 0 0 0 5.16-2.602c1.613-1.116 3.275-2.416 4.453-3.996.484-.621 1.624-2.211.628-2.818-.792-.476-1.984-.193-2.811.066-2.067.57-4.099 1.462-6.065 2.253-2.313.899-4.609 1.88-6.894 2.825-.179.072-.26-.223-.082-.295 2.286-.945 4.619-1.916 6.895-2.825 1.204-.476 2.361-.925 3.555-1.365 1.062-.395 2.181-.854 3.317-1.073.751-.122 1.698-.233 2.33.242.707.493.408 1.318.121 1.95-.863 1.896-2.658 3.397-4.3 4.624a24.512 24.512 0 0 1-6.188 3.318c-.216.063-.297-.232-.119-.304Z"/><path d="M148.121 181.114c-.334.659-1.244.78-1.893.967-.986.257-1.972.515-2.986.727-.929.194-1.849.351-2.796.462-.45.041-.872.13-1.33.052-.234-.021-.758-.154-.849-.412-.1-.222.073-.726.179-.974.144-.394.326-.778.536-1.117.485-.777 1.138-1.433 1.809-2.006 1.399-1.211 2.918-2.273 4.482-3.206a36.466 36.466 0 0 1 5.527-2.782c.179-.072.26.223.081.295a36.774 36.774 0 0 0-8.347 4.688c-1.293.963-2.69 2.017-3.463 3.426a3.295 3.295 0 0 0-.424 1.146c-.029.11-.077.293.005.432.065.056.252.103.317.159.262.067.533.097.777.081.89-.047 1.735-.224 2.617-.39a39.84 39.84 0 0 0 2.798-.619c.47-.115.939-.23 1.381-.392.469-.115 1.061-.238 1.3-.687.123-.164.365-.024.279.15ZM130.048 199.894a17.779 17.779 0 0 0 8.748-4.547c.426-.4 2.08-1.82 1.251-2.306-.829-.485-2.05-.092-2.868.131a111.746 111.746 0 0 0-5.684 1.723 272.886 272.886 0 0 0-6.261 2.242c-.179.072-.26-.223-.082-.295 2.125-.79 4.24-1.543 6.356-2.297 2.105-.716 4.22-1.469 6.417-1.928.723-.168 1.792-.287 2.424.188.623.512.091 1.16-.307 1.607a18.628 18.628 0 0 1-4.156 3.484 18.116 18.116 0 0 1-5.747 2.256c-.169.035-.26-.223-.091-.258ZM152.426 161.29a24.633 24.633 0 0 1-4.515.924c-.816.066-1.631.132-2.465.115-.637-.005-1.405.034-1.916-.449-1.095-.985.721-1.814 1.436-2.102 1.383-.549 2.801-.931 4.229-1.35 1.635-.445 3.251-.973 4.702-1.778.178-.072.317.159.166.277-2.77 1.566-6.025 1.95-8.968 3.119-.395.134-.8.305-1.139.532-.245.172-.557.445-.448.787.071.331.463.51.762.586.859.219 1.928.1 2.781.044a22.624 22.624 0 0 0 5.256-1.01c.216-.062.297.233.119.305ZM136.549 156.611c4.366-.962 8.995-2.015 12.398-5.064a11.25 11.25 0 0 0 2.028-2.382c.353-.576.556-1.191.055-1.71-.38-.371-.921-.588-1.417-.675-1.205-.269-2.471-.161-3.699-.043-1.266.108-2.541.253-3.807.361-2.832.296-5.655.712-8.479 1.127-.206.026-.288-.269-.081-.295 2.711-.444 5.441-.805 8.198-1.121 1.397-.152 2.794-.305 4.182-.421 1.265-.108 2.568-.207 3.849.081.747.19 1.67.622 1.859 1.414.107.498-.122.91-.351 1.321-.286.476-.646.933-1.007 1.389-1.441 1.67-3.336 2.949-5.369 3.841-2.635 1.209-5.47 1.817-8.315 2.463-.131.044-.222-.214-.044-.286ZM172.562 150.52c-2.836.765-5.699 1.328-8.606 1.605-1.481.17-2.981.258-4.461.272-1.199.007-2.512.142-3.641-.263-.84-.293-1.565-.87-1.471-1.825.095-1.112 1.117-2.105 1.967-2.75 1.142-.845 2.506-1.477 3.759-2.136 1.431-.732 2.825-1.474 4.256-2.206 3.22-1.607 6.477-3.205 9.688-4.776.178-.072.316.159.165.277-5.271 2.573-10.58 5.137-15.789 7.921-1.064.552-2.138 1.14-2.943 2.07-.408.484-.855 1.115-.871 1.777.031.634.514 1.071 1.055 1.287 1.082.433 2.385.335 3.51.308a44.783 44.783 0 0 0 4.011-.23c3.113-.303 6.21-.845 9.225-1.682.281-.006.362.289.146.351ZM169.941 200.082c-2.84 1.078-5.543 2.543-7.951 4.397-.594.436-1.161.918-1.691 1.41-.104.091-.339.227-.378.374-.039.146.118.304.221.369.26.223.606.273.915.312.767.118 1.582.051 2.341.049.806-.029 1.649-.049 2.455-.079a72.317 72.317 0 0 0 5.758-.646c.206-.026.25.26.081.295a51.112 51.112 0 0 1-5.561.657c-.938.075-1.865.112-2.821.103-.806.03-1.659.086-2.453-.077-.458-.078-.999-.294-1.201-.738-.101-.221-.081-.295.089-.486.322-.31.634-.583.983-.846a30.536 30.536 0 0 1 4.039-2.888 32.444 32.444 0 0 1 5.073-2.428c.198-.145.28.15.101.222ZM144.347 197.587a29.895 29.895 0 0 0-4.035 1.673c-.603.317-1.253.66-1.828 1.023-.632.426-1.031 1.03-.438 1.651.436.464 1.061.663 1.649.852a9.537 9.537 0 0 0 2.291.389c1.489.105 3.008-.056 4.48-.189.206-.026.203.287-.003.312-1.726.187-3.479.327-5.219.118a9.776 9.776 0 0 1-2.504-.639c-.504-.206-.978-.523-1.245-1.022-.661-1.266 1.22-2.04 2.096-2.483 1.488-.795 3.021-1.462 4.628-1.953.216-.063.307.196.128.268Z"/></g><path opacity=".5" d="M163.317 137.699s-3.444 8.917 5.83 11.558M154.011 135.325c-.455.511-2.114 7.963-7.871 6.65M159.391 211.417l11.302-3.346M131.05 204.537l11.402 2.596" stroke="#fff" stroke-width=".601" stroke-miterlimit="10"/><path d="M162.739 103.347c-.226-.803.583-2.947 1.244-3.484 1.86-1.445 3.662-1.769 5.951-1.224 1.804.421 9.833 6.702-.821 12.564" fill="#45A2B9"/><path d="M174.672 98.83s.823-1.75-.468-1.844c-1.292-.095-3.906 2.686-2.49 4.419 1.416 1.733 5.944 2.261 6.554.262.648-1.99-.925-3.88-3.596-2.838Z" fill="#45A2B9"/><path d="M174.3 99.479c.73-.793 1.305-2.057 1.082-3.172-.205-1.032-1.495-1.283-2.371-.84-.932.506-1.449 1.55-1.665 2.514-.245 1.073-.106 2.206.305 3.212.101.222-.284.319-.348.107-.731-1.754-.595-4.07.75-5.53.568-.638 1.424-1.007 2.303-.861.832.173 1.425.795 1.435 1.66.054 1.15-.454 2.313-1.24 3.17-.134.2-.421-.069-.251-.26Z" fill="#45A2B9"/><path d="M161.77 104.745c1.178-4.441 4.473-4.227 5.287-4.137.693.099 3.146.176 3.183 5.749.008.12.101.222.223.214.487-.032 1.556-.151 1.787 1.083.194 1.225-.966 1.987-1.697 2.035-.207.026-.694.058-.817.223-.057.064-.273.126-.527.179l.442 6.303c-12.061 4.249-6.76-2.195-6.76-2.195l1.39-4.033a25.05 25.05 0 0 0-.89.047c-1.215-.232-2.887-.698-1.621-5.468Z" fill="#A94846"/><path d="M171.752 107.723s-.79-1.534-1.673.592l1.673-.592Z" fill="#753231"/><path d="M166.157 106.256c-.6.004-1.129.496-1.098 1.131a1.094 1.094 0 0 0 1.15 1.077c.6-.004 1.129-.496 1.098-1.131-.04-.598-.541-1.118-1.15-1.077ZM161.346 106.792c.507-.106 1.017-.524 1.004-1.076-.015-.396-.254-.849-.571-1.008 0 0-.425 1.302-.433 2.084Z" fill="#C25350"/><path d="m163.306 106.47-.494-.244c-.112-.029-.147-.195-.053-.249l.757-.747" fill="#753231"/><path d="M165.803 104.129c.148.195.052-.496-.217-.683-.242-.14-.571-.106-.704.095.037.01.533.097.921.588ZM162.5 103.796c-.264.09.276-.44.557-.447.281-.006.541.217.51.484-.009.037-.503-.207-1.067-.037ZM164.411 105.615c-.095.211-.209.338-.321.31-.112-.029-.138-.232-.043-.442.096-.211.21-.339.322-.31.075.019.101.222.042.442ZM163.067 105.116c-.086.174-.209.339-.312.273-.112-.028-.101-.222-.052-.405.086-.175.21-.339.312-.274.112.029.138.231.052.406Z" fill="#183350"/><path d="M164.714 107.181c-.15-.038-2.54-.805-2.54-.805s.184 1.262.792 1.378c.607.116 1.748-.573 1.748-.573Z" fill="#FFF8ED"/><path d="M166.16 100.38s-1.707 1.17.023 2.317c1.741 1.111 2.776.669 2.443 2.073-.333 1.404-.193 2.38 1.854 1.884s2.668-8.096-4.32-6.274Z" fill="#45A2B9"/><path d="M163.084 113.622c-.131.044-1.974.671-2.302.705-1.355 1.496-4.941 6.889-5.696 8.381-1.07 2.078-4.219 10.482-4.803 12.684 0 0 4.029-.147 16.935 2.793 2.852-4.13 7.283-12.403 7.629-18.819 0 0-3.886-3.852-5.114-3.734 0 0-8.957 1.123-6.649-2.01Z" fill="#FFC56B"/><path d="M173.789 118.391c.613.548 1.021.966 1.021.966-.347 6.415-4.777 14.688-7.629 18.819-12.186-2.796-16.448-2.826-16.888-2.821 8.229-5.148 16.293-10.574 23.496-16.964Z" fill="#FFC56B" opacity=".5"/><path d="M148.52 138.273c22.035 8.836 22.243 7.752 28.163-15.304.477-1.798-1.483-4.335-3.346-4.38l-.038-.01c-1.348-.03-2.527.805-2.906 2.08-1.802 5.887-4.965 13.896-5.573 14.681-1.983 2.511-8.224.919-15.115-1.232-.242-.14-1.404-1.024-2.899-2.307-.26-.223-3.011-1.434.215 1.897.603.585-5.205-2.19-5.393-1.18-.031.266 3.419 1.852 3.409 1.888 0 0-3.998-1.02-3.94-.339.026.202 1.33 1.005 1.33 1.005s-1.117-.755-1.252-.397c-.134.357 1.263 1.105 1.263 1.105s-1.038-.147-.976.221c-.041.303 7.058 2.272 7.058 2.272Z" fill="#A94846"/><path d="M141.925 134.552s2.381.805 3.185.931M142.362 135.762s1.858.672 2.554.455" stroke="#753231" stroke-width=".5" stroke-miterlimit="10" stroke-linecap="round"/><path d="m143.884 96.811 7.699 1.964 2.096 7.588 3.506-13.21c.965-3.633-1.274-7.378-4.973-8.322l-4.784-1.221c-3.7-.944-7.516 1.256-8.48 4.889-1.002 3.623 1.199 7.358 4.936 8.312Z" fill="#3F468E"/><path d="M143.726 91.09a.946.946 0 0 1-.691-1.156.969.969 0 0 1 1.178-.68c.516.132.825.65.691 1.157a.968.968 0 0 1-1.178.68ZM147.426 92.034a.947.947 0 0 1-.691-1.156.968.968 0 0 1 1.178-.679c.516.132.826.65.691 1.156a.968.968 0 0 1-1.178.68ZM151.163 92.988a.945.945 0 0 1-.69-1.156.968.968 0 0 1 1.178-.68c.516.132.825.65.69 1.157a.968.968 0 0 1-1.178.679Z" fill="#FFF8ED"/></g><path d="M116.823 85.267c3.265.913 6.153 2.791 8.862 4.796 1.757 1.3 3.471 2.672 4.963 4.26 3.021 3.216 5.072 7.264 8.379 10.193" stroke="#8A7975" stroke-width="2" stroke-miterlimit="10"/><path d="M113.145 81.527a19.794 19.794 0 0 0-3.5-.28c-1.409.008-.865.51-.187 1.265.72.801 1.471 1.583 2.317 2.258 1.812 1.45 3.953 2.067 6.266 2.17.391.015 1.581.061 1.82-.337.532-.886-1.624-2.841-2.18-3.259-1.311-.99-2.924-1.53-4.54-1.817h.004Z" fill="#ACCC4C"/><path d="M110.099 82.466a41.088 41.088 0 0 1 8.775 3.791c.219.126.415-.207.196-.33a41.697 41.697 0 0 0-8.869-3.83c-.243-.072-.345.3-.106.369h.004Z" fill="#ACCC4C" style="mix-blend-mode:multiply"/><path d="M115.254 88.95c-1.323.468-2.599 1.088-3.765 1.76-1.444.831-.579 1.03.583 1.41 1.229.399 2.478.763 3.758.962 2.747.426 5.323-.191 7.761-1.437.411-.211 1.664-.859 1.668-1.41.007-1.22-3.402-1.968-4.228-2.071-1.949-.246-3.937.142-5.773.79l-.004-.004Z" fill="#ACCC4C"/><path d="M112.687 91.656a49.22 49.22 0 0 1 11.335-1.242c.251 0 .251-.384 0-.384a49.674 49.674 0 0 0-11.44 1.258c-.247.058-.141.426.105.368Z" fill="#ACCC4C" style="mix-blend-mode:multiply"/><path d="M123.199 95.494a18.629 18.629 0 0 0-2.81 1.925c-1.057.862-.325.912.665 1.066 1.053.16 2.114.291 3.182.283 2.286-.019 4.29-.858 6.095-2.192.305-.227 1.229-.917 1.158-1.365-.16-.99-3.029-1.147-3.714-1.12-1.617.058-3.175.633-4.572 1.403h-.004Z" fill="#ACCC4C"/><path d="M121.478 98.068a40.514 40.514 0 0 1 9.065-2.52c.247-.038.141-.406-.106-.368a40.588 40.588 0 0 0-9.065 2.52c-.231.092-.129.464.106.368Z" fill="#ACCC4C" style="mix-blend-mode:multiply"/><path d="M127.533 81.674a22.717 22.717 0 0 0-2.438-3.316c-1.093-1.242-1.139-.372-1.312.813-.184 1.257-.325 2.522-.297 3.795.062 2.722 1.139 5.095 2.83 7.223.285.36 1.162 1.449 1.714 1.353 1.225-.21 1.366-3.63 1.327-4.443-.102-1.925-.846-3.773-1.824-5.421v-.004Z" fill="#ACCC4C"/><path d="M124.365 79.699a46.52 46.52 0 0 1 3.268 10.708c.043.241.419.138.376-.104a46.904 46.904 0 0 0-3.308-10.8c-.102-.226-.438-.03-.336.192v.004Z" fill="#ACCC4C" style="mix-blend-mode:multiply"/><path d="M134.446 90.03a16.15 16.15 0 0 0-1.147-2.794c-.556-1.078-.748-.464-1.088.352-.36.867-.689 1.749-.901 2.665-.45 1.959-.105 3.845.717 5.659.141.306.567 1.238.982 1.265.916.061 1.636-2.358 1.754-2.952.278-1.396.078-2.845-.321-4.198l.004.004Z" fill="#ACCC4C"/><path d="M132.484 88.082c.466 2.714.595 5.47.4 8.215-.016.246.375.246.391 0 .2-2.78.059-5.57-.411-8.319-.043-.241-.419-.138-.376.104h-.004Z" fill="#ACCC4C" style="mix-blend-mode:multiply"/><path d="M255.931 119.393a5.6 5.6 0 0 0-1.223 1.087c-.573.636-1.184 1.273-2.063 2.659 0 0-8.905 13.336-11.313 11.688 0 0-3.898-1.948-2.484-9.777 0-.749 0-1.274-.038-1.424 0 0-.612-7.754-1.911-9.327-.153-.188-.574-.487-.497-.525 3.974-.974 5.541 7.305 6.65 11.838.038.187 8.255-6.593 8.255-6.593s.229-.6 1.643-1.574c1.414-.974 3.172-2.098 3.287-1.948.382.412-2.561 2.435-2.561 2.435s2.867-2.135 3.134-1.798c.268.375-2.331 2.323-2.331 2.323s2.599-1.986 2.714-1.611c.114.374-2.102 2.21-2.102 2.21s2.254-1.161 2.293-.974c.038.112-.956 1.011-1.453 1.311Z" fill="#FFC56B"/><path d="M238.81 125.05c-.612 3.371-.23 5.619.382 7.117.42-3.97 1.032-8.054 2.522-11.8-1.07-3.746-2.675-7.267-5.35-6.593-.038 0 .382.337.497.525 1.299 1.611 1.911 9.327 1.911 9.327.038.113.038.675.038 1.424Z" fill="#1E2046"/><path d="M236.899 114.299c1.299 1.611 1.911 9.328 1.911 9.328 0 .074.038.224.038.449a82.68 82.68 0 0 1 3.019-3.259c-1.108-3.896-2.714-7.754-5.465-7.08-.077.075.344.375.497.562Z" fill="#FF616B"/><path d="M251.154 119.806c0-.075.115-2.51.497-3.297.382-.787.879 2.023.879 2.023l-1.376 1.274Z" fill="#FFC56B"/><path d="M253.828 117.333s1.032 1.312 1.223 1.724M252.491 117.969s.114 1.05-.038 1.949M254.898 116.921l-.802.638" stroke="#F29555" stroke-width=".483" stroke-miterlimit="10" stroke-linecap="round" stroke-linejoin="round"/><path d="M255.281 117.857s-.841.638-.688.45" stroke="#F29555" stroke-width=".483" stroke-miterlimit="10" stroke-linecap="round" stroke-linejoin="round"/><path d="M215.381 127.897c4.586-3.109 7.567-31.13 15.249-31.43 2.369-.112 4.815.487 6.65 1.948.65.525 1.873 2.772 1.605 3.559l-8.523 13.036s3.134 17.382 2.179 17.719c-.956.337-17.16-4.832-17.16-4.832Z" fill="#18004C"/><path d="M230.515 103.847c0 .112-.115.187-.229.15-.459-.075-1.529-.337-1.873.824-.344 1.199.688 2.06 1.414 2.21.191.037.688.15.803.337.344.525.382 1.536.496 2.847.268 2.847-2.14 3.746-2.14 3.746s6.727 4.72 7.262 1.161c0 0 .535-6.593.573-6.63.611-.45 2.866-.3 2.255-5.17-.573-4.495-3.822-4.72-4.663-4.72-.726 0-3.134-.262-3.898 5.245Z" fill="#FFC56B"/><path d="M237.662 98.827s-5.427 7.942-7.261 5.17c0 0-1.529-9.403 7.261-5.17Z" fill="#18004C"/><path d="M228.872 105.271s.994-1.387 1.567.787l-1.567-.787Z" fill="#FF8B33"/><path d="M234.605 104.522c.612.075 1.032.637.956 1.236-.077.6-.65 1.012-1.262.937a1.103 1.103 0 0 1-.955-1.236c.076-.637.65-1.05 1.261-.937ZM239.115 105.646a1.11 1.11 0 0 1-.726-1.2c.076-.412.344-.712.688-.861 0 .037.267 1.274.038 2.061Z" fill="#FFB452"/><path d="m238.274 104.933-1.835.562s.727.712 1.223.487c.535-.262.612-1.049.612-1.049Z" fill="#fff"/><path d="m237.203 103.547.077 1.199.611-.15c.115-.037.153-.187.076-.262l-.764-.787Z" fill="#FF8B33"/><path d="M235.102 102.761c-.191.188.038-.524.306-.637.267-.112.573-.037.687.188 0 0-.535.037-.993.449ZM238.465 102.087c.229.113-.191-.488-.497-.488-.306-.037-.535.15-.573.413.038 0 .535-.188 1.07.075ZM235.942 103.772c.038.225.153.375.268.338.114-.038.152-.225.114-.413-.038-.224-.153-.374-.267-.337-.115 0-.153.187-.115.412ZM237.624 103.286c.038.187.153.337.267.337.115-.038.153-.188.115-.412-.038-.188-.153-.338-.268-.338-.114.038-.153.225-.114.413Z" fill="#1E274D"/><path d="M236.783 108.529s-2.14.038-3.21-.187c-1.032-.262 3.248 6.555 3.21.187Z" fill="#1E2046"/><path d="M231.662 108.792c0 1.236-.726 2.247-1.644 2.247-.917 0-1.643-1.011-1.643-2.247 0-1.237.726-2.248 1.643-2.248.918 0 1.644 1.011 1.644 2.248Z" stroke="#FFF8ED" stroke-width=".966" stroke-miterlimit="10"/><path d="m229.98 204.166.803 5.694s1.299 3.783 2.522 2.323c1.223-1.461 2.446-2.248 2.446-2.248l.383-5.919-6.154.15Z" fill="#FFB452"/><path d="m233.19 204.354.23 7.754s-3.86.562-2.446-1.986l-.841-5.356 3.057-.412Z" fill="#FFC56B"/><path d="m236.172 209.898 4.892 3.858c.267.188.076.487-.268.487 0 0-10.548-.075-10.548-.225-.077-.936.115-4.008.267-4.869.039-.113 1.567 3.146 2.408 2.884.573-.187 2.484-1.948 2.714-2.173.076-.075.382-.075.535.038Z" fill="#FF616B"/><path d="m212.629 203.979-1.299 5.882s1.299 3.783 2.522 2.322c1.223-1.461 2.446-2.248 2.446-2.248l2.523-6.106-6.192.15Z" fill="#FFB452"/><path d="m215.84 204.204-1.911 7.941s-3.86.562-2.446-1.985l1.262-5.544 3.095-.412Z" fill="#FFC56B"/><path d="m216.719 209.898 4.892 3.859c.267.187.076.487-.268.487 0 0-11.427-.075-11.465-.225-.077-.937 1.376-4.008 1.529-4.87.038-.112 1.184 3.184 2.025 2.884.573-.187 2.484-1.948 2.714-2.172.114-.075.42-.075.573.037Z" fill="#FF616B"/><path d="M225.127 133.254c-2.102 3.633-3.21 6.293-4.433 10.938-1.414 5.394-14.37 50.834-15.02 60.611 1.72.412 33.823.675 34.855.525 1.146-12.025 7.185-57.577-1.949-72.337-4.166-.562-9.249.15-13.453.263Z" fill="#495967"/><mask id="w" style="mask-type:luminance" maskUnits="userSpaceOnUse" x="205" y="132" width="39" height="74"><path d="M225.127 133.254c-2.102 3.634-3.21 6.293-4.433 10.938-1.414 5.395-14.37 50.834-15.02 60.612 1.72.412 33.823.674 34.855.524 1.146-12.025 7.185-57.577-1.949-72.336-4.166-.562-9.249.149-13.453.262Z" fill="#fff"/></mask><g mask="url(#w)" fill="#fff"><path d="M208.158 171.464c5.886 2.509 10.663 7.342 13.147 13.148 1.414 3.334 2.14 7.08 1.491 10.639-.535 2.959-2.026 5.731-4.09 7.942-2.331 2.472-5.388 4.27-8.79 4.907-.191.037-.114.3.077.262 6.076-1.161 11.159-5.956 12.764-11.8 1.835-6.63-1.108-13.935-5.579-18.955a25.354 25.354 0 0 0-8.867-6.406c-.191-.037-.344.188-.153.263ZM217.636 150.785c2.904 5.057 5.885 10.152 9.822 14.535 4.013 4.42 9.057 7.904 15.019 9.103 3.631.749 7.415.674 11.007-.225.191-.037.115-.3-.076-.262a24.63 24.63 0 0 1-18.651-2.847c-4.93-2.959-8.675-7.455-11.847-12.175-1.797-2.697-3.44-5.469-5.045-8.279-.077-.149-.306 0-.229.15ZM219.355 128.871c2.943 4.907 6.039 10.04 10.854 13.411 2.255 1.573 4.854 2.697 7.606 3.034a17.84 17.84 0 0 0 8.064-.861c2.904-1.012 5.503-2.735 7.414-5.095.115-.15-.076-.337-.191-.187-3.401 4.12-8.905 6.331-14.294 5.956-5.771-.412-10.433-4.008-13.873-8.354-2.025-2.547-3.707-5.319-5.389-8.091-.038-.113-.267.037-.191.187Z"/></g><path opacity=".5" d="m238.694 133.666-17.313 13.823s-.114-8.841 2.943-14.46l14.37.637Z" fill="#495967"/><path d="M237.739 113.811c-.114.3 3.249 9.103 3.096 11.95-.153 2.847-.076 6.93.077 7.342 0 0-4.319 2.473-16.74.525-3.822-3.297-.459-14.422.802-17.944 0 0 4.128-2.472 5.198-2.547 0 0 5.886 5.544 6 .449 0-.561 1.109-.037 1.567.225Z" fill="#FF616B"/><path d="M224.172 118.082c-1.414 4.72-3.21 12.849-.038 15.583 5.924.899 10.013.825 12.65.487-4.93-4.757-9.249-10.077-12.612-16.07Z" fill="#FF616B" opacity=".5"/><path d="m223.828 157.153-10.816-6.78c-1.146-.712-1.49-2.248-.764-3.372l3.975-6.106c.726-1.124 2.293-1.461 3.439-.749l11.542 7.23c1.338.861 1.758 2.622.879 3.933l-3.057 4.683c-1.109 1.76-3.44 2.247-5.198 1.161Z" fill="#1E2046"/><path d="M224.515 148.911c0 1.199-.993 2.173-2.216 2.173-1.223 0-2.217-.974-2.217-2.173 0-1.198.994-2.172 2.217-2.172s2.216.974 2.216 2.172Z" fill="#fff"/><path d="M222.491 149.736c-.038-.674 4.509-22.027 5.312-25.174 1.07-4.27-.267-9.177-1.796-9.327-1.911-.187-4.586 5.919-4.969 8.091l-2.637 25.773s-2.255 4.383-1.834 5.17c.42.786.841-1.199.841-1.199s2.14 2.06 2.713 2.098c.535.075 1.605-3.259 1.605-3.259s.077 2.697.803 1.91c.65-.749-.038-4.083-.038-4.083Z" fill="#FFC56B"/><path d="M226.885 128.459c.42-1.836.726-3.26.879-3.896 1.07-4.271-.268-9.178-1.797-9.328-1.337-.15-3.095 2.884-4.127 5.432a152.2 152.2 0 0 0 5.045 7.792Z" fill="#1E2046"/><path d="M227.649 125.124c.039-.224.115-.412.153-.561 1.07-4.271-.267-9.178-1.796-9.328-1.567-.187-3.669 3.971-4.586 6.668 2.025 1.049 4.127 2.135 6.229 3.221Z" fill="#FF616B" stroke="#FF616B" stroke-width=".966" stroke-miterlimit="10"/><path d="m217.903 153.483.535-1.125M218.706 154.045l.535-1.162M219.395 154.644l.535-1.162" stroke="#F29555" stroke-width=".483" stroke-miterlimit="10" stroke-linecap="round" stroke-linejoin="round"/><path d="M253.331 101.449h-7.873l-3.937 6.743V94.706c0-3.708 3.096-6.743 6.88-6.743h4.892c3.783 0 6.879 3.035 6.879 6.743.038 3.709-3.057 6.743-6.841 6.743Z" fill="#FFC3B8"/><path d="M247.293 96.618c.528 0 .956-.42.956-.937a.947.947 0 0 0-.956-.937.946.946 0 0 0-.955.937c0 .517.428.937.955.937ZM251.116 96.618c.527 0 .955-.42.955-.937a.946.946 0 0 0-.955-.937.947.947 0 0 0-.956.937c0 .517.428.937.956.937ZM254.938 96.618c.528 0 .955-.42.955-.937a.946.946 0 0 0-.955-.937.947.947 0 0 0-.956.937c0 .517.428.937.956.937Z" fill="#FFF8ED"/><path d="m258.55 208.136 2.667 1.716-1.193 1.612a69.008 69.008 0 0 0-1.474-3.328Z" fill="#1E2046"/><path d="M259.463 212.391s-2.281 6.004-2.947 5.73l-14.912-7.618s2.456-2.058 5.579-1.063c4.701 1.544 5.438-.618 5.438-.618l.281.755c.947 2.505 3.789 3.774 6.35 2.882l.211-.068Z" fill="#5BC29C"/><path d="M251.427 209.577a4.39 4.39 0 0 1 .632 1.578c.07.48.14 1.064-.035 1.51-.141.377-.562.617-.913.343a1.537 1.537 0 0 1-.421-.515 8.953 8.953 0 0 1-.386-.823c-.315-.652-.561-1.304-.842-1.99-.07-.172.211-.24.246-.069.246.652.526 1.27.807 1.887.14.309.281.618.421.892.105.206.281.481.561.446.246-.034.316-.308.351-.514a3.519 3.519 0 0 0 0-.858 4.199 4.199 0 0 0-.631-1.784c-.141-.103.105-.24.21-.103Z" fill="#FFF8ED"/><path d="M277.145 186.313c-.737-.103-15.473 23.744-15.473 23.744s-6.982-4.323-7.017-4.426c0 0 5.403-20.69 12.526-31.635 1.298-1.991 4.175-2.402 5.298-2.402 8.456 0 13.894 2.848 18.841 3.5l-2.842 8.921" fill="#308AA1"/><path d="M287.566 179.589c-16.315-2.059-16.631.961-18.139 4.426l-12.421 23.16" stroke="#fff" stroke-width=".405" stroke-miterlimit="10"/><path d="m273.041 212.323.316-4.255 6.597.583.21 3.843-3.333 3.706-3.79-3.877Z" fill="#FF937E"/><path d="m252.761 209.509 2.947-3.191 5.509 3.534-2.246 3.088c-2.526.927-5.333-.446-6.07-2.985l-.14-.446ZM273.041 212.323l.316-4.255 6.597.583.21 3.843-3.333 3.706-3.79-3.877Z" fill="#FFC56B"/><path d="M280.338 211.808s.878 6.347.141 6.416l-16.842.137s1.158-2.951 4.421-3.5c4.912-.823 4.491-3.019 4.491-3.019l.421.377c2.176 1.819 5.439 1.647 7.368-.411Z" fill="#5BC29C"/><path d="M272.092 213.318c.772.309 1.439.995 1.579 1.819.035.206.035.412-.14.549-.141.103-.386.137-.562.137-.421 0-.807-.206-1.157-.446a5.872 5.872 0 0 1-1.018-1.064c-.105-.137.14-.275.246-.137.421.549.947 1.167 1.649 1.338.175.035.315.069.491.035.07 0 .175-.035.246-.069a.208.208 0 0 0 .035-.24c-.071-.343-.246-.652-.457-.927a2.095 2.095 0 0 0-.947-.686c-.175-.103-.105-.344.035-.309Z" fill="#FFF8ED"/><path d="M307.496 173.413c0 6.45-5.298 11.7-11.859 11.7h-12.912c-.737 0-1.298.721-1.123 1.407l-1.053 23.4a.221.221 0 0 1-.21.275h-4.491c-.105 0-2.737.206-2.772.103l-3.509-29.92c-1.333-2.951 2.737-7.96 6.035-8.029l31.894 1.064Z" fill="#45A2B9"/><path d="M300.022 173.756s1.158 7.068-5.613 6.828c-3.755-.137-9.825-.034-14.456.068-3.298.069-5.649 3.191-4.737 6.279l1.684 23.092" stroke="#fff" stroke-width=".405" stroke-miterlimit="10"/><path d="m260.024 143.459 2.596 4.22 3.895 7.48 5.473-5.216-5.579-6.073s-.526-.926-.807-1.269c-2.105-2.779-4.561-6.931-4.736-6.108-.141.584 1.473 3.878 1.473 3.878s-1.789-4.015-2.421-3.809c-.596.206 1.334 4.083 1.334 4.083s-2-3.191-2.456-2.985c-.456.206 1.473 3.774 1.473 3.774s-1.438-2.436-1.929-2.127c-.492.309 1.684 4.152 1.684 4.152Z" fill="#FFC56B"/><path d="M266.023 143.391s.912-4.358.316-4.632c-.562-.275-1.579 2.847-1.579 2.847l1.263 1.785Z" fill="#FFC56B"/><path d="M264.409 141.948s-.842.653-.947 1.785M262.654 139.135l-2.807 2.643M261.708 138.964l.315.687" stroke="#FF9A47" stroke-width=".526" stroke-miterlimit="10" stroke-linecap="round"/><path d="M284.093 172.898s4.386-29.542 5.509-31.395c0 0-2.597-1.338-6.035 5.764-3.474 7.103-3.965 9.162-3.965 9.162l-7.614-7.652-6.21 6.382 13.403 14.96a3.681 3.681 0 0 0 2.105 1.166l2.351.378" fill="#1E2046"/><path d="M303.496 140.336s5.894 1.819 6.912 9.642c1.017 7.789-3.649 27.827-3.649 27.827s-4.983-2.059-7.053-2.608c-3.052-.824-5.298-.858-7.473-.892l-9.018-1.716 3.228-24.944c.492-1.99.737-4.872 2.597-6.005l3.122-1.853 6.667-2.195 4.667 2.744Z" fill="#1E2046"/><path d="M299.531 148.606s-4.596-5.833.456-7.892c5.298-2.196 15.895 4.735 23.158 21.033 1.649 3.706-.597 7.857-5.684 10.465l-9.088 3.534-3.193-7.651 5.368-2.025-11.017-17.464Z" fill="#1E2046"/><path d="m297.391 132.41 1.193 5.525-2.175 2.401c-3.369 3.569-3.86 1.201-4.492.892l.422-6.484 3.157-1.236 1.895-1.098Z" fill="#FFC56B"/><path d="m295.532 133.542-3.158 1.716s-.351 2.985.597 3.088c.772.069 3.403-2.333 3.157-4.152" fill="#1E2046"/><path d="M297.916 131.346c.913-.583 1.158-5.764 1.158-5.764s.035-1.235-1.859-1.304c0 0 .666-1.063-.246-1.75-.912-.652-1.825.343-1.825.343s-.35-.823-.736-.892c-.351-.068-.737.481-.737.481s-.421-1.03-1.544-1.201c-1.088-.172-1.544 1.201-1.544 1.201s-.491-.549-1.158-.309c-.666.24-.421 1.304-.421 1.304s-1.719 0-.561 1.784c.421.652 1.754.034 1.754.034s-.21 2.402.316 2.608c.526.24 2.561.549 3.438-.034.878-.584 1.755-1.579 1.755-1.579l1.403 5.147c.527-.652.106 1.647.106 1.647" fill="#000"/><path d="M290.232 125.273c-1.053 7.755-.772 10.054-.035 10.671 1.053.858 3.017.343 3.93 0 1.544-.583 2.631-2.196 2.982-2.642.176-.24 2.105.172 1.86-1.647-.211-1.338-.913-.892-1.299-.583-.105.103-.28.034-.315-.069-.281-.789-1.158-3.774-1.439-4.735-.14-.411-2-.343-2.175-.377-1.614-.24-3.053-.172-3.439-.515l-.07-.103Z" fill="#FFC56B"/><path d="m298.723 131.484-1.088.686s.456-1.785 1.088-.686Z" fill="#FF9A47"/><path d="M291.319 130.145c0 .206.07.412.176.412.105 0 .21-.171.21-.377s-.07-.412-.175-.412c-.106 0-.211.171-.211.377ZM290.022 129.906c0 .206.07.412.176.412.105 0 .21-.172.21-.378 0-.206-.07-.412-.175-.412-.105 0-.176.172-.211.378Z" fill="#012A39"/><path d="M293.073 128.739c.28.206-.141-.72-.527-.823-.385-.103-.807.068-.912.411 0 0 .737-.068 1.439.412ZM289.847 128.294c.421-.035.737.034.737.034-.035-.309-.351-.55-.702-.584" fill="#38194B"/><path d="m290.652 129.905-.701 1.648c0 .034 0 .069.035.069l.702.068c.035 0 .035-.034.035-.034l-.035-1.716c.035-.069-.036-.069-.036-.035Z" fill="#FF9A47"/><path d="M292.828 132.204c-.21-.034-2.737-.172-2.737-.172s-.28 1.888.772 1.751c1.053-.103 1.965-1.579 1.965-1.579Z" fill="#FEF2FB"/><mask id="x" style="mask-type:luminance" maskUnits="userSpaceOnUse" x="265" y="137" width="59" height="41"><path d="m271.989 148.811 7.614 7.651s.491-2.058 3.965-9.161c2.877-5.901 5.157-5.97 5.824-5.833l2.772-1.647 6.666-2.196 4.667 2.711s.211.069.561.206c5.649 1.372 13.404 8.372 19.123 21.17 1.649 3.706-.597 7.857-5.684 10.465l-9.123 3.569-.772-1.888a103.3 103.3 0 0 1-.877 3.946s-4.982-2.058-7.052-2.607c-3.053-.824-5.299-.858-7.474-.893l-8.105-1.544c0 .103-.035.138-.035.138l-.07-.172-.807-.171.105-.961-2.035-.343c-.807-.138-1.579-.549-2.105-1.167l-13.368-14.925 6.21-6.348Zm38.56 17.259-1.157-1.853-.421 2.47 1.578-.617Z" fill="#fff"/></mask><g mask="url(#x)" fill="#FFF8ED"><path d="M311.742 175.712c.386-.584.421-1.304.457-1.956.035-.755-.106-1.373-.702-1.887a3.611 3.611 0 0 0-1.93-.824c-.737-.068-1.474.138-2.105.446-.141.069-.281-.137-.141-.24.702-.343 1.509-.549 2.281-.48.772.068 1.509.412 2.105.892.597.515.842 1.167.807 1.956-.035.72-.07 1.578-.491 2.23-.14.137-.386 0-.281-.137ZM302.128 138.929c-.351.996-1.229 1.785-2.211 2.197a2.004 2.004 0 0 1-1.544.034c-.491-.206-.912-.583-1.228-.961-.105-.137.07-.309.176-.171.28.343.631.686 1.052.892.491.24 1.018.206 1.509-.034.877-.378 1.649-1.099 1.965-1.991.07-.206.351-.137.281.034ZM282.058 145.861c1.755.789 3.193 2.161 4.035 3.808.071.137-.14.275-.245.137-.842-1.646-2.246-2.95-3.93-3.739-.14-.035-.035-.275.14-.206ZM279.637 171.182c1.158-.926.983-2.47.562-3.705-.386-1.167-1.088-2.333-2.351-2.711-2.526-.755-5.228 1.51-6.386 3.5-.07.137-.316 0-.246-.137 1.264-2.128 4.316-4.632 6.983-3.534 1.263.514 1.894 1.749 2.28 2.95.421 1.27.492 2.883-.701 3.809-.106.137-.281-.069-.141-.172ZM268.936 160.134c1.859-1.236 1.964-3.775.35-5.25-1.438-1.304-3.719-2.23-5.684-1.544-.175.069-.245-.206-.07-.24 1.088-.378 2.246-.275 3.333.103 1.053.377 2.106.96 2.843 1.75a3.568 3.568 0 0 1-.667 5.421c-.105.068-.246-.137-.105-.24ZM287.042 152.105c.807.343 1.403 1.235 1.228 2.127-.175.858-1.053 1.51-1.93 1.339-.175-.035-.105-.275.07-.241.772.103 1.509-.514 1.614-1.235.106-.755-.421-1.475-1.122-1.784-.141-.034-.035-.274.14-.206ZM292.128 175.506c.526-.275.351-1.304.281-1.785a5.055 5.055 0 0 0-.597-1.578c-.561-.961-1.579-2.024-2.736-2.23-1.299-.24-2.562.686-3.334 1.647a5.738 5.738 0 0 0-1.228 3.225c0 .172-.28.172-.28 0 .105-2.024 1.333-4.186 3.333-4.941 2.14-.823 4.175 1.167 4.842 2.985.21.515.316 1.098.316 1.647 0 .446-.035.995-.492 1.235-.105.103-.245-.137-.105-.205ZM302.97 149.978c-.597.171-1.053.72-1.053 1.372 0 .618.527 1.167 1.123 1.304.175.034.105.275-.07.24-.737-.137-1.298-.823-1.333-1.544-.036-.72.526-1.407 1.263-1.612.14-.035.21.205.07.24Z"/></g><path d="M307.775 174.339c-6.245 1.27-10.736 2.127-11.508 2.333-.597.137-2.491.412-2.632.172-.315-.481 3.404-1.03 3.228-1.098-.175-.035-4.385.995-4.631.617-.421-.583 4.281-1.681 4.351-1.681 1.193-.343-4.421 1.201-4.807.892-.386-.343 2.14-1.201 2.21-1.235 0 0 2.211-.618 2.176-.789-.035-.172-5.158 0-4.948-.481.211-.48 3.369-.789 4.211-.96.842-.172 3.824-1.098 3.333-1.201l-2.035-.481c-.386-.102-.351-.617.035-.651 1.088-.172 2.491-.309 3.263-.103.737.205 1.544.549 1.544.549l4.175-1.476 2.035 5.593Z" fill="#FFC56B"/><path d="M271.216 128.189h7.088l3.544 6.073v-12.146c0-3.362-2.772-6.073-6.211-6.073h-4.421c-3.438 0-6.21 2.711-6.21 6.073 0 3.363 2.807 6.073 6.21 6.073Z" fill="#85D6B8"/><path d="M270.654 122.425a.86.86 0 0 0-.877-.858.86.86 0 0 0-.877.858c0 .481.386.858.877.858a.859.859 0 0 0 .877-.858ZM274.094 122.425a.86.86 0 0 0-.877-.858.86.86 0 0 0-.878.858.86.86 0 0 0 .878.858.859.859 0 0 0 .877-.858ZM277.531 122.425a.86.86 0 0 0-.877-.858.86.86 0 0 0-.877.858c0 .481.386.858.877.858a.859.859 0 0 0 .877-.858Z" fill="#FFF8ED"/><path d="m355.104 215.679 1.444 7.301 11.239.417.035-.869-6.271-3.894-.705-2.608-5.742-.347Z" fill="#FF937E"/><path d="m361.622 218.635-1.973 1.947c-.529.521-1.304.486-1.797-.035l-2.079-2.19.846 4.658 11.239.383.035-.87-6.271-3.893Z" fill="#45A2B9" stroke="#45A2B9" stroke-miterlimit="10"/><path d="m360.812 219.226 2.712 1.808c.564.383 1.339.244 1.692-.313" stroke="#89BD88" stroke-width=".435" stroke-miterlimit="10" stroke-linecap="square" stroke-linejoin="round"/><path d="m348.41 155.605 12.402 60.493-5.355.73-17.123-41.024c-.493-1.668-2.36-1.738-3.03-.104l-7.672 10.537 17.25 28.296-3.111 4.582s-22.509-15.931-23.752-31.763c-1.018-12.96 5.063-27.782 10.344-39.847l20.047 8.1Z" fill="#5BC29C"/><path d="M338.745 217.225a55.078 55.078 0 0 1 4.5-4.501c.124-.123-.076-.319-.2-.196a54.763 54.763 0 0 0-4.5 4.501c-.125.123.075.319.2.196ZM354.576 214.743a20.71 20.71 0 0 1 5.285-.592c.176 0 .176-.278 0-.278a21.445 21.445 0 0 0-5.356.591c-.176.07-.105.313.071.279Z" fill="#89BD88"/><path opacity=".5" d="M330.83 160.681c6.87 3.025 13.705 6.05 20.54 9.179l-2.924-14.254-20.082-8.101c-1.48 3.373-2.748 6.953-3.876 10.639 2.114.834 4.263 1.634 6.342 2.537Z" fill="#5BC29C"/><path d="M314.378 108.986s2.431-4.833 1.761-4.902c-.669-.07-1.691 2.155-2.149.973-.986-2.503-.634-5.284-.775-5.701-.775-2.573-.634 4.276-.634 4.276s-.705-4.798-1.163-4.763c-.458 0-.423 3.859-.423 3.859s-.916-3.825-1.268-3.616c-.352.209.423 3.79.423 3.79s-.987-2.33-1.128-1.669c-.105.66 1.551 5.389 1.551 5.389l3.805 2.364Z" fill="#FF937E"/><path d="m310.148 102.901 2.713-.105M313.496 105.125s-1.092.974-.916 1.496" stroke="#E36F59" stroke-miterlimit="10"/><path d="m351.37 134.225-1.268 26.213c-15.819 1.843-26.248-1.147-26.248-1.147l1.057-26.283c-38.368 10.152-14.586-26.631-14.586-26.631l5.214 2.886-1.515 2.851c-1.832 3.372-2.078 7.579-.528 11.333 2.889 6.919 11.979-1.46 19.378-1.251l10.604.278 4.158 1.843 3.734 9.908Z" fill="#fff"/><path opacity=".5" d="m347.636 124.318-.317-.139c-1.797 3.72-3.806 7.335-5.779 10.986-2.149 3.998-4.157 8.065-6.306 12.029-2.361 4.38-4.827 8.691-7.505 12.898 4.405.73 12.297 1.529 22.373.347l1.268-26.213-3.734-9.908Z" fill="#fff"/><path d="M313.636 112.534c-1.726-.765-3.417-1.565-5.144-2.33M313.847 108.641c-.528.834-1.092 1.704-1.62 2.538M311.873 107.214c-.493 1.252-1.092 2.468-1.832 3.581" stroke="#fff" stroke-width=".239" stroke-miterlimit="10"/><path d="m341.645 116.323 1.268 6.779s-1.198 2.816-5.707 2.156c-2.819-.418-2.925-3.199-2.925-3.199l1.198-3.824 5.25-2.851s.704.487.775.661c.106.243.141.278.141.278Z" fill="#FF937E"/><path d="m340.764 115.419-4.862 3.059s-.281 1.356.212 1.947c1.022 1.252 3.84.487 4.016-2.816" fill="#001C39"/><path d="M342.244 114.482s-.634-.07-1.198.487l-.317-4.033s-1.409-1.252-2.255-.8c-.845.452-1.832-.243-2.29-.521-.458-.278-.74-1.147-.74-1.147s-.845-4.346.317-4.798c1.128-.452 6.237 1.842 7.681 3.164 1.374 1.251 1.304 3.268-.986 7.752" fill="#FFC56B"/><path d="M341.153 114.412c.035.139.176.209.282.105.387-.244 1.092-.557 1.127.695.035 1.704-1.726 1.113-1.903 1.321-.352.417-1.55 1.773-3.03 2.121-.916.208-2.149.069-2.924-.939-.775-1.008-1.268-.487.67-9.526 0 0 .141.487.704.765a5.93 5.93 0 0 0 1.868.626c.598.069 3.065.452 3.135 1.53.071.904-.07 2.538.071 3.302Z" fill="#FF937E"/><path d="M334.283 114.761s.493.347 1.902.452c0 0-.881.834-1.409.556-.529-.278-.493-1.008-.493-1.008Z" fill="#fff"/><path d="m342.315 115.039-1.057.522c0 .035.634-1.565 1.057-.522Z" fill="#E36F59"/><path d="M335.728 112.988c-.035.209.035.383.106.383.106 0 .211-.139.246-.313.036-.209-.035-.383-.105-.383-.106-.035-.212.139-.247.313ZM334.564 112.64c-.035.209.035.383.106.383.105 0 .211-.139.246-.313.036-.209-.035-.383-.105-.383-.106-.034-.212.105-.247.313ZM337.524 111.702c.247.243-.035-.661-.387-.835-.353-.139-.74-.035-.881.278 0 0 .669 0 1.268.557ZM334.741 111.146c.388 0 .67.139.67.139 0-.313-.247-.557-.599-.627" fill="#001C39"/><path d="m335.128 112.71-.811 1.426c0 .035 0 .069.036.069l.634.174c.035 0 .035 0 .035-.035l.176-1.599c0-.07-.07-.07-.07-.035Z" fill="#E36F59"/><path d="M331.675 141.77s-4.439-2.642-4.545-2.051c-.07.382.599 1.286 1.057 1.877.212.278.036.661-.317.765-1.092.243-3.1.695-4.58.974-2.114.382-2.149.973 1.55.938 3.664-.035-3.065.904-2.959 1.356.105.452 3.875-.139 4.122.243.282.348-3.559.835-3.594 1.6-.035.764 3.735-.348 3.981-.174.247.174-2.395.938-2.36 1.251.176 1.113 6.941-1.495 7.434-1.807.493-.313.211-4.972.211-4.972Z" fill="#FF937E"/><path d="m331.747 140.448-.282 8.692s26.847 3.859 26.847-3.72c0-5.945-5.144-23.71-10.711-21.312-5.567 2.434-1.832 16.166-1.832 16.166l-14.022.174Z" fill="#fff"/><path d="M335.728 140.622c-.071 2.886-.106 5.771-.176 8.657M335.305 142.847a18.346 18.346 0 0 0-3.664-.069M335.305 146.464a28.637 28.637 0 0 0-3.875-.035" stroke="#fff" stroke-width=".239" stroke-miterlimit="10"/><mask id="y" style="mask-type:luminance" maskUnits="userSpaceOnUse" x="303" y="106" width="56" height="56"><path d="M358.311 145.419c0-5.944-5.144-23.71-10.71-21.311-.071.035-.106.07-.176.07l-3.946-1.739-10.605-.278c-7.399-.208-16.489 8.17-19.378 1.252-1.55-3.72-1.303-7.927.529-11.334l1.515-2.851-5.215-2.885s-23.746 36.782 14.586 26.63l-1.057 26.283s10.429 2.99 26.248 1.148l.529-10.604c4.298-.452 7.68-1.704 7.68-4.381Z" fill="#fff"/></mask><g opacity=".57" fill="#89BD88" mask="url(#y)"><path d="M309.691 120.077c-1.268-1.252-1.797-3.164-1.374-4.902.035-.104.035-.209.071-.278.105-.209.211-.174.352-.035.176.139.317.348.387.521.177.383.247.835.282 1.287.106 1.112.141 2.225.071 3.302 0 .174.282.174.282 0 .07-1.042.035-2.12-.036-3.163-.07-.73-.176-1.565-.74-2.121-.176-.174-.528-.417-.775-.174-.105.105-.141.278-.176.417a3.69 3.69 0 0 0-.141.661 5.782 5.782 0 0 0 .176 2.329c.247.869.74 1.669 1.374 2.295.177.208.353 0 .247-.139ZM308.881 124.56c-1.479-.278-3.065.418-3.84 1.67-.035.069 0 .174.071.208.951.174 1.973.348 2.889-.069.704-.313 1.303-.974 1.268-1.739 0-.174-.282-.174-.282 0 0 .73-.564 1.287-1.198 1.53-.81.313-1.761.139-2.607 0 .035.07.071.139.071.209.739-1.148 2.184-1.809 3.558-1.53.176 0 .247-.244.07-.279ZM318.147 136.068c-2.22-1.077-3.488-3.65-2.959-6.014-.071.035-.106.069-.177.104.987.209 1.762.974 2.15 1.877.493 1.148.387 2.434.211 3.651-.035.174.247.243.282.069.211-1.286.317-2.677-.247-3.893-.423-.974-1.233-1.773-2.325-1.982a.194.194 0 0 0-.176.104c-.564 2.503.775 5.215 3.1 6.328.176.069.317-.174.141-.244ZM319.099 123.275c-2.149 1.008-4.545 2.259-5.215 4.693-.035.069.036.139.106.174.74.278 1.515.382 2.29.208.634-.139 1.198-.486 1.656-.938 1.092-1.078 1.515-2.573 1.903-3.998.035-.174-.212-.244-.282-.07-.353 1.321-.705 2.747-1.691 3.755a3.458 3.458 0 0 1-1.551.973c-.739.209-1.55.07-2.254-.208.035.069.07.104.105.173.67-2.364 3.03-3.546 5.109-4.554.106-.069-.035-.313-.176-.208ZM324.876 122.685a13.865 13.865 0 0 0 4.404 6.084c.071.034.141.069.212 0 1.268-1.078 1.022-2.921.176-4.172-.528-.765-1.268-1.426-1.973-2.017a26.054 26.054 0 0 0-2.537-1.842c-.141-.104-.282.139-.141.243 1.48.939 3.03 2.017 4.123 3.372.951 1.183 1.515 3.095.176 4.207h.211a13.31 13.31 0 0 1-4.333-5.945c-.106-.174-.353-.104-.318.07ZM323.714 138.745c.74-2.468 2.537-4.589 4.862-5.736l-.211-.105c.106 1.356-.493 2.677-1.48 3.581-.986.939-2.325 1.46-3.664 1.634-.176.035-.106.278.071.278 1.444-.173 2.818-.764 3.875-1.773.987-.973 1.586-2.329 1.48-3.72 0-.104-.106-.173-.211-.104a9.76 9.76 0 0 0-5.003 5.91c-.036.139.211.209.281.035ZM333.79 128.453a8.65 8.65 0 0 0 3.03 5.632c.07.07.176.035.211-.035.705-1.147.67-2.642.036-3.824-.635-1.182-1.762-2.016-3.03-2.468-.176-.07-.247.208-.071.278 1.163.417 2.22 1.182 2.819 2.26.634 1.112.669 2.538 0 3.65.07 0 .141-.035.211-.035-1.621-1.39-2.713-3.337-2.924-5.458 0-.174-.282-.174-.282 0ZM345.98 123.136c-2.29 1.008-3.77 3.546-3.488 6.014 0 .105.141.174.247.105.493-.417 1.233-.487 1.797-.765a3.953 3.953 0 0 0 1.339-1.182c.845-1.147 1.057-2.642 1.021-4.033 0-.174-.282-.174-.282 0 0 1.391-.176 2.851-1.056 3.998-.388.487-.881.904-1.48 1.147-.529.209-1.128.313-1.586.696.071.034.141.069.247.104-.282-2.399 1.127-4.798 3.347-5.771.211-.139.07-.383-.106-.313ZM342.809 138.711a5.168 5.168 0 0 1-2.079-4.345c-.07.035-.105.104-.176.139 1.726.626 2.819 2.433 2.607 4.241-.035.174.247.174.282 0 .212-1.912-1.022-3.824-2.818-4.485-.071-.034-.177.035-.177.14a5.405 5.405 0 0 0 2.22 4.554c.141.104.282-.139.141-.244ZM354.859 129.952a4.454 4.454 0 0 0-2.712 1.668 4.345 4.345 0 0 0-.811 3.268c0 .07.071.105.141.105.987-.035 1.867-.626 2.396-1.426.634-.938.775-2.12.669-3.233 0-.174-.282-.174-.282 0 .071 1.008-.035 2.086-.563 2.99-.493.765-1.304 1.356-2.255 1.425.035.035.106.07.141.105-.317-2.156 1.198-4.172 3.347-4.589.176-.07.106-.348-.071-.313ZM357.853 144.864c-1.656-.452-3.241-1.321-4.474-2.503a4.221 4.221 0 0 1-.388-.417c-.105-.139-.352-.382-.352-.556-.035-.278.458-.348.669-.383.212-.034.458 0 .67.07.845.208 1.585.834 2.255 1.321.704.521 1.867 1.46 1.515 2.433-.071.174.211.244.282.07.317-.939-.529-1.843-1.198-2.399-.388-.347-.811-.626-1.233-.938-.423-.279-.846-.591-1.339-.731-.458-.139-.952-.173-1.41 0-.176.07-.387.14-.458.279-.105.173 0 .347.106.521.493.869 1.339 1.53 2.149 2.051a10.913 10.913 0 0 0 3.171 1.46c.106.035.176-.208.035-.278ZM346.616 149.732a5.89 5.89 0 0 1-2.784-3.303c-.105-.383-.211-.8-.176-1.182 0-.139.035-.244.071-.383.035-.139.07-.243.211-.313.141-.069.212-.034.352.035.071.035.177.07.247.139.634.383 1.057 1.043 1.304 1.739.317.973.317 1.981.282 2.989 0 .174.281.174.281 0 .036-1.773-.035-3.998-1.796-5.006-.282-.174-.74-.382-.987-.069-.282.313-.282.869-.247 1.251.071.869.458 1.704.952 2.434.563.799 1.268 1.46 2.149 1.912.176.104.282-.139.141-.243ZM339.182 140.656a4.142 4.142 0 0 0-1.41 2.886c0 .07.036.104.106.139.81.243 1.621-.209 2.079-.834.564-.8.564-1.878.528-2.816 0-.174-.282-.174-.282 0 .036.834.071 1.807-.387 2.538-.388.625-1.128 1.077-1.867.869.035.034.07.104.105.139a3.91 3.91 0 0 1 1.304-2.677c.141-.174-.071-.348-.176-.244ZM350.102 156.962a7.66 7.66 0 0 1-4.615-3.65.478.478 0 0 0-.071.208c1.128-.312 2.255.174 3.171.8.423.313.881.661 1.268 1.043.388.382.775.904.599 1.46-.035.174.212.244.282.07.353-1.148-1.057-2.121-1.832-2.712-.986-.73-2.255-1.286-3.523-.939-.071.035-.141.139-.071.209a8.132 8.132 0 0 0 4.792 3.789c.07.035.141-.243 0-.278ZM324.067 153.277a7.265 7.265 0 0 1 4.192-3.268c-.07-.035-.106-.07-.176-.105.141.522.247 1.078.176 1.599-.07.592-.387 1.078-.845 1.426-.916.73-2.185 1.078-3.347 1.147-.177 0-.177.278 0 .278 1.268-.104 2.607-.486 3.593-1.286 1.022-.834.987-2.086.67-3.268a.194.194 0 0 0-.177-.104 7.812 7.812 0 0 0-4.368 3.372c-.036.243.211.382.282.209ZM336.926 154.776c-1.762-.557-2.924-2.504-2.502-4.311-.07.034-.141.069-.211.069a5.229 5.229 0 0 1 2.854 3.998c.035.174.282.174.282 0-.212-1.808-1.339-3.407-2.995-4.241-.071-.035-.176 0-.211.069-.459 1.947.775 4.033 2.712 4.624.141.104.212-.139.071-.208ZM332.558 160.473c-1.093-.835-1.727-2.191-1.621-3.512-.071.035-.106.105-.176.139 1.691.278 3.03 1.912 2.889 3.616 0 .174.246.174.282 0 .105-1.808-1.269-3.581-3.101-3.859-.106 0-.176.035-.176.139-.106 1.46.599 2.886 1.762 3.755.141.069.281-.174.141-.278ZM341.435 161.274a4.95 4.95 0 0 1 1.198-3.65c.106-.105.212-.244.317-.348.247-.208.388.07.458.278.106.278.176.591.212.904a2.77 2.77 0 0 1-.564 1.808c-.106.139.141.278.247.139a2.884 2.884 0 0 0 .599-1.599c.035-.556-.036-1.217-.353-1.669-.387-.591-.951.174-1.233.487a5.013 5.013 0 0 0-.845 1.599c-.212.661-.318 1.356-.247 2.051-.035.174.247.174.211 0Z"/></g><path d="M320.859 100.676h7.258l3.629 6.258V94.418c0-3.442-2.854-6.258-6.342-6.258h-4.545c-3.488 0-6.341 2.816-6.341 6.258s2.853 6.258 6.341 6.258Z" fill="#45A2B9"/><path d="M319.38 95.636c.486 0 .881-.39.881-.87s-.395-.87-.881-.87a.875.875 0 0 0-.881.87c0 .48.394.87.881.87ZM322.904 95.636c.487 0 .881-.39.881-.87s-.394-.87-.881-.87a.876.876 0 0 0-.881.87c0 .48.395.87.881.87ZM326.427 95.636c.486 0 .881-.39.881-.87s-.395-.87-.881-.87a.875.875 0 0 0-.881.87c0 .48.394.87.881.87Z" fill="#89BD88"/><path d="m343.071 211.86 5.468 6.149-7.262 9.887-.782-.564.833-7.992-2.034-2.082 3.777-5.398Z" fill="#FF937E"/><path d="m341.242 219.468 3.051-.366c.816-.103 1.323-.777 1.197-1.55l-.515-3.281 3.51 3.887-7.272 9.835-.782-.564.811-7.961Z" fill="#45A2B9" stroke="#45A2B9" stroke-miterlimit="10"/><path d="m342.552 219.051-.248 3.511c-.045.75-.692 1.287-1.454 1.241" stroke="#FFF8ED" stroke-width=".435" stroke-miterlimit="10" stroke-linecap="square" stroke-linejoin="round"/><defs><linearGradient id="a" x1="199.164" y1="104.704" x2="199.164" y2="161.252" gradientUnits="userSpaceOnUse"><stop stop-color="#B1D9F9"/><stop offset="1" stop-color="#fff"/></linearGradient><linearGradient id="b" x1="320.585" y1="207.691" x2="320.585" y2="83.434" gradientUnits="userSpaceOnUse"><stop stop-color="#D6CC62"/><stop offset="1" stop-color="#9C5138"/></linearGradient><linearGradient id="c" x1="38.193" y1="161.969" x2="38.193" y2="80.669" gradientUnits="userSpaceOnUse"><stop stop-color="#D6CC62"/><stop offset="1" stop-color="#9C5138"/></linearGradient><linearGradient id="d" x1="75.183" y1="162.668" x2="75.183" y2="81.369" gradientUnits="userSpaceOnUse"><stop stop-color="#D6CC62"/><stop offset="1" stop-color="#9C5138"/></linearGradient><linearGradient id="e" x1="269.838" y1="157.846" x2="269.838" y2="88.845" gradientUnits="userSpaceOnUse"><stop stop-color="#D6CC62"/><stop offset="1" stop-color="#9C5138"/></linearGradient><linearGradient id="f" x1="33.858" y1="106.744" x2="62.725" y2="106.744" gradientUnits="userSpaceOnUse"><stop stop-color="#B1E1E6"/><stop offset="1" stop-color="#F2F5FF"/></linearGradient><linearGradient id="g" x1="69.252" y1="44.072" x2="128.035" y2="44.072" gradientUnits="userSpaceOnUse"><stop stop-color="#B1E1E6"/><stop offset="1" stop-color="#F2F5FF"/></linearGradient><linearGradient id="h" x1="258.147" y1="98.955" x2="313.467" y2="98.955" gradientUnits="userSpaceOnUse"><stop stop-color="#B1E1E6"/><stop offset="1" stop-color="#F2F5FF"/></linearGradient><linearGradient id="i" x1="205.58" y1="65.285" x2="250.609" y2="65.285" gradientUnits="userSpaceOnUse"><stop stop-color="#B1E1E6"/><stop offset="1" stop-color="#F2F5FF"/></linearGradient><linearGradient id="j" x1="190.832" y1="215.507" x2="190.832" y2="158.73" gradientUnits="userSpaceOnUse"><stop stop-color="#B3C45A"/><stop offset="1" stop-color="#639C38"/></linearGradient><linearGradient id="k" x1="190.834" y1="203.792" x2="190.834" y2="192.172" gradientUnits="userSpaceOnUse"><stop stop-color="#FADDAF"/><stop offset="1" stop-color="#FABD5A"/></linearGradient><linearGradient id="l" x1="364.183" y1="156.63" x2="376.218" y2="156.63" gradientUnits="userSpaceOnUse"><stop stop-color="#6B9E34"/><stop offset=".14" stop-color="#61933C"/><stop offset="1" stop-color="#1F4A6E"/></linearGradient><linearGradient id="m" x1="174.919" y1="53.746" x2="207.512" y2="80.002" gradientUnits="userSpaceOnUse"><stop stop-color="#6B9E34"/><stop offset=".14" stop-color="#61933C"/><stop offset="1" stop-color="#1F4A6E"/></linearGradient><linearGradient id="n" x1="232.376" y1="86.708" x2="261.937" y2="80.403" gradientUnits="userSpaceOnUse"><stop stop-color="#6B9E34"/><stop offset=".14" stop-color="#61933C"/><stop offset="1" stop-color="#1F4A6E"/></linearGradient><linearGradient id="o" x1="224.066" y1="53.252" x2="228.325" y2="74.1" gradientUnits="userSpaceOnUse"><stop stop-color="#6B9E34"/><stop offset=".14" stop-color="#61933C"/><stop offset="1" stop-color="#1F4A6E"/></linearGradient><linearGradient id="p" x1="321.116" y1="194.541" x2="321.116" y2="-12.121" gradientUnits="userSpaceOnUse"><stop stop-color="#426120"/><stop offset="1" stop-color="#1F4A6E"/></linearGradient><linearGradient id="q" x1="343.789" y1="191.716" x2="343.789" y2="4.033" gradientUnits="userSpaceOnUse"><stop stop-color="#426120"/><stop offset="1" stop-color="#1F4A6E"/></linearGradient><linearGradient id="r" x1="310.901" y1="180.075" x2="358.633" y2="265.853" gradientUnits="userSpaceOnUse"><stop offset=".01" stop-color="#B0BD24"/><stop offset="1" stop-color="#1F4A6E"/></linearGradient><linearGradient id="s" x1="343.728" y1="196.083" x2="371.544" y2="263.566" gradientUnits="userSpaceOnUse"><stop offset=".01" stop-color="#B0BD24"/><stop offset="1" stop-color="#1F4A6E"/></linearGradient><clipPath id="u"><path fill="#fff" transform="matrix(-.96895 -.24726 -.25655 .96653 202.551 97.676)" d="M0 0h66.608v129.998H0z"/></clipPath></defs></svg>