<svg width="208" height="290" fill="none" xmlns="http://www.w3.org/2000/svg"><path d="M14.577 256.361c23.607-11.606 44.073-37.932 97.162-111.94 56.512-78.759 115.425-51.667 121.961-48.33l.204.055.373.247c.025.043 2.513 90.177-71.837 142.93 0 0 79.307-40.874 81.408-137.53.194-26.01 3.097-58.034-33.176-101.636-.002-.003 10.538 3.198 25.12 18.532 71.077 74.745 33.426 198.7-50.537 247.177-53.714 31.012-116.666 31.053-167.43 5.501a176.242 176.242 0 0 1-16.157-8.824c.086-.05.24-.081.37-.156-.466-.309-.907-.575-1.374-.883l13.913-5.143Z" fill="url(#a)"/><defs><linearGradient id="a" x1="160.765" y1="270.974" x2="80.484" y2="-53.447" gradientUnits="userSpaceOnUse"><stop stop-color="#2A6B71"/><stop offset=".076" stop-color="#387566"/><stop offset=".381" stop-color="#6A993F"/><stop offset=".648" stop-color="#8FB323"/><stop offset=".863" stop-color="#A6C311"/><stop offset="1" stop-color="#AEC90B"/></linearGradient></defs></svg>