<svg width="276" height="184" fill="none" xmlns="http://www.w3.org/2000/svg"><path d="M130.643 183.033c102.379.4 109.476.568 139.239 0l-51.694.568c54.487-.627 30.299-.322 51.694-.568-21.561-47.535-64.178-154.174-74.771-180.786-.959-2.409-4.297-2.559-5.507-.265l-56.52 107.17c-1.087 2.062-4 2.18-5.252.214L81.716 36.931c-1.246-1.957-4.14-1.851-5.24.191L.365 178.563c-1.088 2.021.388 4.47 2.685 4.469 47.42-.02 49.056-.306 127.593.001Z" fill="url(#a)"/><path d="M132.432 108.733c.261.373.292.86.079 1.263l-23.869 45.111c-.525.994-2.005.802-2.258-.293L78.974 36.555c-.301-1.3 1.413-2.063 2.18-.97l51.278 73.148ZM272.888 182.802c2.174-.065 3.601-2.312 2.709-4.292L195.917 1.799c-1.472-3.265-6.4-1.736-5.76 1.787l32.17 176.983c.262 1.443 1.572 2.492 3.04 2.492 45.67 0 38.962-.005 47.521-.259Z" fill="#2A6B71"/><defs><linearGradient id="a" x1="169.122" y1="179.035" x2="125.84" y2="-14.277" gradientUnits="userSpaceOnUse"><stop stop-color="#2A6B71"/><stop offset=".076" stop-color="#387566"/><stop offset=".381" stop-color="#6A993F"/><stop offset=".648" stop-color="#8FB323"/><stop offset=".863" stop-color="#A6C311"/><stop offset="1" stop-color="#AEC90B"/></linearGradient></defs></svg>