<svg width="624" height="507" fill="none" xmlns="http://www.w3.org/2000/svg"><path d="M665.937 326.801v113.348H14.281v-65.195h5.081v-41.237h26.85v21.01h26.072l10.31 9.805h10.464v-50.837h24.072v13.106h20.437v25.283h27.447v-31.721h21.657v13.345h11.27l9.747-9.27h11.097v-30.765h31.013v45.65h31.698v10.991h12.292v-16.597h46.845v18.367h17.918v-25.283h27.326v37.731h1.602v-50.837h24.08v13.106h20.428v25.283h27.439v-31.721h21.657v13.345h11.279l9.755-9.27h11.079v-30.765h31.014v45.65h31.715v10.991h12.292v-16.597h24.66v18.367h40.085v-25.283h12.975Z" fill="url(#a)"/><path d="M596.047 280.541H498.79v140.278h97.257V280.541Z" fill="url(#b)"/><path d="M95.198 419.66H35.334v-127.5l59.864-12.777V419.66Z" fill="url(#c)"/><path d="M106.194 420.82h44.448v-94.668l-44.448-9.484V420.82Z" fill="url(#d)"/><path d="M490.827 334.144h-60.098v86.674h60.098v-86.674Z" fill="url(#e)"/><path d="M107.151 301.829c0-4.898-5.211-8.875-11.642-8.875-1.463 0-2.857.206-4.146.577-1.697-3.919-5.912-6.685-10.846-6.685-5.48 0-10.084 3.425-11.313 8.043a9.125 9.125 0 0 0-3.065-.527c-4.561 0-8.266 3.343-8.266 7.475h49.278v-.008Z" fill="url(#f)"/><path d="M218.662 205.684c0-9.978-10.621-18.079-23.718-18.079a30.4 30.4 0 0 0-8.439 1.178c-3.454-7.978-12.04-13.626-22.09-13.626-11.166 0-20.531 6.982-23.05 16.375a18.486 18.486 0 0 0-6.232-1.078c-9.297 0-16.836 6.816-16.836 15.222h100.365v.008Z" fill="url(#g)"/><path d="M535.266 291.83c0-6.792-7.219-12.349-16.126-12.349-2.025 0-3.955.28-5.738.799-2.346-5.426-8.189-9.262-15.027-9.262-7.591 0-13.962 4.75-15.676 11.139a12.55 12.55 0 0 0-4.241-.733c-2.06 0-3.999.494-5.67 1.358-1.887-3.26-5.652-5.491-10.006-5.491-5.314 0-9.781 3.326-10.975 7.796a8.803 8.803 0 0 0-2.969-.51c-4.424 0-8.016 3.244-8.016 7.245h94.453l-.009.008Z" fill="url(#h)"/><path d="M427.942 232.857h-76.881c0-5.244 4.475-9.501 9.997-9.501 2.268 0 4.363.733 6.042 1.951 2.675-4.182 7.522-6.973 13.036-6.973 5.868 0 10.958 3.145 13.511 7.764a8.521 8.521 0 0 1 4.259-1.136c2.805 0 5.28 1.333 6.778 3.359 1.852-4.109 6.145-6.99 11.14-6.99 6.691 0 12.109 5.154 12.109 11.518l.009.008Z" fill="url(#i)"/><path d="M598.883 401.358H52.878c-29.172 0-52.821 23.649-52.821 52.821C.057 483.351 23.705 507 52.877 507h546.006c29.172 0 52.821-23.649 52.821-52.821 0-29.172-23.649-52.821-52.821-52.821Z" fill="url(#j)"/><path d="M643.671 445.202H8.099a8.042 8.042 0 0 0 0 16.084H643.67a8.042 8.042 0 1 0 0-16.084Z" fill="url(#k)"/><path d="M665.929 420.653H14.281v5.59H665.93v-5.59Z" fill="#BACC5F"/><path d="M621.857 386.07s5.99-10.299 12.949-10.587c6.96-.28 6.146-7.838 6.146-7.838s9.271 21.965-19.103 18.425h.008Z" fill="url(#l)"/><path d="M300.285 217.592s17.771-2.478 24.228 4.915c6.457 7.393 14.914-.14 14.914-.14s-18.498 29.482-39.142-4.767v-.008Z" fill="url(#m)"/><path d="M404.397 265.707s6.743-10.43 13.988-10.406c7.245.025 6.778-7.87 6.778-7.87s8.534 23.241-20.774 18.276h.008Z" fill="url(#n)"/><path d="M379.286 210.491s7.869 4.602 7.851 9.55c-.017 4.947 5.93 4.626 5.93 4.626s-17.537 5.813-13.781-14.176Z" fill="url(#o)"/><path d="M22.917 464.789s-2.735-12.95 9.885-10.867c0 0 4-15.008 18.299-9.41 14.3 5.598 8.829 13.321 8.829 13.321s11.148-5.887 19.553 0c0 0 7.574-14.449 18.082-6.282 0 0 13.876-7.064 15.979 4.454 0 0 10.932-5.524 13.036 4.199 0 0 3.782 1.737 3.782 4.594H22.917v-.009ZM387.13 401.356s-1.913-9.072 6.924-7.615c0 0 2.796-10.521 12.82-6.594 10.023 3.927 6.189 9.336 6.189 9.336s7.807-4.125 13.711 0c0 0 5.306-10.127 12.672-4.405 0 0 9.729-4.948 11.2 3.12 0 0 7.661-3.869 9.141 2.939 0 0 2.657 1.219 2.657 3.219H387.13Z" fill="#5C8232"/><path d="M371.73 401.356s-1.194-5.647 4.311-4.742c0 0 1.74-6.553 7.981-4.108 6.241 2.445 3.852 5.812 3.852 5.812s4.864-2.568 8.534 0c0 0 3.307-6.306 7.894-2.741 0 0 6.06-3.079 6.977 1.943 0 0 4.769-2.412 5.687 1.828 0 0 1.653.757 1.653 2H371.73v.008ZM428.167 401.357s-2.389-11.303 8.63-9.484c0 0 3.488-13.098 15.97-8.208 12.482 4.89 7.712 11.625 7.712 11.625s9.729-5.138 17.069 0c0 0 6.605-12.613 15.78-5.483 0 0 12.11-6.167 13.945 3.886 0 0 9.547-4.817 11.382 3.663 0 0 3.307 1.515 3.307 4.009h-93.787l-.008-.008Z" fill="#5C8232"/><path d="M480.275 401.356s-1.913-9.072 6.925-7.615c0 0 2.804-10.521 12.819-6.594 10.024 3.927 6.189 9.336 6.189 9.336s7.808-4.125 13.702 0c0 0 5.306-10.127 12.673-4.405 0 0 9.729-4.948 11.2 3.12 0 0 7.661-3.869 9.141 2.939 0 0 2.657 1.219 2.657 3.219h-75.314.008Z" fill="#5C8232"/><path d="M502.451 401.356s-1.913-9.072 6.925-7.615c0 0 2.804-10.521 12.819-6.594 10.023 3.927 6.189 9.336 6.189 9.336s7.816-4.125 13.711 0c0 0 5.306-10.127 12.672-4.405 0 0 9.729-4.948 11.201 3.12 0 0 7.66-3.869 9.14 2.939 0 0 2.649 1.219 2.649 3.219h-75.315.009Z" fill="#5C8232"/><path d="M562.428 401.357s-.961-4.536 3.462-3.812c0 0 1.403-5.261 6.414-3.293 5.012 1.959 3.099 4.668 3.099 4.668s3.904-2.058 6.856 0c0 0 2.648-5.063 6.336-2.198 0 0 4.864-2.478 5.6 1.556 0 0 3.834-1.935 4.57 1.473 0 0 1.325.61 1.325 1.614h-37.653l-.009-.008Z" fill="#5C8232"/><path d="M554.699 117.999H541.96v361.948h12.739V117.999Z" fill="url(#p)"/><path d="M606.636 117.999h-39.198v361.948h39.198V117.999Z" fill="url(#q)"/><path d="M578.218 128.26h-10.78v351.686h10.78V128.26Z" fill="#A7BD48"/><path d="M567.466 377.187s-2.892-17.025-14.283-23.216c-11.391-6.191-18.445-22.706-24.954-25.283v-1.547s7.902 4.709 14.1 14.621c4.89 7.821 14.282 8.43 19.164 12.728 4.882 4.297 9.946 13.757 9.946 13.757l-3.982 8.94h.009Z" fill="#A7BD48"/><path d="M651.704 294.028v2.42c-9.374 4.611-20.505 26.37-30.529 30.692-11.581 4.989-17.727 25.019-17.727 25.019l-1.852-5.162s7.6-20.252 16.134-22.055c8.544-1.811 19.536-15.223 26.037-23.867 2.986-3.96 5.774-6.01 7.929-7.055l.008.008Z" fill="#385A36"/><path d="M582.838 323.87s-.363 137.594 0 142.064c0 0 4.7-118.675 0-142.064Z" fill="#A7BD48"/><path d="M547.029 284.954s-3.661-15.091-11.694-16.351c-4.951-.774-11.434-.551-12.88-1.58-1.445-1.029-6.336-10.102-6.336-10.102s6.146 9.805 10.309 9.805c4.164 0 15.373 1.293 17.182 5.895 1.809 4.602 5.964 7.525 5.964 7.525l-2.527 4.816-.018-.008Z" fill="#325743"/><path d="M574.528 437.524s.104 6.537-7.73 10.62c-7.833 4.084-15.563 2.725-13.494 9.805 2.068 7.08-14.802 3.812-18.281 11.164-3.48 7.352 5.661 10.62 5.661 10.62h48.325s8.82-9.253 0-17.972c-8.82-8.71-14.472-24.229-14.472-24.229l-.009-.008Z" fill="url(#r)"/><path d="M607.42 449.765s.07 4.635-4.812 7.542c-4.874 2.897-9.686 1.934-8.396 6.956 1.289 5.022-9.21 2.709-11.383 7.928-2.164 5.22 3.523 7.542 3.523 7.542h30.079s5.488-6.57 0-12.761c-5.488-6.183-9.011-17.207-9.011-17.207Z" fill="url(#s)"/><path d="M477.61 399.297h132.807v-4.866H477.61v4.866ZM477.61 406.519h132.807v-4.865H477.61v4.865ZM473.957 461.636h4.094v-32.544h-4.094v32.544ZM492.308 461.636h4.094v-32.544h-4.094v32.544ZM468.573 429.091h141.844v-4.865H468.573v4.865ZM477.61 421.204h132.807v-4.865H477.61v4.865ZM477.61 413.863h132.807v-4.865H477.61v4.865ZM603.041 461.636h4.094v-32.544h-4.094v32.544ZM583.886 461.636h4.094v-32.544h-4.094v32.544Z" fill="#705A3F"/><path d="M192.772 248.346h-13.497l-6.748 11.229v-22.396c0-6.176 5.307-11.229 11.793-11.229h8.452c6.486 0 11.793 5.053 11.793 11.229 0 6.176-5.307 11.167-11.793 11.167Z" fill="#EE7A64"/><path d="M182.42 240.298c.905 0 1.638-.698 1.638-1.559 0-.862-.733-1.56-1.638-1.56-.904 0-1.638.698-1.638 1.56 0 .861.734 1.559 1.638 1.559ZM188.971 240.298c.904 0 1.638-.698 1.638-1.559 0-.862-.734-1.56-1.638-1.56-.905 0-1.638.698-1.638 1.56 0 .861.733 1.559 1.638 1.559ZM195.523 240.298c.904 0 1.638-.698 1.638-1.559 0-.862-.734-1.56-1.638-1.56-.905 0-1.638.698-1.638 1.56 0 .861.733 1.559 1.638 1.559Z" fill="#FFF8ED"/><path d="m164.836 461.338-1.376-2.558-8.124.249-.131 2.309 3.8 6.3 6.879-5.053-1.048-1.247Z" fill="#FF937E"/><path d="m159.856 459.03-1.572 9.295c-.066.499-.328-1.871-.524-2.37-.59-1.31-1.507-3.057-2.818-4.18l.328-3.369 4.586.624Z" fill="#D4635F"/><path d="m165.36 461.214-5.831 5.739s-3.472-5.053-4.259-5.677c-.131-.124-.393 0-.393.188l-.982 8.297h24.175c.262 0 .524-.312.524-.624v-1.747a.757.757 0 0 0-.328-.624l-12.906-5.552Z" fill="#fff"/><path d="m125.46 461.336-1.31-2.557-7.469-1.061-.852 3.618 3.8 6.301 6.879-5.053-1.048-1.248Z" fill="#FF937E"/><path d="m119.76 458.841-1.179 9.108s-.328-4.616-2.752-6.675l.655-2.87 3.276.437Z" fill="#D4635F"/><path d="M125.985 461.212s-2.883 3.369-5.635 5.365c-1.638 1.185-3.669-4.679-4.455-5.303-.131-.124-.393 0-.393.187l-.917 8.36h24.175c.262 0 .524-.312.524-.624v-1.747a.756.756 0 0 0-.327-.623l-12.972-5.615Z" fill="#fff"/><path d="M163.329 360.649s3.079 35.372 3.407 45.166c.262 9.795-1.769 53.339-1.769 53.339l-9.958.062s-11.99-72.927-24.503-96.508l32.823-2.059Z" fill="#1E2046"/><path d="m157.762 449.484.065 9.544M147.67 362.521s8.845 40.862 8.845 47.162c0 .999 1.179 33.875 1.244 36.495M154.616 454.912l10.483-.312" stroke="#fff" stroke-width=".523" stroke-miterlimit="10"/><path d="M158.744 360.4s-2.555 29.757-9.827 50.593c-5.896 16.844-23.455 48.348-23.455 48.348l-10.024.437 12.579-48.286c.656-2.495 1.114-5.115 1.245-7.673.655-9.794-1.441-29.57-2.358-42.296l31.84-1.123Z" fill="#45A2B9"/><path d="M136.99 409.807c-5.372 16.157-16.379 49.907-16.379 49.907M138.171 361.147s3.407 38.242.327 44.168M116.879 455.409l10.744.562" stroke="#fff" stroke-width=".523" stroke-miterlimit="10"/><path d="m201.327 300.199-.59 1.747s-4.913 9.981-6.944 15.284l-4.128-16.033s1.9-2.932 3.014-4.928c0 0-2.031-9.919-1.704-10.668.656-1.372 3.014 4.928 3.342 4.18.917-1.934 1.441-3.369 1.703-3.618 0 0 1.703-10.044 2.752-8.797 1.048 1.186.393 8.422.393 8.422s4.193-7.424 5.7-7.236c1.441.187.196 3.181.196 3.181s1.245-2.807 1.9-1.809c.655.998-.852 4.429-.852 4.429s3.145-1.622 3.145-.374c.066 1.185-7.927 16.22-7.927 16.22Z" fill="#FF937E"/><path d="m205.063 281.733-3.08 5.614M206.111 284.353l-2.293 4.117M197.923 285.476c.262.374 7.862 3.743 7.862 3.743M195.433 291.215s2.555 2.933 2.096 5.054" stroke="#D4635F" stroke-width=".966" stroke-miterlimit="10"/><path d="M181.739 313.924s-34.986-22.209-38.851-6.8c-1.966 7.923 33.675 22.583 44.55 24.766 1.245.25 2.556-.436 2.949-1.559l10.417-28.635-8.714-4.429-10.351 16.657Z" fill="#FF937E"/><path d="M181.739 313.924s-33.675-26.326-37.541-10.918c-1.965 7.923 20.703 30.943 43.568 29.196 1.311-.124 2.555-.436 2.948-1.559l10.09-29.009-11.858-5.864-7.207 18.154Z" fill="#AEC90B"/><path d="M169.421 317.48c-4.521-7.486-10.548-13.912-17.755-19.214-3.734-.312-6.551.936-7.534 4.803-1.638 6.551 13.3 23.145 31.447 27.761-1.572-4.616-3.603-9.108-6.158-13.35Z" fill="#AEC90B"/><path d="M119.631 314.048c.328-8.297 14.283-15.783 14.283-15.783l4.914-3.307-.066.25 8.714 6.862 2.686-2.183-.131-1.435 2.62.873c1.114.125 6.355 5.552 8.059 8.11a18.349 18.349 0 0 1 3.079 9.171l5.372 56.083-45.402 1.497c.065-.062-4.652-47.287-4.128-60.138Z" fill="#AEC90B"/><path d="M136.469 345.551c-3.276-6.176-6.224-12.54-9.107-18.903-2.555-5.614-4.848-11.354-6.224-17.28-.851 1.497-1.441 3.057-1.507 4.679-.524 12.851 4.193 60.076 4.193 60.076l29.876-.998c-6.421-8.797-12.186-17.967-17.231-27.574Z" fill="#AEC90B" opacity=".53"/><path d="M140.138 277.365s-1.114-9.233.72-9.857c1.835-.686 9.369-1.497 9.369-1.497s-.983-3.868 1.966-3.868c2.948 0 2.555 3.868 2.555 3.868s2.096-2.682 3.538-1.747c1.375.936 1.572 3.494.262 3.868 0 0 3.341 1.622 1.834 2.932-1.572 1.31-2.686.562-2.686.562s2.555 1.622 1.114 2.557c-1.442.936-15.986 9.046-15.986 9.046l-2.686-5.864Z" fill="#2A3E5E" stroke="#2A3E5E" stroke-width=".225" stroke-miterlimit="10"/><path opacity=".76" d="M139.679 271.626c0 2.745.327 5.739.327 5.739l2.686 5.864s4.455-2.495 8.714-4.866c-3.21-3.493-7.272-6.3-11.727-6.737Z" fill="#FF937E"/><path d="M156.647 273.002s1.704 11.978-1.179 17.592c-.393.749-1.179 1.248-2.031 1.311-1.441.124-2.948 0-3.669-.125 1.245.125.852 3.181 2.097 7.236 0 0-.393 3.619-6.814 2.745-2.097-.249-7.6-5.427-7.6-5.427s2.752-7.549 2.948-9.919c.131-1.248.131-2.496 0-3.182-1.572-.125-2.031-2.87-1.441-4.367.59-1.435 3.407-1.31 3.996-.062.197.374.656.811 1.18.249.458-.499.524-5.053 1.769-5.614 4.127.624 7.993.374 9.303 0 1.245-.375 1.441-.437 1.441-.437Z" fill="#FF937E"/><path d="M139.352 280.051c.72-2.682 2.686-.561 2.686-.561l-2.686.561Z" fill="#D4635F"/><path d="m150.75 291.904-3.734-.499.327.936c.59 1.684 3.276 1.372 3.407-.437Z" fill="#1E2046"/><path d="M153.245 280.675s1.376 3.93 1.245 3.93c-.458 0-1.441-.062-1.441-.062l.196-3.868Z" fill="#D4635F"/><path d="M154.162 281.674c0 .375.197.749.393.749.197 0 .393-.312.328-.749 0-.374-.197-.748-.393-.748-.131 0-.328.312-.328.748ZM150.886 281.735c0 .375.196.749.393.749.196 0 .393-.312.327-.749 0-.374-.196-.748-.393-.748-.196 0-.327.374-.327.748Z" fill="#020F2B"/><path d="M148.92 279.053c-.459.062.065-.999 2.031-1.373.655-.125 1.179.562.851 1.061-.196.374-1.113.124-2.882.312ZM156.323 278.055c.459.125.131-1.185-1.31-1.622-.983-.312-1.18.499-.852 1.123.197.25 1.441.312 2.162.499Z" fill="#1E2046"/><path d="m155.537 285.355-5.045-.187s1.114 1.996 2.555 2.058c1.18 0 2.49-1.871 2.49-1.871Z" fill="#fff"/><path d="M111.504 349.982c5.503 2.433 15.069 9.794 15.069 9.794s16.509 6.675 17.165 5.989c.655-.686-4.062-3.93-4.062-3.93.982-.062 6.027 2.495 6.42 2.059.393-.437-5.765-3.806-5.634-4.18.131-.374 6.42 3.181 6.944 2.558.459-.687-5.896-4.18-5.896-4.554 0-.375 6.617 2.994 6.814 1.996.131-.998-10.417-4.929-10.679-5.615-.262-.748 4.782-.436 6.355-1.435 1.572-.998-9.828-1.746-9.828-1.746-2.162-.624-15.658-11.042-15.658-11.042l-7.01 10.106Z" fill="#FF937E"/><path d="M128.8 360.65c.459-4.055.983-8.11 1.376-12.165-4.717-3.244-11.662-8.609-11.662-8.609l-7.01 10.106c5.503 2.433 15.069 9.794 15.069 9.794s.851.375 2.227.874Z" fill="#1E2046"/><path d="M117.139 336.32s27.189-21.086 15.92-34.437c-6.027-7.174-41.471 30.257-42.323 36.62l33.872 20.587 9.827-10.917-17.296-11.853Z" fill="#AEC90B"/><mask id="t" style="mask-type:luminance" maskUnits="userSpaceOnUse" x="90" y="295" width="111" height="80"><path d="m188.943 296.08-7.206 17.905s-29.089-22.708-36.296-13.538l-6.617-5.178.065-.249-4.979 3.244s-2.031 1.06-4.52 2.87c-10.942 2.62-37.934 31.816-38.655 37.368l31.513 19.152a1704.07 1704.07 0 0 0 1.573 16.532l45.402-1.498-4.455-45.977c6.945 3.743 14.938 6.239 22.931 5.615 1.31-.125 2.555-.437 2.948-1.56l10.089-29.009-11.793-5.677Zm-71.805 40.238s1.31-.998 3.21-2.745c.131 1.685.262 3.432.394 5.178l-3.604-2.433Z" fill="#fff"/></mask><g mask="url(#t)" fill="#fff"><path d="M77.897 337.252c5.897-11.105 14.152-21.024 24.11-29.071a96.495 96.495 0 0 1 16.052-10.606c2.62-1.372 7.337-3.743 9.041.063.655 1.497.72 3.244.982 4.803.262 1.934.525 3.868.852 5.865 1.245 8.609 2.424 17.218 3.669 25.827 0 .124.131.187.197.187 4.062.125 7.468-2.308 10.548-4.492 3.013-2.183 6.551-4.991 10.548-4.616 5.896.499 8.713 7.049 10.482 11.603 2.031 5.178 3.538 10.605 6.748 15.284 3.014 4.305 7.535 8.048 13.169 8.422.327 0 .327-.436 0-.436-5.438-.375-9.828-4.055-12.71-8.235-3.276-4.804-4.783-10.418-6.945-15.721-1.769-4.242-4.258-9.857-9.369-11.167-3.799-.936-7.272 1.061-10.22 3.119-3.603 2.496-7.469 5.927-12.251 5.802l.196.187c-1.114-8.047-2.293-16.095-3.407-24.142-.262-1.997-.589-3.993-.851-5.989-.262-1.81-.394-3.681-.852-5.428-.328-1.247-1.048-2.495-2.359-3.057-1.31-.561-2.882-.312-4.193.125-1.507.499-2.882 1.248-4.193 1.996a102.145 102.145 0 0 0-4.455 2.558c-2.817 1.685-5.503 3.556-8.124 5.49-5.306 3.993-10.22 8.484-14.544 13.475-4.848 5.552-9.107 11.541-12.514 18.029-.196.125.262.374.393.125Z"/><path d="M125.196 287.594c2.817 4.991 5.897 9.795 9.304 14.411 1.637 2.246 3.406 4.429 5.175 6.55 1.835 2.184 3.669 4.367 5.7 6.301 8.386 8.173 19.065-3.992 23.193-10.543 3.144-4.928 5.306-10.418 7.075-15.908.066-.249-.393-.374-.458-.125-2.883 9.233-7.273 19.028-15.2 25.328-1.9 1.498-4.193 2.808-6.682 3.307-2.687.499-5.176-.187-7.142-1.996-1.965-1.747-3.603-3.806-5.306-5.802-1.835-2.121-3.538-4.305-5.242-6.551a123.82 123.82 0 0 1-10.024-15.221c-.131-.25-.524 0-.393.249ZM175.057 303.566a1288.212 1288.212 0 0 0 18.279 35.184c1.768 3.244 3.537 6.551 5.306 9.795.131.249.524 0 .393-.25-6.355-11.603-12.579-23.269-18.541-35.06-1.703-3.306-3.341-6.613-5.044-9.919-.131-.25-.524 0-.393.25ZM179.313 301.318c7.666 11.728 15.266 23.519 22.669 35.372 2.096 3.369 4.127 6.675 6.224 10.044.131.25.59 0 .393-.25a1832.467 1832.467 0 0 0-22.406-35.496l-6.486-9.919c-.131-.25-.525 0-.394.249ZM84.51 336.691c10.352.375 20.703 0 30.924-1.185.327-.062.327-.499 0-.437-10.286 1.186-20.638 1.56-30.924 1.186-.327-.063-.327.374 0 .436ZM94.474 321.722c6.289 3.619 12.644 7.237 18.934 10.855.262.125.524-.249.262-.374-6.289-3.618-12.644-7.237-18.934-10.855-.328-.187-.524.187-.262.374Z"/></g><g clip-path="url(#u)"><path d="M231.053 293.398c8.303 37.919 11.194 38.311 50.103 24.825 3.018-1.072 3.721-7.134 1.989-9.772l-.047-.077c-1.213-1.795-3.571-2.639-5.721-2.002-10.219 2.99-24.79 6.2-26.468 6.109-5.562-.339-9.138-10.19-12.713-21.536-.012-.458.174-2.88.559-6.033.069-.503-.839-5.406-2.469 2.052-.302 1.354-1.808-9.089-3.431-8.387-.385.164.59 6.318.51 6.363 0 0-2.285-6.348-3.3-5.625-.258.196-.205 2.743-.205 2.743s-.009-2.211-.666-2.049c-.657.162-.413 2.756-.413 2.756s-.816-1.502-1.251-1.155c-.388.424 3.523 11.788 3.523 11.788Z" fill="#A94846"/><path d="m230.029 281.19 1.377 4.434M228.829 282.842l1.229 3.228M234.214 284.826l-5.212 1.372M235.383 287.779s-1.878.639-2.186 2.512" stroke="#753231" stroke-width=".5" stroke-miterlimit="10" stroke-linecap="round"/><path d="m241.731 457.227-3.934 10.655s-3.71 6.097-4.734 3.114c-1.024-2.982-2.381-4.748-2.381-4.748l2.166-11.417 8.883 2.396Z" fill="#A94846"/><path d="m229.852 466.043-12.236 3.139c-.513.133-.407.744.167.886 4.913 1.218 18.155 4.369 21.6 5.223.447.111.785-.13.741-.466-.27-1.756-1.128-8.336-1.447-8.415 0 0-3.537 3.217-4.888 2.427-1.112-.665-2.761-2.113-2.996-2.496-.109-.352-.555-.463-.941-.298Z" fill="#FFC56B"/><path d="m227.581 466.129 1.354 2.025M226.119 466.741l1.354 2.025" stroke="#fff" stroke-width=".814" stroke-miterlimit="10" stroke-linecap="round"/><path d="m284.748 460.871 1.498 11.221s-.409 6.98-2.737 4.779c-2.328-2.202-4.365-3.226-4.365-3.226l-3.434-11.116 9.038-1.658Z" fill="#A94846"/><path d="m278.279 473.82-9.408 7.999c-.435.347-.025.838.552.721 4.985-1.038 18.289-3.848 21.767-4.61.433-.088.661-.422.472-.728-1.105-1.443-4.981-6.952-5.27-6.893 0 0-1.677 4.392-3.211 4.271-1.343-.073-3.415-.716-3.892-.964-.286-.201-.735-.052-1.01.204Z" fill="#FFC56B"/><path d="m276.285 474.885 2.178 1.255M275.281 476.066l2.178 1.254" stroke="#fff" stroke-width=".814" stroke-miterlimit="10" stroke-linecap="round"/><path d="M284.316 344.798c.903 6.915 4.128 13.561 3.664 21.242-.525 8.901-4.428 21.187-5.245 30.405-.816 9.218-1.495 9.959-1.626 20.906-.174 13.6 5.215 35.01 10.118 49.478-5.595 2.772-10.721 3.58-16.641 5.297-8.132-17.608-14.656-37.61-15.37-56.433-.522-14.292 2.443-25.641 5.409-38.484.352-1.537-1.241-3.686-2.603-.45-11.447 27.178-15.373 49.268-20.307 88.26-6.387-1.063-9.407-1.227-15.874-2.245.139-20.949 2.919-43.584 6.762-65.37 3.906-21.77 12.857-39.562 27.943-59.861 7.288 2.001 16.479 5.513 23.77 7.255Z" fill="#45A2B9"/><mask id="v" style="mask-type:luminance" maskUnits="userSpaceOnUse" x="225" y="337" width="67" height="136"><path d="M284.316 344.798c.903 6.915 4.128 13.561 3.664 21.242-.525 8.901-4.428 21.187-5.245 30.405-.816 9.218-1.495 9.959-1.626 20.906-.174 13.6 5.215 35.01 10.118 49.478-5.595 2.772-10.721 3.58-16.641 5.297-8.132-17.608-14.656-37.61-15.37-56.433-.522-14.292 2.443-25.641 5.409-38.484.352-1.537-1.241-3.686-2.603-.45-11.447 27.178-15.373 49.268-20.307 88.26-6.387-1.063-9.407-1.227-15.874-2.245.139-20.949 2.919-43.584 6.762-65.37 3.906-21.77 12.857-39.562 27.943-59.861 7.288 2.001 16.479 5.513 23.77 7.255Z" fill="#fff"/></mask><g mask="url(#v)" fill="#FFF8ED"><path d="M293.951 385.321c-4.898 1.97-9.858 3.664-14.989 4.991a120.758 120.758 0 0 1-7.648 1.808c-1.298.263-3.703.836-4.455-.649-.877-1.777 2.143-3.107 3.286-3.799 2.108-1.231 4.263-2.386 6.418-3.541 4.294-2.25 8.618-4.362 12.784-6.642 4.81-2.642 9.525-5.436 13.752-8.936.258-.196.638.158.38.354-6.839 5.581-14.878 9.566-22.724 13.599-3.956 2.008-7.928 4.077-11.694 6.392-.5.331-1.063.646-1.451 1.07-.599.696-.56 1.55.381 1.848.923.359 2.094.064 3.023-.095 2.372-.452 4.713-1.041 7.054-1.63a134.041 134.041 0 0 0 15.728-5.198c.322-.18.461.309.155.428ZM227.574 408.826a72.722 72.722 0 0 0 11.699-5.416c1.867-1.097 3.67-2.209 5.395-3.536 1.628-1.22 3.098-2.61 3.885-4.494.048.077.014.198.062.275-.983-.893-2.406-.921-3.671-.78-1.265.142-2.499.42-3.717.638-2.58.466-5.112 1.007-7.661 1.61-5.018 1.16-9.975 2.595-14.838 4.184-.305.119-.444-.37-.139-.489 5.248-1.753 10.621-3.215 16.072-4.463 2.694-.632 5.418-1.126 8.142-1.621 2.002-.348 4.632-.996 6.247.574.111.093.078.214.061.275-1.622 3.691-5.805 6.033-9.28 8.03a69.9 69.9 0 0 1-12.102 5.642c-.305.119-.444-.37-.155-.429ZM255.736 422.692a72.998 72.998 0 0 0 17.554-11.632c1.26-1.117 2.599-2.279 3.636-3.581.422-.546.877-1.212.932-1.913-.003-1.236-1.57-1.234-2.466-1.196-1.856.06-3.718.638-5.435 1.187-1.717.549-3.467 1.219-5.201 1.829-4.03 1.535-7.999 3.345-11.81 5.324-.305.12-.541-.264-.283-.46 3.569-1.844 7.361-3.503 11.247-5.008a156.581 156.581 0 0 1 6.036-2.143c1.798-.594 3.706-1.095 5.562-1.155 1.232-.02 2.732.222 2.749 1.656-.03 1.356-1.208 2.429-2.065 3.321a74.146 74.146 0 0 1-8.698 7.394 73.618 73.618 0 0 1-11.522 6.76c-.322.18-.541-.264-.236-.383ZM290.025 427.356a72.745 72.745 0 0 1-9.376 3.394c-2.663.769-6.13 1.989-8.885.851-.366-.155-1.035-.451-1.207-.818-.266-.521-.097-1.389-.011-1.952.271-1.492.989-2.873 1.865-4.085 1.737-2.364 4.155-4.233 6.618-5.767 2.962-1.864 6.224-3.33 9.486-4.795.305-.12.541.264.283.46-5.045 2.257-10.235 4.545-14.226 8.428-1.018.982-2.005 2.102-2.69 3.361-.374.622-.638 1.337-.837 2.067-.167.608-.385 1.658.009 2.211.851 1.12 3.157.912 4.422.771 1.489-.216 3.029-.614 4.504-1.028a71.346 71.346 0 0 0 9.665-3.452c.402-.225.701.174.38.354ZM260.932 456.528a39.654 39.654 0 0 0 8.809-4.314c2.754-1.851 5.592-4.006 7.602-6.626.827-1.03 2.773-3.666 1.073-4.672-1.352-.79-3.388-.32-4.8.11-3.528.945-6.998 2.424-10.354 3.736-3.95 1.49-7.87 3.117-11.772 4.684-.305.119-.444-.37-.139-.49 3.903-1.566 7.886-3.178 11.772-4.683a276.34 276.34 0 0 1 6.069-2.265c1.814-.654 3.725-1.415 5.664-1.779 1.282-.202 2.899-.386 3.978.401 1.207.819.697 2.187.206 3.234-1.472 3.144-4.537 5.633-7.341 7.666-3.223 2.32-6.792 4.164-10.565 5.503-.369.103-.508-.386-.202-.505Z"/><path d="M252.958 417.651c-.571 1.093-2.124 1.292-3.231 1.603-1.684.427-3.368.854-5.099 1.205a55.553 55.553 0 0 1-4.774.766c-.768.069-1.489.216-2.272.087-.399-.034-1.292-.256-1.448-.684-.172-.368.125-1.204.305-1.614.247-.653.557-1.291.915-1.852.829-1.289 1.944-2.377 3.089-3.327 2.388-2.007 4.982-3.768 7.653-5.315a62.934 62.934 0 0 1 9.436-4.613c.305-.119.444.37.139.489a63.302 63.302 0 0 0-14.251 7.773c-2.208 1.596-4.593 3.344-5.913 5.681a5.329 5.329 0 0 0-.724 1.899c-.05.183-.133.487.009.717.111.092.43.172.541.264.446.111.909.161 1.326.134 1.52-.078 2.962-.371 4.468-.647 1.651-.306 3.238-.627 4.777-1.025.802-.191 1.603-.382 2.358-.65.802-.191 1.811-.396 2.219-1.139.211-.273.624-.041.477.248ZM222.101 448.789a30.672 30.672 0 0 0 14.936-7.538c.727-.664 3.551-3.018 2.136-3.823-1.415-.806-3.501-.153-4.897.216-3.303.87-6.496 1.833-9.705 2.857-3.595 1.188-7.143 2.453-10.691 3.717-.305.12-.444-.37-.139-.489a833.76 833.76 0 0 1 10.852-3.807c3.595-1.189 7.206-2.437 10.957-3.197 1.234-.279 3.059-.476 4.138.311 1.063.848.156 1.923-.523 2.664a31.65 31.65 0 0 1-7.098 5.777c-3.009 1.788-6.349 3.039-9.811 3.741-.288.058-.444-.37-.155-.429ZM260.307 384.78a43.111 43.111 0 0 1-7.708 1.533c-1.393.109-2.785.219-4.209.191-1.087-.01-2.399.055-3.27-.746-1.87-1.632 1.231-3.008 2.451-3.485 2.361-.909 4.782-1.544 7.22-2.239 2.791-.737 5.551-1.613 8.028-2.948.305-.119.541.264.283.46-4.729 2.596-10.285 3.233-15.312 5.171-.674.223-1.364.507-1.944.883-.419.286-.951.738-.765 1.304.122.55.79.846 1.301.972 1.467.364 3.293.167 4.749.073 3.057-.217 6.07-.77 8.974-1.674.369-.104.508.385.202.505ZM233.2 377.023c7.454-1.596 15.357-3.341 21.167-8.398a18.8 18.8 0 0 0 3.464-3.949c.602-.955.948-1.974.094-2.835-.649-.616-1.573-.975-2.419-1.12-2.059-.445-4.22-.266-6.317-.071-2.161.179-4.338.419-6.499.598-4.836.491-9.657 1.181-14.478 1.87-.352.043-.491-.447-.139-.489 4.63-.737 9.29-1.336 13.998-1.859 2.385-.253 4.771-.506 7.14-.699 2.161-.179 4.386-.342 6.572.134 1.276.317 2.852 1.032 3.174 2.346.183.825-.208 1.508-.599 2.191-.488.788-1.103 1.545-1.719 2.302-2.46 2.769-5.697 4.89-9.167 6.369-4.499 2.004-9.339 3.013-14.197 4.083-.224.074-.38-.354-.075-.473ZM294.688 366.923c-4.844 1.269-9.731 2.201-14.694 2.661-2.53.282-5.09.427-7.617.451-2.048.012-4.289.236-6.217-.437-1.435-.485-2.672-1.441-2.512-3.026.164-1.843 1.908-3.49 3.359-4.56 1.95-1.401 4.28-2.447 6.418-3.542 2.444-1.213 4.824-2.442 7.267-3.656a2396.623 2396.623 0 0 1 16.54-7.92c.305-.119.541.264.283.46-9 4.266-18.065 8.517-26.958 13.134-1.817.914-3.65 1.889-5.026 3.433-.696.802-1.458 1.847-1.486 2.945.053 1.052.877 1.776 1.801 2.135 1.848.718 4.073.554 5.992.51a78.647 78.647 0 0 0 6.849-.381c5.315-.502 10.602-1.401 15.751-2.789.48-.011.619.479.25.582ZM290.212 449.102c-4.848 1.787-9.464 4.216-13.574 7.29a32.57 32.57 0 0 0-2.887 2.338c-.178.151-.58.376-.647.62-.066.243.203.505.378.613.444.37 1.035.451 1.562.517 1.309.195 2.702.085 3.997.081 1.376-.049 2.816-.082 4.192-.131 3.265-.23 6.563-.582 9.831-1.071.352-.043.427.43.139.489-3.141.521-6.311.905-9.496 1.09a56.1 56.1 0 0 1-4.816.171c-1.375.049-2.832.142-4.188-.129-.783-.129-1.707-.488-2.051-1.223-.172-.367-.139-.489.153-.806a17.774 17.774 0 0 1 1.678-1.404 52.308 52.308 0 0 1 6.895-4.788c2.751-1.591 5.708-2.938 8.662-4.025.339-.241.478.249.172.368ZM246.515 444.964a51.832 51.832 0 0 0-6.891 2.776c-1.029.524-2.138 1.094-3.12 1.695-1.079.707-1.761 1.707-.748 2.738.743.769 1.811 1.099 2.816 1.413 1.259.377 2.569.571 3.911.644 2.541.175 5.135-.092 7.648-.314.352-.042.347.476-.005.519-2.946.309-5.939.542-8.91.196a17.17 17.17 0 0 1-4.276-1.06c-.86-.343-1.67-.869-2.125-1.696-1.129-2.099 2.083-3.382 3.578-4.116 2.54-1.319 5.159-2.424 7.902-3.239.369-.103.525.325.22.444Z"/></g><path opacity=".5" d="M278.901 345.665s-5.88 14.784 9.955 19.163M263.013 341.727c-.777.847-3.609 13.204-13.438 11.028M272.199 467.896l19.298-5.547M223.812 456.49l19.466 4.304" stroke="#fff" stroke-width=".601" stroke-miterlimit="10"/><path d="M277.915 288.704c-.386-1.33.995-4.886 2.123-5.776 3.176-2.396 6.252-2.933 10.161-2.029 3.08.698 16.789 11.112-1.401 20.832" fill="#45A2B9"/><path d="M298.288 281.214s1.406-2.9-.799-3.056c-2.206-.157-6.668 4.454-4.251 7.327s10.148 3.749 11.19.434c1.106-3.299-1.58-6.433-6.14-4.705Z" fill="#45A2B9"/><path d="M297.653 282.291c1.246-1.315 2.227-3.411 1.847-5.259-.35-1.711-2.553-2.127-4.048-1.393-1.592.84-2.474 2.57-2.842 4.168-.419 1.78-.183 3.658.52 5.326.172.368-.486.53-.594.178-1.249-2.908-1.017-6.749 1.279-9.168.971-1.059 2.433-1.671 3.934-1.429 1.42.287 2.433 1.317 2.45 2.751.092 1.907-.776 3.836-2.118 5.257-.228.333-.719-.113-.428-.431Z" fill="#45A2B9"/><path d="M276.259 291.022c2.012-7.362 7.638-7.007 9.028-6.858 1.182.163 5.371.292 5.434 9.533.014.198.172.367.38.354.832-.054 2.658-.251 3.052 1.796.331 2.03-1.65 3.294-2.898 3.374-.352.043-1.185.097-1.395.369-.098.106-.466.209-.899.297l.754 10.452c-20.593 7.045-11.541-3.64-11.541-3.64l2.373-6.688c-.272-.002-1.52.078-1.52.078-2.075-.384-4.93-1.157-2.768-9.067Z" fill="#A94846"/><path d="M293.304 295.961s-1.349-2.543-2.857.981l2.857-.981Z" fill="#753231"/><path d="M283.75 293.528c-1.024.006-1.928.822-1.875 1.874.006.976.86 1.838 1.964 1.787 1.024-.007 1.928-.822 1.875-1.875-.069-.991-.924-1.853-1.964-1.786ZM275.536 294.416c.865-.175 1.736-.869 1.714-1.784-.025-.656-.433-1.406-.974-1.67 0 0-.727 2.158-.74 3.454Z" fill="#C25350"/><path d="m278.884 293.882-.844-.404c-.191-.048-.252-.323-.091-.413l1.292-1.239" fill="#753231"/><path d="M283.147 290.001c.252.322.088-.823-.372-1.132-.414-.232-.974-.176-1.201.157.063.016.91.161 1.573.975ZM277.507 289.448c-.449.148.472-.728.952-.739.48-.011.924.359.871.8-.017.061-.86-.343-1.823-.061ZM280.77 292.465c-.163.349-.358.561-.549.514-.191-.048-.236-.384-.072-.733.163-.349.357-.561.549-.513.128.031.172.367.072.732ZM278.476 291.637c-.147.288-.358.561-.532.452-.192-.047-.173-.367-.089-.671.147-.289.357-.561.532-.453.192.047.236.383.089.672Z" fill="#183350"/><path d="M281.287 295.062c-.255-.063-4.336-1.335-4.336-1.335s.314 2.092 1.351 2.284c1.038.193 2.985-.949 2.985-.949Z" fill="#FFF8ED"/><path d="M283.755 283.785s-2.915 1.941.04 3.843c2.972 1.84 4.738 1.109 4.17 3.437-.568 2.328-.329 3.946 3.166 3.123s4.555-13.424-7.376-10.403Z" fill="#45A2B9"/><path d="M278.504 305.741c-.225.075-3.371 1.114-3.931 1.17-2.313 2.48-8.436 11.423-9.725 13.897-1.828 3.445-7.203 17.38-8.201 21.031 0 0 6.879-.244 28.915 4.632 4.87-6.849 12.434-20.567 13.025-31.205 0 0-6.634-6.387-8.731-6.192 0 0-15.293 1.863-11.352-3.333Z" fill="#FFC56B"/><path d="M296.781 313.649c1.046.909 1.742 1.601 1.742 1.601-.591 10.638-8.155 24.356-13.025 31.205-20.807-4.636-28.083-4.686-28.835-4.677 14.052-8.537 27.82-17.533 40.118-28.129Z" fill="#FFC56B" opacity=".5"/><path d="M253.638 346.615c37.622 14.651 37.977 12.855 48.085-25.374.815-2.982-2.532-7.189-5.713-7.263l-.064-.016c-2.303-.051-4.316 1.334-4.962 3.448-3.077 9.762-8.478 23.041-9.515 24.343-3.386 4.164-14.042 1.523-25.808-2.042-.413-.233-2.397-1.699-4.95-3.826-.444-.37-5.14-2.378.367 3.145 1.03.969-8.886-3.632-9.207-1.957-.053.442 5.837 3.071 5.82 3.131 0 0-6.827-1.692-6.727-.562.045.336 2.27 1.667 2.27 1.667s-1.906-1.252-2.136-.66c-.23.593 2.155 1.834 2.155 1.834s-1.772-.245-1.667.366c-.069.503 12.052 3.766 12.052 3.766Z" fill="#A94846"/><path d="M242.379 340.447s4.064 1.332 5.437 1.543M243.125 342.451s3.171 1.111 4.358.755" stroke="#753231" stroke-width=".5" stroke-miterlimit="10" stroke-linecap="round"/><path d="m245.721 277.868 13.145 3.257 3.578 12.581 5.987-21.905c1.647-6.023-2.175-12.233-8.491-13.798l-8.168-2.024c-6.317-1.565-12.832 2.082-14.479 8.106-1.71 6.008 2.048 12.201 8.428 13.783Z" fill="#3F468E"/><path d="M245.453 268.381c-.881-.218-1.409-1.076-1.179-1.917.229-.84 1.13-1.344 2.011-1.125.881.218 1.409 1.076 1.179 1.916-.229.84-1.13 1.344-2.011 1.126ZM251.77 269.946c-.881-.218-1.409-1.076-1.18-1.916.23-.84 1.13-1.344 2.011-1.126.881.218 1.409 1.076 1.18 1.916-.23.841-1.13 1.345-2.011 1.126ZM258.15 271.528c-.881-.219-1.409-1.077-1.179-1.917.23-.84 1.13-1.344 2.011-1.126.881.219 1.409 1.077 1.179 1.917-.229.84-1.13 1.344-2.011 1.126Z" fill="#FFF8ED"/></g><path d="M199.52 258.727c5.573 1.513 10.505 4.628 15.129 7.952 3.001 2.155 5.928 4.431 8.474 7.063 5.159 5.333 8.661 12.046 14.308 16.902" stroke="#8A7975" stroke-width="2" stroke-miterlimit="10"/><path d="M193.239 252.525c-1.992-.343-4.03-.47-5.975-.464-2.405.013-1.476.845-.32 2.098 1.229 1.328 2.512 2.625 3.956 3.744 3.094 2.403 6.749 3.426 10.699 3.598.668.025 2.7.101 3.107-.56.909-1.468-2.773-4.71-3.722-5.403-2.239-1.64-4.992-2.536-7.752-3.013h.007Z" fill="#ACCC4C"/><path d="M188.039 254.082a71.242 71.242 0 0 1 14.983 6.287c.374.209.708-.344.334-.547a72.244 72.244 0 0 0-15.143-6.35c-.414-.121-.588.495-.18.61h.006Z" fill="#ACCC4C" style="mix-blend-mode:multiply"/><path d="M196.84 264.834c-2.259.775-4.437 1.805-6.429 2.917-2.466 1.38-.989 1.71.996 2.34 2.098.661 4.23 1.265 6.415 1.595 4.691.706 9.089-.318 13.252-2.384.702-.349 2.84-1.424 2.847-2.339.013-2.021-5.807-3.261-7.217-3.433-3.328-.406-6.723.236-9.857 1.31l-.007-.006Z" fill="#ACCC4C"/><path d="M192.457 269.321a86.437 86.437 0 0 1 19.353-2.06c.428 0 .428-.636 0-.636a87.302 87.302 0 0 0-19.533 2.085c-.421.096-.241.706.18.611Z" fill="#ACCC4C" style="mix-blend-mode:multiply"/><path d="M210.406 275.685c-1.724.922-3.348 2.034-4.798 3.191-1.804 1.43-.555 1.513 1.136 1.767 1.798.267 3.609.483 5.433.471 3.903-.032 7.324-1.424 10.405-3.637.521-.375 2.098-1.519 1.978-2.263-.274-1.64-5.172-1.9-6.342-1.856-2.76.096-5.419 1.049-7.805 2.327h-.007Z" fill="#ACCC4C"/><path d="M207.467 279.95a70.83 70.83 0 0 1 15.477-4.176c.421-.064.241-.674-.18-.61a70.865 70.865 0 0 0-15.477 4.176c-.394.153-.221.769.18.61Z" fill="#ACCC4C" style="mix-blend-mode:multiply"/><path d="M217.804 252.769c-1.209-1.977-2.659-3.834-4.163-5.499-1.864-2.06-1.945-.617-2.239 1.348-.314 2.085-.554 4.182-.507 6.293.106 4.513 1.944 8.448 4.831 11.976.488.597 1.985 2.403 2.927 2.244 2.092-.35 2.332-6.02 2.266-7.368-.174-3.191-1.444-6.255-3.115-8.988v-.006Z" fill="#ACCC4C"/><path d="M212.397 249.494a75.472 75.472 0 0 1 5.58 17.754c.073.401.715.229.641-.171a76.103 76.103 0 0 0-5.647-17.907c-.173-.375-.748-.051-.574.318v.006Z" fill="#ACCC4C" style="mix-blend-mode:multiply"/><path d="M229.608 266.626c-.495-1.621-1.19-3.191-1.958-4.634-.949-1.787-1.277-.769-1.858.585-.615 1.436-1.176 2.898-1.537 4.417-.768 3.249-.18 6.376 1.223 9.383.241.509.969 2.053 1.677 2.098 1.564.101 2.794-3.91 2.994-4.895.475-2.314.134-4.717-.548-6.961l.007.007Z" fill="#ACCC4C"/><path d="M226.259 263.393a55.03 55.03 0 0 1 .681 13.622c-.026.407.642.407.669 0 .341-4.609.1-9.236-.702-13.794-.073-.4-.715-.229-.642.172h-.006Z" fill="#ACCC4C" style="mix-blend-mode:multiply"/><path d="M437.029 315.31a9.476 9.476 0 0 0-2.088 1.801c-.979 1.056-2.023 2.112-3.524 4.411 0 0-15.204 22.112-19.315 19.379 0 0-6.656-3.23-4.241-16.212 0-1.242 0-2.112-.065-2.36 0 0-1.044-12.858-3.263-15.466-.261-.311-.979-.808-.848-.87 6.786-1.615 9.461 12.112 11.354 19.628.065.311 14.094-10.932 14.094-10.932s.392-.994 2.806-2.609c2.415-1.615 5.416-3.478 5.612-3.23.653.684-4.372 4.038-4.372 4.038s4.894-3.541 5.351-2.982c.457.621-3.981 3.851-3.981 3.851s4.438-3.292 4.633-2.671c.196.622-3.588 3.665-3.588 3.665s3.849-1.925 3.915-1.615c.065.187-1.632 1.677-2.48 2.174Z" fill="#FFC56B"/><path d="M407.797 324.69c-1.044 5.59-.392 9.317.652 11.801.718-6.584 1.762-13.354 4.307-19.566-1.827-6.211-4.568-12.05-9.136-10.932-.065 0 .653.559.849.87 2.218 2.671 3.262 15.466 3.262 15.466.066.187.066 1.118.066 2.361Z" fill="#1E2046"/><path d="M404.533 306.863c2.219 2.671 3.263 15.466 3.263 15.466 0 .124.065.373.065.745a140.177 140.177 0 0 1 5.155-5.404c-1.892-6.459-4.633-12.857-9.331-11.739-.131.124.587.621.848.932Z" fill="#FF616B"/><path d="M428.873 315.994c0-.125.196-4.162.848-5.466.653-1.305 1.501 3.354 1.501 3.354l-2.349 2.112Z" fill="#FFC56B"/><path d="M433.44 311.894s1.762 2.174 2.089 2.857M431.156 312.95s.195 1.739-.064 3.23M435.267 311.211l-1.371 1.056" stroke="#F29555" stroke-width=".483" stroke-miterlimit="10" stroke-linecap="round" stroke-linejoin="round"/><path d="M435.92 312.764s-1.435 1.055-1.174.745" stroke="#F29555" stroke-width=".483" stroke-miterlimit="10" stroke-linecap="round" stroke-linejoin="round"/><path d="M367.796 329.41c7.83-5.155 12.92-51.616 26.036-52.113 4.046-.186 8.222.807 11.354 3.23 1.109.869 3.197 4.596 2.741 5.901l-14.552 21.615s5.351 28.821 3.72 29.38c-1.632.559-29.299-8.013-29.299-8.013Z" fill="#18004C"/><path d="M393.636 289.533c0 .187-.196.311-.391.249-.783-.124-2.611-.559-3.198 1.366-.587 1.988 1.175 3.416 2.415 3.665.326.062 1.174.248 1.37.559.587.87.652 2.547.848 4.721.457 4.72-3.654 6.211-3.654 6.211s11.485 7.826 12.398 1.925c0 0 .914-10.932.979-10.994 1.044-.745 4.894-.497 3.85-8.571-.979-7.454-6.526-7.827-7.961-7.827-1.24 0-5.351-.434-6.656 8.696Z" fill="#FFC56B"/><path d="M405.839 281.21s-9.266 13.168-12.399 8.571c0 0-2.61-15.59 12.399-8.571Z" fill="#18004C"/><path d="M390.83 291.893s1.697-2.298 2.675 1.305l-2.675-1.305Z" fill="#FF8B33"/><path d="M400.619 290.651c1.044.125 1.762 1.056 1.631 2.05-.13.994-1.109 1.677-2.153 1.553-1.044-.124-1.762-1.056-1.631-2.05.13-1.056 1.109-1.739 2.153-1.553ZM408.318 292.515c-.848-.311-1.37-1.118-1.239-1.988.13-.683.587-1.18 1.174-1.429 0 .063.457 2.112.065 3.417Z" fill="#FFB452"/><path d="m406.882 291.334-3.132.932s1.24 1.18 2.088.808c.914-.435 1.044-1.74 1.044-1.74Z" fill="#fff"/><path d="m405.056 289.036.13 1.988 1.044-.249c.196-.062.261-.31.131-.434l-1.305-1.305Z" fill="#FF8B33"/><path d="M401.466 287.732c-.326.311.065-.87.522-1.056.457-.186.979-.062 1.175.311 0 0-.914.062-1.697.745ZM407.209 286.614c.391.186-.326-.808-.848-.808-.522-.062-.914.249-.979.684.065 0 .913-.311 1.827.124ZM402.902 289.409c.066.373.261.621.457.559.196-.062.261-.373.196-.683-.065-.373-.261-.621-.457-.559-.196 0-.261.31-.196.683ZM405.773 288.602c.066.31.262.559.457.559.196-.063.261-.311.196-.684-.065-.31-.261-.559-.457-.559-.196.062-.261.373-.196.684Z" fill="#1E274D"/><path d="M404.337 297.297s-3.654.062-5.481-.31c-1.762-.435 5.547 10.87 5.481.31Z" fill="#1E2046"/><path d="M395.593 297.732c0 2.05-1.24 3.727-2.806 3.727s-2.806-1.677-2.806-3.727 1.24-3.727 2.806-3.727 2.806 1.677 2.806 3.727Z" stroke="#FFF8ED" stroke-width=".966" stroke-miterlimit="10"/><path d="m392.723 455.873 1.37 9.441s2.219 6.274 4.307 3.852c2.088-2.423 4.176-3.727 4.176-3.727l.652-9.814-10.505.248Z" fill="#FFB452"/><path d="m398.204 456.184.391 12.857s-6.59.932-4.176-3.292l-1.436-8.882 5.221-.683Z" fill="#FFC56B"/><path d="m403.293 465.377 8.353 6.398c.457.31.13.807-.457.807 0 0-18.01-.124-18.01-.373-.13-1.552.196-6.646.457-8.074.065-.187 2.675 5.217 4.111 4.782.979-.31 4.241-3.229 4.633-3.602.13-.124.652-.124.913.062Z" fill="#FF616B"/><path d="m363.098 455.563-2.219 9.752s2.219 6.273 4.307 3.851c2.088-2.423 4.176-3.727 4.176-3.727l4.307-10.124-10.571.248Z" fill="#FFB452"/><path d="m368.579 455.936-3.263 13.168s-6.59.932-4.176-3.292l2.153-9.193 5.286-.683Z" fill="#FFC56B"/><path d="m370.08 465.377 8.352 6.398c.457.31.131.807-.457.807 0 0-19.51-.124-19.575-.373-.131-1.552 2.349-6.646 2.61-8.074.065-.187 2.022 5.279 3.458 4.782.979-.31 4.242-3.229 4.633-3.602.196-.124.718-.124.979.062Z" fill="#FF616B"/><path d="M384.436 338.292c-3.589 6.025-5.482 10.436-7.57 18.138-2.414 8.944-24.535 84.288-25.644 100.499 2.936.684 57.749 1.118 59.511.87 1.957-19.938 12.267-95.469-3.328-119.941-7.113-.932-15.792.248-22.969.434Z" fill="#495967"/><mask id="w" style="mask-type:luminance" maskUnits="userSpaceOnUse" x="351" y="337" width="65" height="121"><path d="M384.436 338.292c-3.589 6.025-5.482 10.436-7.57 18.138-2.414 8.944-24.535 84.288-25.644 100.499 2.936.684 57.749 1.118 59.511.87 1.957-19.938 12.267-95.469-3.328-119.941-7.113-.932-15.792.248-22.969.434Z" fill="#fff"/></mask><g mask="url(#w)" fill="#fff"><path d="M355.465 401.648c10.049 4.162 18.206 12.174 22.447 21.802 2.415 5.528 3.655 11.739 2.545 17.64-.913 4.907-3.458 9.504-6.982 13.168-3.98 4.1-9.2 7.081-15.008 8.137-.326.062-.196.497.131.435 10.375-1.926 19.053-9.876 21.794-19.566 3.132-10.994-1.892-23.106-9.527-31.429a43.258 43.258 0 0 0-15.139-10.622c-.326-.062-.587.311-.261.435ZM371.646 367.362c4.96 8.385 10.049 16.832 16.77 24.1 6.852 7.329 15.466 13.106 25.645 15.093a43.593 43.593 0 0 0 18.793-.372c.326-.063.196-.497-.131-.435-10.832 2.609-22.381.869-31.843-4.721-8.418-4.907-14.813-12.36-20.229-20.187-3.067-4.472-5.872-9.068-8.613-13.727-.131-.248-.522 0-.392.249ZM374.581 331.025c5.025 8.137 10.31 16.647 18.532 22.237 3.85 2.609 8.287 4.472 12.985 5.031 4.633.559 9.397.062 13.769-1.429 4.959-1.677 9.396-4.534 12.659-8.447.196-.248-.13-.559-.326-.311-5.808 6.833-15.204 10.498-24.405 9.876-9.853-.683-17.814-6.646-23.687-13.851-3.458-4.224-6.329-8.82-9.201-13.416-.065-.187-.456.062-.326.31Z"/></g><path opacity=".5" d="m407.602 338.976-29.56 22.92s-.196-14.659 5.024-23.976l24.536 1.056Z" fill="#495967"/><path d="M405.97 306.056c-.196.497 5.546 15.093 5.285 19.814-.261 4.721-.13 11.491.131 12.174 0 0-7.374 4.1-28.581.87-6.525-5.466-.783-23.914 1.37-29.753 0 0 7.048-4.099 8.875-4.223 0 0 10.049 9.192 10.244.745 0-.932 1.893-.062 2.676.373Z" fill="#FF616B"/><path d="M382.804 313.136c-2.414 7.827-5.481 21.305-.065 25.84 10.114 1.49 17.096 1.366 21.599.807-8.418-7.888-15.791-16.708-21.534-26.647Z" fill="#FF616B" opacity=".5"/><path d="m382.216 377.92-18.467-11.242c-1.958-1.18-2.545-3.727-1.305-5.59l6.786-10.125c1.24-1.863 3.916-2.422 5.873-1.242l19.707 11.988c2.284 1.428 3.001 4.348 1.5 6.522l-5.22 7.764c-1.892 2.919-5.873 3.727-8.874 1.925Z" fill="#1E2046"/><path d="M383.389 364.256c0 1.987-1.697 3.602-3.785 3.602s-3.785-1.615-3.785-3.602c0-1.988 1.697-3.603 3.785-3.603s3.785 1.615 3.785 3.603Z" fill="#fff"/><path d="M379.932 365.622c-.065-1.118 7.7-36.523 9.07-41.74 1.827-7.081-.457-15.218-3.067-15.466-3.262-.311-7.83 9.814-8.483 13.416l-4.502 42.734s-3.85 7.268-3.132 8.572c.718 1.304 1.435-1.988 1.435-1.988s3.654 3.417 4.633 3.479c.914.124 2.741-5.404 2.741-5.404s.13 4.472 1.37 3.168c1.11-1.243-.065-6.771-.065-6.771Z" fill="#FFC56B"/><path d="M387.436 330.342c.717-3.044 1.24-5.404 1.501-6.46 1.827-7.081-.457-15.218-3.067-15.466-2.284-.249-5.286 4.782-7.048 9.006a250.968 250.968 0 0 0 8.614 12.92Z" fill="#1E2046"/><path d="M388.742 324.814c.065-.373.196-.684.261-.932 1.827-7.081-.457-15.218-3.067-15.466-2.676-.311-6.264 6.584-7.831 11.056 3.459 1.739 7.048 3.54 10.637 5.342Z" fill="#FF616B" stroke="#FF616B" stroke-width=".966" stroke-miterlimit="10"/><path d="m372.101 371.834.913-1.864M373.47 372.765l.913-1.925M374.646 373.759l.913-1.926" stroke="#F29555" stroke-width=".483" stroke-miterlimit="10" stroke-linecap="round" stroke-linejoin="round"/><path d="M432.592 285.558H419.15l-6.721 11.18v-22.361c0-6.149 5.285-11.18 11.745-11.18h8.353c6.46 0 11.745 5.031 11.745 11.18.066 6.15-5.22 11.181-11.68 11.181Z" fill="#FFC3B8"/><path d="M422.282 277.546c.901 0 1.631-.696 1.631-1.553 0-.858-.73-1.553-1.631-1.553s-1.632.695-1.632 1.553c0 .857.731 1.553 1.632 1.553ZM428.808 277.546c.901 0 1.631-.696 1.631-1.553 0-.858-.73-1.553-1.631-1.553s-1.631.695-1.631 1.553c0 .857.73 1.553 1.631 1.553ZM435.332 277.546c.901 0 1.632-.696 1.632-1.553 0-.858-.731-1.553-1.632-1.553-.9 0-1.631.695-1.631 1.553 0 .857.731 1.553 1.631 1.553Z" fill="#FFF8ED"/><path d="m441.501 462.455 4.553 2.845-2.037 2.674a113.272 113.272 0 0 0-2.516-5.519Z" fill="#1E2046"/><path d="M443.059 469.51s-3.894 9.956-5.033 9.501l-25.46-12.63s4.194-3.414 9.525-1.764c8.028 2.56 9.286-1.024 9.286-1.024l.479 1.252c1.618 4.153 6.47 6.258 10.843 4.779l.36-.114Z" fill="#5BC29C"/><path d="M429.339 464.845a7.177 7.177 0 0 1 1.078 2.617c.12.796.239 1.763-.06 2.503-.24.626-.959 1.024-1.558.569a2.563 2.563 0 0 1-.719-.853c-.239-.456-.479-.911-.659-1.366-.539-1.081-.958-2.162-1.437-3.3-.12-.284.359-.398.419-.113.419 1.081.899 2.105 1.378 3.129.24.512.479 1.024.719 1.479.18.341.479.796.958.739.42-.056.539-.512.599-.853a5.64 5.64 0 0 0 0-1.422 6.842 6.842 0 0 0-1.078-2.959c-.24-.17.18-.398.36-.17Z" fill="#FFF8ED"/><path d="M473.251 426.272c-1.258-.171-26.419 39.369-26.419 39.369s-11.922-7.168-11.981-7.339c0 0 9.225-34.306 21.386-52.454 2.217-3.3 7.129-3.983 9.046-3.983 14.438 0 23.723 4.722 32.17 5.803l-4.852 14.792" fill="#308AA1"/><path d="M491.044 415.121c-27.857-3.413-28.396 1.593-30.972 7.339l-21.207 38.402" stroke="#fff" stroke-width=".405" stroke-miterlimit="10"/><path d="m466.243 469.397.539-7.055 11.263.967.359 6.372-5.691 6.144-6.47-6.428Z" fill="#FF937E"/><path d="m431.617 464.731 5.032-5.291 9.406 5.86-3.834 5.12c-4.314 1.537-9.106-.739-10.364-4.949l-.24-.74ZM466.243 469.397l.539-7.055 11.263.967.359 6.372-5.691 6.144-6.47-6.428Z" fill="#FFC56B"/><path d="M478.704 468.543s1.497 10.525.239 10.639l-28.755.227s1.977-4.892 7.548-5.803c8.387-1.365 7.668-5.006 7.668-5.006l.719.626c3.714 3.015 9.286 2.731 12.581-.683Z" fill="#5BC29C"/><path d="M464.624 471.047c1.318.512 2.457 1.65 2.696 3.015.06.341.06.683-.239.91-.24.171-.659.228-.959.228-.719 0-1.378-.342-1.977-.74a9.876 9.876 0 0 1-1.737-1.763c-.18-.228.24-.456.419-.228.719.91 1.618 1.934 2.816 2.219.299.057.539.114.839.057.119 0 .299-.057.419-.114a.336.336 0 0 0 .06-.398c-.12-.569-.42-1.081-.779-1.536a3.572 3.572 0 0 0-1.617-1.138c-.3-.171-.18-.569.059-.512Z" fill="#FFF8ED"/><path d="M525.071 404.88c0 10.696-9.046 19.401-20.248 19.401h-22.046c-1.258 0-2.216 1.194-1.917 2.332l-1.797 38.801a.369.369 0 0 1-.36.455h-7.668c-.179 0-4.672.341-4.732.17l-5.991-49.609c-2.276-4.893 4.673-13.199 10.304-13.313l54.455 1.763Z" fill="#45A2B9"/><path d="M512.31 405.449s1.977 11.72-9.585 11.322c-6.41-.228-16.774-.057-24.682.114-5.631.114-9.645 5.291-8.087 10.411l2.876 38.288" stroke="#fff" stroke-width=".405" stroke-miterlimit="10"/><path d="m444.015 355.213 4.433 6.998 6.65 12.403 9.345-8.648-9.525-10.07s-.898-1.536-1.378-2.105c-3.594-4.608-7.788-11.492-8.087-10.127-.24.967 2.516 6.429 2.516 6.429s-3.055-6.656-4.134-6.315c-1.018.341 2.277 6.77 2.277 6.77s-3.415-5.291-4.194-4.949c-.778.341 2.517 6.258 2.517 6.258s-2.457-4.04-3.295-3.528c-.839.512 2.875 6.884 2.875 6.884Z" fill="#FFC56B"/><path d="M454.259 355.1s1.558-7.226.539-7.681c-.958-.455-2.696 4.722-2.696 4.722l2.157 2.959Z" fill="#FFC56B"/><path d="M451.503 352.71s-1.438 1.081-1.618 2.958M448.508 348.045l-4.793 4.381M446.89 347.76l.539 1.138" stroke="#FF9A47" stroke-width=".526" stroke-miterlimit="10" stroke-linecap="round"/><path d="M485.112 404.027s7.489-48.984 9.406-52.056c0 0-4.434-2.219-10.304 9.557-5.931 11.777-6.77 15.191-6.77 15.191l-13-12.687-10.603 10.582 22.884 24.804a6.34 6.34 0 0 0 3.595 1.935l4.013.626" fill="#1E2046"/><path d="M518.241 350.036s10.064 3.016 11.801 15.987c1.738 12.914-6.23 46.139-6.23 46.139s-8.507-3.413-12.041-4.323c-5.212-1.366-9.046-1.423-12.76-1.48l-15.396-2.844 5.511-41.361c.839-3.3 1.258-8.078 4.433-9.956l5.332-3.072 11.382-3.641 7.968 4.551Z" fill="#1E2046"/><path d="M511.471 363.747s-7.848-9.672.779-13.085c9.046-3.641 27.138 7.851 39.538 34.875 2.816 6.144-1.018 13.028-9.705 17.352l-15.516 5.86-5.451-12.687 9.166-3.357-18.811-28.958Z" fill="#1E2046"/><path d="m507.817 336.894 2.037 9.16-3.715 3.982c-5.751 5.917-6.589 1.991-7.668 1.479l.719-10.752 5.392-2.048 3.235-1.821Z" fill="#FFC56B"/><path d="m504.643 338.771-5.392 2.845s-.599 4.95 1.018 5.12c1.318.114 5.811-3.868 5.392-6.884" fill="#1E2046"/><path d="M508.714 335.131c1.558-.968 1.977-9.558 1.977-9.558s.06-2.048-3.175-2.162c0 0 1.139-1.764-.419-2.902-1.558-1.081-3.115.569-3.115.569s-.599-1.365-1.258-1.479c-.599-.114-1.258.796-1.258.796s-.719-1.706-2.636-1.991c-1.857-.284-2.636 1.991-2.636 1.991s-.839-.91-1.977-.512c-1.138.399-.719 2.162-.719 2.162s-2.935 0-.958 2.959c.718 1.081 2.995.057 2.995.057s-.36 3.982.539 4.323c.899.399 4.373.911 5.871-.056 1.498-.968 2.995-2.618 2.995-2.618l2.397 8.534c.898-1.081.179 2.731.179 2.731" fill="#000"/><path d="M495.595 325.061c-1.797 12.858-1.318 16.669-.06 17.693 1.798 1.423 5.152.569 6.71 0 2.636-.967 4.493-3.641 5.092-4.38.299-.399 3.594.284 3.175-2.731-.359-2.219-1.558-1.479-2.217-.967-.179.17-.479.057-.539-.114-.479-1.309-1.977-6.258-2.456-7.851-.24-.683-3.415-.569-3.714-.626-2.756-.398-5.212-.284-5.871-.853l-.12-.171Z" fill="#FFC56B"/><path d="m510.093 335.358-1.857 1.138s.778-2.959 1.857-1.138Z" fill="#FF9A47"/><path d="M497.452 333.139c0 .341.12.683.3.683s.359-.285.359-.626-.119-.683-.299-.683-.36.285-.36.626ZM495.237 332.741c0 .341.119.683.299.683s.36-.285.36-.626c0-.342-.12-.683-.3-.683s-.3.285-.359.626Z" fill="#012A39"/><path d="M500.447 330.807c.479.341-.24-1.195-.899-1.366-.659-.17-1.378.114-1.558.683 0 0 1.259-.114 2.457.683ZM494.937 330.067a4.858 4.858 0 0 1 1.258.057c-.06-.512-.599-.91-1.198-.967" fill="#38194B"/><path d="m496.314 332.741-1.198 2.731c0 .057 0 .114.06.114l1.198.113c.06 0 .06-.056.06-.056l-.06-2.845c.06-.114-.06-.114-.06-.057Z" fill="#FF9A47"/><path d="M500.028 336.553c-.359-.057-4.672-.285-4.672-.285s-.48 3.129 1.318 2.902c1.797-.171 3.354-2.617 3.354-2.617Z" fill="#FEF2FB"/><mask id="x" style="mask-type:luminance" maskUnits="userSpaceOnUse" x="453" y="345" width="100" height="68"><path d="m464.446 364.089 13 12.686s.838-3.413 6.769-15.19c4.912-9.785 8.806-9.899 9.945-9.671l4.732-2.731 11.382-3.641 7.968 4.494s.359.114.959.342c9.645 2.275 22.884 13.881 32.649 35.102 2.815 6.144-1.019 13.028-9.705 17.352l-15.576 5.917-1.318-3.129c-.839 3.982-1.498 6.542-1.498 6.542s-8.506-3.413-12.041-4.323c-5.212-1.366-9.046-1.423-12.76-1.48l-13.838-2.56c0 .171-.06.228-.06.228l-.12-.285-1.378-.284.18-1.593-3.475-.569c-1.378-.228-2.696-.91-3.594-1.934l-22.825-24.748 10.604-10.525Zm65.837 28.616-1.977-3.072-.719 4.096 2.696-1.024Z" fill="#fff"/></mask><g mask="url(#x)" fill="#FFF8ED"><path d="M532.32 408.692c.659-.967.719-2.162.779-3.243.06-1.252-.18-2.276-1.198-3.129a6.242 6.242 0 0 0-3.295-1.365c-1.258-.114-2.516.227-3.595.739-.239.114-.479-.227-.239-.398 1.198-.569 2.576-.91 3.894-.797 1.318.114 2.576.683 3.594 1.48 1.019.853 1.438 1.934 1.378 3.243-.06 1.194-.12 2.617-.839 3.697-.239.228-.659 0-.479-.227ZM515.905 347.703c-.599 1.65-2.097 2.959-3.774 3.642-.839.341-1.738.398-2.636.056-.839-.341-1.558-.967-2.097-1.593-.18-.227.12-.512.3-.284.479.569 1.078 1.138 1.797 1.479.838.398 1.737.342 2.576-.057 1.497-.626 2.815-1.82 3.355-3.299.119-.342.599-.228.479.056ZM481.639 359.196c2.995 1.309 5.451 3.584 6.889 6.315.12.228-.24.455-.42.228-1.437-2.731-3.834-4.893-6.709-6.202-.24-.057-.06-.455.24-.341ZM477.504 401.182c1.977-1.536 1.677-4.096.958-6.144-.659-1.934-1.857-3.869-4.013-4.495-4.314-1.251-8.927 2.504-10.904 5.803-.119.228-.539 0-.419-.227 2.157-3.527 7.369-7.681 11.922-5.86 2.156.853 3.235 2.901 3.894 4.893.718 2.105.838 4.779-1.199 6.315-.179.227-.479-.114-.239-.285ZM459.233 382.863c3.175-2.048 3.355-6.258.599-8.705-2.456-2.162-6.35-3.698-9.704-2.56-.3.114-.42-.341-.12-.398 1.857-.626 3.834-.455 5.691.17 1.797.626 3.594 1.593 4.852 2.902 2.576 2.731 2.037 6.941-1.138 8.989-.18.114-.419-.228-.18-.398ZM490.147 369.55c1.377.569 2.396 2.048 2.096 3.528-.299 1.422-1.797 2.503-3.295 2.218-.299-.057-.179-.455.12-.398 1.318.171 2.576-.853 2.756-2.048.18-1.252-.719-2.446-1.917-2.958-.24-.057-.06-.456.24-.342ZM498.832 408.351c.899-.455.599-2.162.479-2.959a8.26 8.26 0 0 0-1.018-2.617c-.959-1.593-2.696-3.356-4.673-3.698-2.216-.398-4.373 1.138-5.691 2.731a9.356 9.356 0 0 0-2.097 5.348c0 .284-.479.284-.479 0 .18-3.357 2.277-6.941 5.691-8.192 3.655-1.366 7.129 1.934 8.267 4.949.36.853.54 1.821.54 2.731 0 .74-.06 1.65-.839 2.048-.18.171-.419-.228-.18-.341ZM517.341 366.023c-1.018.284-1.797 1.195-1.797 2.276 0 1.024.899 1.934 1.917 2.162.3.056.18.455-.12.398-1.258-.228-2.216-1.366-2.276-2.56-.06-1.195.899-2.333 2.157-2.674.239-.057.359.341.119.398Z"/></g><path d="M525.549 406.416c-10.664 2.105-18.332 3.528-19.65 3.869-1.018.228-4.253.683-4.493.284-.539-.796 5.811-1.706 5.512-1.82-.3-.057-7.489 1.65-7.908 1.024-.719-.967 7.309-2.788 7.429-2.788 2.036-.569-7.549 1.991-8.208 1.479-.659-.568 3.655-1.991 3.774-2.048 0 0 3.775-1.024 3.715-1.308-.06-.285-8.807 0-8.447-.797.359-.796 5.751-1.308 7.189-1.593 1.437-.284 6.529-1.82 5.691-1.991l-3.475-.796c-.659-.171-.599-1.024.06-1.081 1.857-.285 4.253-.512 5.571-.171 1.258.341 2.636.91 2.636.91l7.129-2.446 3.475 9.273Z" fill="#FFC56B"/><path d="M463.126 329.896h12.101l6.05 10.07v-20.14c0-5.575-4.732-10.069-10.603-10.069h-7.548c-5.871 0-10.604 4.494-10.604 10.069 0 5.576 4.793 10.07 10.604 10.07Z" fill="#85D6B8"/><path d="M462.168 320.338c0-.796-.659-1.422-1.498-1.422-.838 0-1.497.626-1.497 1.422 0 .797.659 1.423 1.497 1.423.839 0 1.498-.626 1.498-1.423ZM468.039 320.338c0-.796-.659-1.422-1.498-1.422-.838 0-1.497.626-1.497 1.422 0 .797.659 1.423 1.497 1.423.839 0 1.498-.626 1.498-1.423ZM473.909 320.339c0-.797-.659-1.423-1.497-1.423-.839 0-1.498.626-1.498 1.423 0 .796.659 1.422 1.498 1.422.838 0 1.497-.626 1.497-1.422Z" fill="#FFF8ED"/><path d="m606.357 474.964 2.467 12.106 19.189.691.06-1.441-10.707-6.456-1.203-4.323-9.806-.577Z" fill="#FF937E"/><path d="m617.486 479.865-3.369 3.228c-.902.865-2.226.807-3.068-.057l-3.549-3.632 1.444 7.725 19.189.634.06-1.442-10.707-6.456Z" fill="#45A2B9" stroke="#45A2B9" stroke-miterlimit="10"/><path d="m616.103 480.846 4.631 2.997c.963.634 2.286.404 2.888-.519" stroke="#89BD88" stroke-width=".435" stroke-miterlimit="10" stroke-linecap="square" stroke-linejoin="round"/><path d="m594.929 375.357 21.175 100.302-9.144 1.211-29.235-68.022c-.842-2.767-4.03-2.882-5.173-.173l-13.099 17.473 29.451 46.917-5.31 7.598s-38.433-26.417-40.555-52.668c-1.737-21.488 8.646-46.065 17.662-66.07l34.228 13.432Z" fill="#5BC29C"/><path d="M578.426 477.528c2.418-2.65 4.965-5.097 7.683-7.463.212-.204-.13-.529-.342-.326-2.717 2.366-5.264 4.813-7.683 7.464-.212.204.129.529.342.325ZM605.455 473.412a36.334 36.334 0 0 1 9.023-.98c.301 0 .301-.461 0-.461-3.068-.058-6.136.288-9.144.98-.3.115-.18.518.121.461Z" fill="#89BD88"/><path opacity=".5" d="M564.912 383.772c11.73 5.016 23.4 10.031 35.07 15.219l-4.993-23.635-34.288-13.431c-2.526 5.592-4.692 11.529-6.617 17.639 3.609 1.384 7.279 2.71 10.828 4.208Z" fill="#5BC29C"/><path d="M536.82 298.056s4.15-8.013 3.008-8.128c-1.143-.115-2.888 3.574-3.67 1.614-1.684-4.151-1.083-8.762-1.323-9.454-1.324-4.266-1.083 7.09-1.083 7.09s-1.203-7.955-1.985-7.897c-.782 0-.722 6.399-.722 6.399s-1.564-6.341-2.166-5.995c-.601.345.722 6.283.722 6.283s-1.684-3.862-1.925-2.767c-.18 1.095 2.647 8.935 2.647 8.935l6.497 3.92Z" fill="#FF937E"/><path d="m529.6 287.967 4.632-.174M535.315 291.655s-1.865 1.614-1.564 2.479" stroke="#E36F59" stroke-miterlimit="10"/><path d="m599.981 339.904-2.165 43.465c-27.01 3.055-44.816-1.902-44.816-1.902l1.805-43.58c-65.509 16.832-24.904-44.156-24.904-44.156l8.903 4.784-2.587 4.727c-3.128 5.592-3.549 12.567-.902 18.792 4.933 11.472 20.452-2.421 33.085-2.075l18.107.461 7.098 3.056 6.376 16.428Z" fill="#fff"/><path opacity=".5" d="m593.605 323.478-.542-.23c-3.068 6.168-6.496 12.163-9.865 18.215-3.67 6.63-7.098 13.374-10.768 19.946-4.03 7.263-8.241 14.411-12.813 21.386 7.52 1.211 20.994 2.536 38.199.577l2.165-43.465-6.376-16.429Z" fill="#fff"/><path d="M535.553 303.939c-2.947-1.269-5.835-2.595-8.782-3.863M535.914 297.483c-.903 1.383-1.865 2.824-2.768 4.208M532.544 295.118c-.842 2.075-1.865 4.093-3.128 5.938" stroke="#fff" stroke-width=".239" stroke-miterlimit="10"/><path d="m583.376 310.221 2.166 11.241s-2.046 4.669-9.745 3.574c-4.813-.692-4.993-5.303-4.993-5.303l2.045-6.341 8.963-4.727s1.203.807 1.323 1.095c.181.404.241.461.241.461Z" fill="#FF937E"/><path d="m581.873 308.723-8.302 5.072s-.481 2.249.361 3.229c1.745 2.075 6.557.807 6.858-4.67" fill="#001C39"/><path d="M584.399 307.169s-1.083-.115-2.045.807l-.542-6.687s-2.406-2.075-3.849-1.325c-1.444.749-3.129-.404-3.911-.865-.782-.461-1.263-1.902-1.263-1.902s-1.444-7.206.542-7.955c1.925-.75 10.647 3.055 13.113 5.245 2.346 2.075 2.226 5.419-1.684 12.855" fill="#FFC56B"/><path d="M582.535 307.054c.06.23.301.346.481.173.662-.404 1.865-.923 1.925 1.153.06 2.824-2.947 1.844-3.248 2.19-.602.692-2.647 2.94-5.173 3.517-1.564.345-3.67.115-4.993-1.557-1.324-1.672-2.166-.807 1.143-15.795 0 0 .24.807 1.203 1.269.962.518 2.286.922 3.188 1.037 1.023.115 5.233.75 5.354 2.537.12 1.498-.121 4.208.12 5.476Z" fill="#FF937E"/><path d="M570.806 307.632s.842.576 3.248.749c0 0-1.504 1.383-2.406.922-.903-.461-.842-1.671-.842-1.671Z" fill="#fff"/><path d="m584.519 308.094-1.804.864c0 .058 1.083-2.594 1.804-.864Z" fill="#E36F59"/><path d="M573.273 304.693c-.06.346.06.634.18.634.181 0 .361-.231.421-.519.061-.346-.06-.634-.18-.634-.181-.057-.361.231-.421.519ZM571.287 304.115c-.061.346.06.635.18.635.18 0 .361-.231.421-.519.06-.346-.06-.634-.18-.634-.181-.058-.361.173-.421.518ZM576.34 302.559c.421.403-.06-1.095-.661-1.384-.602-.23-1.264-.057-1.504.462 0 0 1.143 0 2.165.922ZM571.587 301.636c.662 0 1.143.231 1.143.231 0-.519-.421-.922-1.023-1.038" fill="#001C39"/><path d="m572.248 304.231-1.384 2.363c0 .058 0 .116.06.116l1.083.288c.06 0 .06 0 .06-.058l.301-2.651c0-.116-.12-.116-.12-.058Z" fill="#E36F59"/><path d="M566.356 352.416s-7.58-4.381-7.76-3.402c-.121.635 1.022 2.133 1.804 3.113.361.461.061 1.096-.541 1.269-1.865.403-5.294 1.152-7.82 1.614-3.609.634-3.67 1.614 2.647 1.556 6.256-.058-5.234 1.499-5.053 2.248.18.75 6.617-.23 7.038.404.481.576-6.076 1.383-6.136 2.651-.06 1.269 6.376-.576 6.797-.288.422.288-4.09 1.557-4.03 2.075.301 1.845 11.851-2.478 12.693-2.997.842-.519.361-8.243.361-8.243Z" fill="#FF937E"/><path d="m566.477 350.225-.481 14.411s45.838 6.399 45.838-6.168c0-9.857-8.783-39.314-18.287-35.337-9.504 4.035-3.128 26.805-3.128 26.805l-23.942.289Z" fill="#fff"/><path d="M573.274 350.512c-.12 4.785-.18 9.569-.3 14.354M572.552 354.203a32.136 32.136 0 0 0-6.256-.116M572.553 360.198c-2.226-.174-4.392-.174-6.617-.058" stroke="#fff" stroke-width=".239" stroke-miterlimit="10"/><mask id="y" style="mask-type:luminance" maskUnits="userSpaceOnUse" x="517" y="293" width="95" height="92"><path d="M611.833 358.466c0-9.857-8.782-39.314-18.287-35.337-.12.058-.18.116-.3.116l-6.738-2.883-18.106-.461c-12.633-.346-28.153 13.547-33.085 2.076-2.647-6.168-2.226-13.144.902-18.793l2.586-4.727-8.902-4.784s-40.545 60.988 24.904 44.156l-1.805 43.58s17.806 4.957 44.815 1.902l.903-17.582c7.339-.749 13.113-2.824 13.113-7.263Z" fill="#fff"/></mask><g opacity=".57" fill="#89BD88" mask="url(#y)"><path d="M528.819 316.445c-2.166-2.075-3.068-5.245-2.346-8.128.06-.173.06-.346.12-.461.181-.346.361-.288.602-.057.3.23.541.576.661.864.301.634.421 1.384.482 2.133.18 1.845.24 3.689.12 5.476 0 .289.481.289.481 0 .12-1.729.06-3.516-.06-5.245-.12-1.211-.301-2.594-1.263-3.517-.301-.288-.903-.691-1.324-.288-.18.173-.24.461-.301.692-.12.346-.18.692-.24 1.095a9.282 9.282 0 0 0 .301 3.862c.421 1.441 1.263 2.767 2.346 3.805.3.346.601 0 .421-.231ZM527.437 323.879c-2.527-.461-5.234.692-6.557 2.767-.06.116 0 .289.12.346 1.625.288 3.369.577 4.933-.115 1.203-.519 2.226-1.614 2.166-2.882 0-.289-.482-.289-.482 0 0 1.21-.962 2.133-2.045 2.536-1.383.519-3.008.231-4.451 0 .06.115.12.231.12.346 1.263-1.902 3.73-2.998 6.076-2.536.3 0 .421-.404.12-.462ZM543.256 342.961c-3.789-1.787-5.955-6.053-5.053-9.973-.12.058-.18.115-.3.173 1.684.346 3.007 1.614 3.669 3.113.842 1.902.662 4.035.361 6.053-.06.288.421.403.481.115.361-2.133.542-4.439-.421-6.456-.722-1.614-2.105-2.94-3.97-3.286a.332.332 0 0 0-.301.173c-.962 4.15 1.324 8.647 5.294 10.491.301.115.541-.288.24-.403ZM544.883 321.748c-3.67 1.671-7.76 3.747-8.903 7.782-.06.115.06.23.18.288 1.264.461 2.587.634 3.91.346 1.083-.231 2.046-.807 2.828-1.557 1.864-1.787 2.586-4.265 3.248-6.629.06-.288-.361-.403-.481-.115-.602 2.19-1.203 4.554-2.888 6.226a5.93 5.93 0 0 1-2.646 1.614c-1.264.346-2.647.115-3.85-.346.06.115.12.173.18.288 1.143-3.92 5.173-5.88 8.723-7.552.18-.115-.061-.518-.301-.345ZM554.746 320.769c1.504 3.977 4.091 7.436 7.519 10.088.121.057.241.115.361 0 2.166-1.787 1.745-4.842.301-6.918-.902-1.268-2.165-2.363-3.369-3.343a44.392 44.392 0 0 0-4.331-3.055c-.24-.173-.481.23-.24.403 2.526 1.557 5.173 3.344 7.038 5.592 1.624 1.96 2.586 5.13.301 6.975h.361c-3.369-2.536-5.956-5.995-7.4-9.857-.18-.289-.601-.173-.541.115ZM552.762 347.399c1.264-4.093 4.332-7.609 8.302-9.511l-.361-.173c.18 2.248-.842 4.438-2.527 5.937-1.684 1.557-3.97 2.421-6.256 2.709-.3.058-.18.462.121.462 2.466-.289 4.812-1.269 6.617-2.94 1.684-1.614 2.707-3.862 2.526-6.168 0-.173-.18-.289-.361-.173-4.09 1.96-7.218 5.534-8.542 9.799-.06.231.361.346.481.058ZM569.966 330.334c.421 3.632 2.286 6.975 5.173 9.339.12.115.301.057.361-.058 1.203-1.902 1.143-4.381.06-6.341s-3.008-3.343-5.173-4.093c-.301-.115-.421.346-.12.461 1.985.692 3.789 1.96 4.812 3.747 1.083 1.845 1.143 4.208 0 6.053.12 0 .241-.058.361-.058-2.767-2.305-4.632-5.534-4.993-9.05 0-.288-.481-.288-.481 0ZM590.78 321.517c-3.91 1.672-6.437 5.88-5.956 9.973 0 .173.241.288.421.173.842-.692 2.106-.807 3.068-1.268a6.678 6.678 0 0 0 2.286-1.96c1.444-1.903 1.805-4.381 1.745-6.687 0-.288-.482-.288-.482 0 0 2.306-.3 4.727-1.804 6.629-.662.807-1.504 1.499-2.527 1.902-.902.346-1.925.519-2.707 1.153.121.058.241.116.421.173-.481-3.977 1.925-7.955 5.715-9.569.361-.231.12-.634-.18-.519ZM585.364 347.343c-2.347-1.672-3.67-4.439-3.55-7.205-.12.057-.18.172-.3.23 2.947 1.038 4.812 4.035 4.451 7.033-.06.288.421.288.481 0 .361-3.171-1.744-6.341-4.812-7.436-.12-.058-.301.057-.301.23-.12 2.94 1.324 5.822 3.79 7.552.241.173.481-.231.241-.404ZM605.939 332.819a7.651 7.651 0 0 0-4.632 2.767 7.045 7.045 0 0 0-1.384 5.418c0 .116.12.173.241.173 1.684-.057 3.188-1.037 4.09-2.363 1.083-1.557 1.324-3.517 1.143-5.361 0-.288-.481-.288-.481 0 .12 1.671-.06 3.458-.962 4.957-.843 1.268-2.226 2.248-3.85 2.364.06.057.18.115.24.173-.541-3.574 2.045-6.918 5.715-7.61.301-.115.18-.576-.12-.518ZM611.051 357.546c-2.827-.75-5.534-2.191-7.64-4.151-.24-.23-.481-.461-.661-.692-.181-.23-.602-.634-.602-.922-.06-.461.782-.576 1.143-.634.361-.058.782 0 1.143.115 1.444.346 2.707 1.384 3.85 2.191 1.203.864 3.188 2.421 2.587 4.035-.121.288.361.403.481.115.541-1.556-.902-3.055-2.045-3.977-.662-.577-1.384-1.038-2.106-1.557-.722-.461-1.444-.98-2.286-1.21-.782-.231-1.624-.289-2.406 0-.301.115-.662.23-.782.461-.18.288 0 .576.181.865.842 1.441 2.285 2.536 3.669 3.401a18.9 18.9 0 0 0 5.414 2.421c.18.057.301-.346.06-.461ZM591.862 365.616c-2.225-1.153-3.97-3.171-4.752-5.477-.18-.634-.361-1.325-.301-1.96 0-.23.06-.403.121-.634.06-.23.12-.403.361-.518.24-.116.361-.058.601.057.12.058.301.115.421.231 1.083.634 1.805 1.729 2.226 2.882.541 1.614.541 3.286.481 4.958 0 .288.481.288.481 0 .061-2.94-.06-6.63-3.067-8.301-.482-.289-1.264-.634-1.685-.116-.481.519-.481 1.441-.421 2.076.12 1.441.782 2.824 1.624 4.035.963 1.326 2.166 2.421 3.67 3.17.301.173.481-.23.24-.403ZM579.171 350.568a6.79 6.79 0 0 0-2.406 4.785c0 .115.06.173.18.23 1.384.404 2.767-.345 3.549-1.383.963-1.326.963-3.113.903-4.669 0-.289-.482-.289-.482 0 .06 1.383.121 2.997-.661 4.208-.662 1.037-1.925 1.787-3.189 1.441.061.058.121.173.181.23.12-1.729.902-3.285 2.226-4.438.24-.288-.121-.577-.301-.404ZM597.817 377.605c-3.369-.923-6.196-3.113-7.88-6.053-.061.115-.121.231-.121.346 1.925-.519 3.85.288 5.414 1.326.722.519 1.504 1.095 2.166 1.729.661.634 1.323 1.499 1.022 2.421-.06.288.361.404.482.115.601-1.902-1.805-3.516-3.128-4.496-1.685-1.21-3.85-2.133-6.016-1.556-.12.057-.241.23-.12.346 1.744 2.997 4.692 5.303 8.181 6.283.12.058.24-.404 0-.461ZM553.363 371.494c1.564-2.594 4.151-4.554 7.158-5.419-.12-.058-.18-.115-.3-.173.24.865.421 1.787.3 2.652-.12.98-.661 1.787-1.443 2.363-1.564 1.211-3.73 1.787-5.715 1.902-.301 0-.301.462 0 .462 2.166-.173 4.452-.807 6.136-2.133 1.744-1.384 1.684-3.459 1.143-5.419a.334.334 0 0 0-.301-.173c-3.128.922-5.775 2.94-7.459 5.592-.06.403.361.634.481.346ZM575.32 373.979c-3.008-.923-4.993-4.151-4.271-7.148-.12.057-.241.115-.361.115 2.647 1.268 4.512 3.805 4.872 6.629.061.288.482.288.482 0-.361-2.997-2.286-5.649-5.113-7.032-.121-.058-.301 0-.361.115-.782 3.228 1.323 6.687 4.632 7.667.24.173.36-.231.12-.346ZM567.86 383.425c-1.865-1.383-2.948-3.631-2.767-5.822-.12.058-.181.173-.301.231 2.887.461 5.173 3.17 4.933 5.995 0 .288.421.288.481 0 .18-2.998-2.166-5.938-5.294-6.399-.18 0-.3.058-.3.231-.181 2.421 1.022 4.784 3.007 6.226.241.115.482-.289.241-.462ZM583.019 384.754a8.056 8.056 0 0 1 2.045-6.052c.181-.173.361-.404.542-.577.421-.346.662.115.782.461.18.461.301.98.361 1.499.06 1.095-.301 2.133-.963 2.998-.18.23.241.461.421.23a4.684 4.684 0 0 0 1.023-2.651c.06-.923-.06-2.018-.602-2.767-.661-.98-1.624.288-2.105.807a8.232 8.232 0 0 0-1.444 2.651c-.361 1.096-.541 2.248-.421 3.401-.06.289.421.289.361 0Z"/></g><path d="M547.888 284.277h12.392l6.196 10.376V273.9c0-5.706-4.872-10.376-10.828-10.376h-7.76c-5.955 0-10.827 4.67-10.827 10.376 0 5.707 4.872 10.377 10.827 10.377Z" fill="#45A2B9"/><path d="M545.362 275.918c.831 0 1.504-.646 1.504-1.441 0-.796-.673-1.442-1.504-1.442-.83 0-1.504.646-1.504 1.442 0 .795.674 1.441 1.504 1.441ZM551.379 275.918c.83 0 1.504-.646 1.504-1.441 0-.796-.674-1.442-1.504-1.442-.831 0-1.504.646-1.504 1.442 0 .795.673 1.441 1.504 1.441ZM557.394 275.918c.83 0 1.503-.646 1.503-1.441 0-.796-.673-1.442-1.503-1.442-.831 0-1.504.646-1.504 1.442 0 .795.673 1.441 1.504 1.441Z" fill="#89BD88"/><path d="m585.81 468.632 9.334 10.195-12.397 16.395-1.335-.936 1.421-13.251-3.472-3.453 6.449-8.95Z" fill="#FF937E"/><path d="m582.686 481.247 5.21-.608c1.394-.169 2.26-1.288 2.044-2.569l-.879-5.44 5.992 6.445-12.416 16.306-1.335-.935 1.384-13.199Z" fill="#45A2B9" stroke="#45A2B9" stroke-miterlimit="10"/><path d="m584.925 480.555-.424 5.821c-.078 1.244-1.181 2.134-2.483 2.058" stroke="#FFF8ED" stroke-width=".435" stroke-miterlimit="10" stroke-linecap="square" stroke-linejoin="round"/><path d="M284.242 53.148c-4.637 13.825 9.783 21.81 23.54 28.312-14.337 9.578 17.93 16.21 17.93 16.21 4.813 29.328 51.321 20.323 51.321 20.323 1.446 16.26 40.388 11.396 40.388 11.396 25.427 11.682 36.11-2.468 36.11-2.468.693 1.093 1.653 2.288 2.935 3.603 0 0-9.515 3.77-5.809 9.208-9.827 1.673-22.042 6.155-.589 17.759 0 0-24.31.484-10.285 14.843 0 0-15.895 6.286 1.402 14.353 17.298 8.067 38.673-1.607 43.651 8.228 4.961 9.842 34.881 11.778 46.102 2.098 2.926-2.534 2.761-4.703 1.082-6.579 5.186.609 10.354 1.009 14.943 1.183 17.15.645 16.449-6.298 20.232-10.732 3.117-.592 5.307-1.596 6.034-3.203 1.489-.269 3.29-.382 5.498-.305 20.336.765-17.177 19.074 18.934 22.139 36.11 3.06 14.726-7.421 36.578-11.532.485-.096.987-.18 1.471-.263V1.229L236.035 0s-6.947 16.656 4.446 26.42c5.652 4.843 1.751 10.588 8.448 14.747 3.674 2.28 19.521 4.112 23.118 6.451 3.597 2.34 12.195 5.53 12.195 5.53Zm315.445 91.167c-2.364-.149-4.736-.311-7.099-.46-1.264-1.536-3.94-2.778-9.515-3.681.251-.382.519-.747.814-1.099 3.116-.592 5.315-1.596 6.043-3.203 1.489-.269 3.29-.383 5.497-.305 9.177.347 6.571 4.267 4.268 8.748h-.008Z" fill="url(#z)"/><defs><linearGradient id="a" x1="340.105" y1="290.956" x2="340.105" y2="384.718" gradientUnits="userSpaceOnUse"><stop stop-color="#B1D9F9"/><stop offset="1" stop-color="#fff"/></linearGradient><linearGradient id="b" x1="547.419" y1="461.719" x2="547.419" y2="255.687" gradientUnits="userSpaceOnUse"><stop stop-color="#D6CC62"/><stop offset="1" stop-color="#9C5138"/></linearGradient><linearGradient id="c" x1="65.266" y1="385.906" x2="65.266" y2="251.103" gradientUnits="userSpaceOnUse"><stop stop-color="#D6CC62"/><stop offset="1" stop-color="#9C5138"/></linearGradient><linearGradient id="d" x1="128.423" y1="387.066" x2="128.423" y2="252.263" gradientUnits="userSpaceOnUse"><stop stop-color="#D6CC62"/><stop offset="1" stop-color="#9C5138"/></linearGradient><linearGradient id="e" x1="460.774" y1="379.07" x2="460.774" y2="264.66" gradientUnits="userSpaceOnUse"><stop stop-color="#D6CC62"/><stop offset="1" stop-color="#9C5138"/></linearGradient><linearGradient id="f" x1="57.864" y1="294.337" x2="107.151" y2="294.337" gradientUnits="userSpaceOnUse"><stop stop-color="#B1E1E6"/><stop offset="1" stop-color="#F2F5FF"/></linearGradient><linearGradient id="g" x1="118.297" y1="190.421" x2="218.662" y2="190.421" gradientUnits="userSpaceOnUse"><stop stop-color="#B1E1E6"/><stop offset="1" stop-color="#F2F5FF"/></linearGradient><linearGradient id="h" x1="440.814" y1="281.424" x2="535.266" y2="281.424" gradientUnits="userSpaceOnUse"><stop stop-color="#B1E1E6"/><stop offset="1" stop-color="#F2F5FF"/></linearGradient><linearGradient id="i" x1="351.061" y1="225.596" x2="427.942" y2="225.596" gradientUnits="userSpaceOnUse"><stop stop-color="#B1E1E6"/><stop offset="1" stop-color="#F2F5FF"/></linearGradient><linearGradient id="j" x1="325.88" y1="474.678" x2="325.88" y2="380.537" gradientUnits="userSpaceOnUse"><stop stop-color="#B3C45A"/><stop offset="1" stop-color="#639C38"/></linearGradient><linearGradient id="k" x1="325.885" y1="455.255" x2="325.885" y2="435.987" gradientUnits="userSpaceOnUse"><stop stop-color="#FADDAF"/><stop offset="1" stop-color="#FABD5A"/></linearGradient><linearGradient id="l" x1="621.857" y1="377.055" x2="642.406" y2="377.055" gradientUnits="userSpaceOnUse"><stop stop-color="#6B9E34"/><stop offset=".14" stop-color="#61933C"/><stop offset="1" stop-color="#1F4A6E"/></linearGradient><linearGradient id="m" x1="298.71" y1="206.462" x2="353.068" y2="251.552" gradientUnits="userSpaceOnUse"><stop stop-color="#6B9E34"/><stop offset=".14" stop-color="#61933C"/><stop offset="1" stop-color="#1F4A6E"/></linearGradient><linearGradient id="n" x1="396.812" y1="261.117" x2="447.151" y2="250.06" gradientUnits="userSpaceOnUse"><stop stop-color="#6B9E34"/><stop offset=".14" stop-color="#61933C"/><stop offset="1" stop-color="#1F4A6E"/></linearGradient><linearGradient id="o" x1="382.622" y1="205.642" x2="389.497" y2="240.29" gradientUnits="userSpaceOnUse"><stop stop-color="#6B9E34"/><stop offset=".14" stop-color="#61933C"/><stop offset="1" stop-color="#1F4A6E"/></linearGradient><linearGradient id="p" x1="548.325" y1="439.914" x2="548.325" y2="97.247" gradientUnits="userSpaceOnUse"><stop stop-color="#426120"/><stop offset="1" stop-color="#1F4A6E"/></linearGradient><linearGradient id="q" x1="587.037" y1="435.231" x2="587.037" y2="124.031" gradientUnits="userSpaceOnUse"><stop stop-color="#426120"/><stop offset="1" stop-color="#1F4A6E"/></linearGradient><linearGradient id="r" x1="530.885" y1="415.929" x2="608.793" y2="560.098" gradientUnits="userSpaceOnUse"><stop offset=".01" stop-color="#B0BD24"/><stop offset="1" stop-color="#1F4A6E"/></linearGradient><linearGradient id="s" x1="586.932" y1="442.471" x2="632.095" y2="555.298" gradientUnits="userSpaceOnUse"><stop offset=".01" stop-color="#B0BD24"/><stop offset="1" stop-color="#1F4A6E"/></linearGradient><linearGradient id="z" x1="354.438" y1="242.348" x2="492.101" y2="-91.433" gradientUnits="userSpaceOnUse"><stop stop-color="#6B9E34"/><stop offset=".14" stop-color="#61933C"/><stop offset="1" stop-color="#1F4A6E"/></linearGradient><clipPath id="u"><path fill="#fff" transform="matrix(-.97064 -.24054 -.26365 .96462 345.889 279.302)" d="M0 0h113.528v215.977H0z"/></clipPath></defs></svg>