<svg width="252" height="306" fill="none" xmlns="http://www.w3.org/2000/svg"><path d="M234.085 234.775c-30.792-6.086-62.511-30.109-146.558-99.014-89.458-73.323-148.993-23.904-155.496-18.04l-.219.127-.353.4c-.016.058 24.954 104.713 126.94 142.554 0 0-104.031-22.618-136.304-133.374-8.257-29.92-21.492-65.932 6.85-127.39.001-.004-11.159 6.94-23.23 29.118C-153.123 137.257-71.446 268.498 40.3 298.441c71.488 19.155 144.059-.239 194.677-45.368a210.3 210.3 0 0 0 15.897-15.16c-.115-.031-.303-.02-.475-.066.442-.5.868-.942 1.311-1.442l-17.625-1.63Z" fill="url(#a)"/><defs><linearGradient id="a" x1="70.104" y1="296.765" x2="62.443" y2="-101.952" gradientUnits="userSpaceOnUse"><stop stop-color="#2A6B71"/><stop offset=".076" stop-color="#387566"/><stop offset=".381" stop-color="#6A993F"/><stop offset=".648" stop-color="#8FB323"/><stop offset=".863" stop-color="#A6C311"/><stop offset="1" stop-color="#AEC90B"/></linearGradient></defs></svg>